<?xml version="1.0" encoding="utf-8" ?>
<svg baseProfile="full" height="200mm" version="1.1" viewBox="0,0,200,200" width="200mm" xmlns="http://www.w3.org/2000/svg" xmlns:ev="http://www.w3.org/2001/xml-events" xmlns:xlink="http://www.w3.org/1999/xlink"><defs /><rect fill="#1a1a1a" height="200" width="200" x="0" y="0" /><rect fill="#1a1a1a" height="200" width="180" x="10" y="0" /><text alignment-baseline="middle" fill="#e1ed5e" style="dominant-baseline: central; font-size:9.0px; font-family:Arial;" text-anchor="middle" x="100.0" y="100.0">2021</text><line stroke="#e1ed5e" stroke-width="0.3" x1="100.0" x2="100.0" y1="15.0" y2="10.0" /><path d="M 100.0 14.0 a86.0,86.0 0 0,1 42.46469731375804,11.215312516191453" fill="none" id="id13" stroke="none" /><text fill="#e1ed5e" style="font-size:6.75px; font-family:Arial;" text-anchor="middle"><textPath startOffset="22.20632615414155" xlink:href="#id13">January</textPath></text><path d="M 100.0 79.0 l 0.0 -31.350193576849584 a52.350193576849584,52.350193576849584 0 0,0 0.9011225268652011,0.00775624608326374 l -0.5396420475926728 31.345548707374878" fill="#8aff24" stroke="none" /><path d="M 100.72285384407766 79.0124445844662 l 0.4339590454067209 -12.59969714232744 a33.60716814084212,33.60716814084212 0 0,0 0.5779779462618246,0.024888946174940266 l -0.6507778240578771 12.590360469628305" fill="#ff8a0c" stroke="none" /><path d="M 101.80526077348638 79.07773832637324 l 0.9005006324137326 -10.436447822571981 a31.475225274057117,31.475225274057117 0 0,0 0.5393877473955828,0.05122136595252393 l -1.0800135068995595 10.41940091210428" fill="#ff6d0a" stroke="none" /><path d="M 102.16513564639614 79.11191278185805 l 2.2216092019866305 -21.43291430860919 a42.54774612822734,42.54774612822734 0 0,0 0.727836528565449,0.08178091449718247 l -2.590212434061805 21.391497440641405" fill="#feff18" stroke="none" /><path d="M 102.88285421437855 79.19881850522331 l 2.5409976628045436 -18.334521842338276 a39.509763918255615,39.509763918255615 0 0,0 0.6728531977670887,0.0991610708566666 l -2.856219841000288 18.28806628732064" fill="#ffd914" stroke="none" /><path d="M 103.2404852339499 79.25152402106235 l 1.944075325719396 -12.447703749529829 a33.59860141079675,33.59860141079675 0 0,0 0.5706495160863041,0.09416205966797085 l -2.1580540479445753 12.412395426922235" fill="#ff8a0c" stroke="none" /><path d="M 103.59715602781102 79.31037775812273 l 1.8749000712828463 -10.78378972616216 a31.94556399348051,31.94556399348051 0 0,0 0.5409523054857699,0.09885557614740523 l -2.0602474978715173 10.749918668664016" fill="#ff730a" stroke="none" /><path d="M 104.307194497241 79.44645832069477 l 3.187464778166633 -15.210292967111286 a36.540686724125415,36.540686724125415 0 0,0 0.6145052086214989,0.13430703740047162 l -3.44881271094166 15.153172431614944" fill="#ffb210" stroke="none" /><path d="M 105.01212808612495 79.60689891045804 l 3.360794227280846 -13.674234824089595 a35.081180201335,35.081180201335 0 0,0 0.585172647569835,0.1491735372780595 l -3.595675763535706 13.614358290642668" fill="#ff9f0e" stroke="none" /><path d="M 105.36241919743992 79.69619591428918 l 2.391488455073335 -9.0549267554893 a30.365410593136055,30.365410593136055 0 0,0 0.5042134651626301,0.1378205868029383 l -2.5469998094596757 9.012419627860067" fill="#ff5d08" stroke="none" /><path d="M 105.71112130821622 79.79150937346287 l 2.91052813541914 -10.29874474182041 a31.70211742059673,31.70211742059673 0 0,0 0.5238545173251247,0.15292749864390143 l -3.087372870467692 10.247118914257806" fill="#ff700a" stroke="none" /><path d="M 106.40334571778207 80.00007090966166 l 4.540639594001759 -14.18203450309296 a35.89118902470638,35.89118902470638 0 0,0 0.5867648439202912,0.19344714369591862 l -4.784087260164468 14.101773635137807" fill="#ffaa0f" stroke="none" /><path d="M 107.08798089147638 80.2323363322302 l 4.821409412358549 -13.446424465214855 a35.28468829272477,35.28468829272477 0 0,0 0.5699614237379856,0.20992160246502214 l -5.052153161869112 13.361439594943509" fill="#ffa10e" stroke="none" /><line stroke="#e1ed5e" stroke-width="0.3" x1="143.23703022742887" x2="145.7803849466894" y1="26.81831364943548" y2="22.513508569990506" /><path d="M 143.74570117128098 25.957352633546492 a86.0,86.0 0 0,1 28.547481713284135,27.462654790039103" fill="none" id="id14" stroke="none" /><text fill="#e1ed5e" style="font-size:6.75px; font-family:Arial;" text-anchor="middle"><textPath startOffset="19.985693538727396" xlink:href="#id14">February</textPath></text><path d="M 110.99172775467656 82.1063720568725 l 9.175791219760336 -14.937432752585394 a38.53060300579081,38.53060300579081 0 0,0 0.5621447051677148,0.3520149628047686 l -9.431555077300315 14.77727344845768" fill="#ffcd13" stroke="none" /><path d="M 111.2981086023043 82.29822771554956 l 5.068713298335726 -7.941613215153988 a30.421309620208536,30.421309620208536 0 0,0 0.43898380636900397,0.2855272787913906 l -5.20466413048901 7.85318701220307" fill="#ff5e08" stroke="none" /><path d="M 112.19680574252982 82.90503203632743 l 24.13785164804584 -33.83146451175973 a62.559642361232214,62.559642361232214 0 0,0 0.8712314483702042,0.6329866989766564 l -24.716628412769833 33.4109585779664" fill="#31ff44" stroke="none" /><path d="M 113.06298171725822 83.55741782278167 l 11.506928684912817 -14.483953557027679 a39.49849503072626,39.49849503072626 0 0,0 0.5287091769025946,0.42751271846319777 l -11.754541260379902 14.283734741300352" fill="#ffd914" stroke="none" /><path d="M 113.6212207817346 84.01681056812373 l 25.09820024868375 -29.45031839670333 a59.69419736071846,59.69419736071846 0 0,0 0.7763264516198178,0.673222648796819 l -25.601420498950333 29.01393075448684" fill="#3bff2e" stroke="none" /><path d="M 114.42810811169701 84.74124197986012 l 43.272440536382106 -45.763706091878255 a83.98270322269869,83.98270322269869 0 0,0 1.0418524493446844,1.0022612308109726 l -44.053776229339206 45.01206177430498" fill="#4dd2ff" stroke="none" /><path d="M 115.19652480421416 85.50635884689758 l 12.89986076640599 -12.303204534067252 a38.826251697980524,38.826251697980524 0 0,0 0.4571008659590755,0.48760333336894374 l -13.109728954335528 12.079331783820253" fill="#ffd013" stroke="none" /><path d="M 117.65298651832404 88.62581576622439 l 23.64411944935785 -15.234395063024472 a49.12705419114854,49.12705419114854 0 0,0 0.45190434035520766,0.7148041413798619 l -23.90285138595901 14.825143273930404" fill="#aeff20" stroke="none" /><line stroke="#e1ed5e" stroke-width="0.3" x1="172.23445277983987" x2="176.4835382374775" y1="55.19839476539836" y2="52.563006222186495" /><path d="M 173.08426987136738 54.67131705675599 a86.0,86.0 0 0,1 12.851231095245387,41.99856678651699" fill="none" id="id15" stroke="none" /><text fill="#e1ed5e" style="font-size:6.75px; font-family:Arial;" text-anchor="middle"><textPath startOffset="22.20632615414155" xlink:href="#id15">March</textPath></text><path d="M 118.73160827565052 90.50648371742162 l 24.466903986010653 -12.400267396015021 a48.42983817220468,48.42983817220468 0 0,0 0.37046517031673815,0.74683517726743 l -24.6767291692808 11.977272630248642" fill="#b7ff1f" stroke="none" /><path d="M 118.89224826269711 90.83032412892265 l 14.092531310953941 -6.84005114307173 a36.66479295713972,36.66479295713972 0 0,0 0.2706940820234761,0.5701507723392035 l -14.208183586819173 6.596457955091986" fill="#ffb410" stroke="none" /><path d="M 119.7369772167798 92.82701384747503 l 27.92188047142964 -10.147615806322516 a50.70867744638812,50.70867744638812 0 0,0 0.2910845163033896,0.8229351254522034 l -28.092418068542838 9.665483054443698" fill="#9cff22" stroke="none" /><line stroke="#e1ed5e" stroke-width="0.3" x1="184.98032266829074" x2="189.97916517819016" y1="98.17113171792111" y2="98.06355123074" /><path d="M 185.9800911702706 98.14961562048488 a86.0,86.0 0 0,1 -9.607161424134198,41.387399972396054" fill="none" id="id16" stroke="none" /><text fill="#e1ed5e" style="font-size:6.75px; font-family:Arial;" text-anchor="middle"><textPath startOffset="21.466115282336823" xlink:href="#id16">April</textPath></text><path d="M 120.76222939487914 103.15116336523771 l 31.038991684814576 4.710907081839163 a52.394452540914145,52.394452540914145 0 0,0 -0.1430075286117111,0.8905080171764711 l -30.953302401841576 -5.244494328708838" fill="#89ff24" stroke="none" /><path d="M 120.32669344350535 105.2749913415812 l 60.980080330516046 15.82497402474362 a84.0,84.0 0 0,0 -0.3752476946328911,1.396436267297807 l -60.69864455954138 -16.872301225216972" fill="#4dd2ff" stroke="none" /><line stroke="#e1ed5e" stroke-width="0.3" x1="174.80103733775053" x2="179.2010983576182" y1="140.37084112569926" y2="142.7455964860345" /><path d="M 175.68104954172406 140.8457921977663 a86.0,86.0 0 0,1 -30.038265399797805,32.042727171017184" fill="none" id="id17" stroke="none" /><text fill="#e1ed5e" style="font-size:6.75px; font-family:Arial;" text-anchor="middle"><textPath startOffset="22.206326154141568" xlink:href="#id17">May</textPath></text><path d="M 114.81725581225074 114.88116024355365 l 10.694590252413786 10.740714292975543 a36.157084290534016,36.157084290534016 0 0,0 -0.44481830706723263,0.4353483353086388 l -10.508121992970759 -10.923212731206753" fill="#ffad10" stroke="none" /><line stroke="#e1ed5e" stroke-width="0.3" x1="143.8653032363475" x2="146.44561519142675" y1="172.8068346515853" y2="177.08958963109032" /><path d="M 144.38136562736335 173.6633856474863 a86.0,86.0 0 0,1 -40.68145358897372,12.25698825130547" fill="none" id="id18" stroke="none" /><text fill="#e1ed5e" style="font-size:6.75px; font-family:Arial;" text-anchor="middle"><textPath startOffset="21.466115282336833" xlink:href="#id18">June</textPath></text><path d="M 103.06178313531738 120.77559828337769 l 2.2125814187570247 15.013376419488612 a36.17553913532846,36.17553913532846 0 0,0 -0.6168298220363337,0.08548699276809689 l -1.9538230055338608 -15.049237977749312" fill="#ffad10" stroke="none" /><path d="M 102.34483914955558 120.86867818915974 l 1.35335445002609 12.044629372046485 a33.120423465265986,33.120423465265986 0 0,0 -0.5670964126061219,0.05878186188396105 l -1.1458254408143655 -12.066140602386204" fill="#ff840c" stroke="none" /><line stroke="#e1ed5e" stroke-width="0.3" x1="102.19456741930631" x2="102.32365962044197" y1="184.97166512339345" y2="189.96999836594603" /><path d="M 102.22038585953345 185.97133177190398 a86.0,86.0 0 0,1 -42.740103519485714,-10.115201625700543" fill="none" id="id19" stroke="none" /><text fill="#e1ed5e" style="font-size:6.75px; font-family:Arial;" text-anchor="middle"><textPath startOffset="22.20632615414155" xlink:href="#id19">July</textPath></text><path d="M 100.54218724476979 120.99299961872073 l 0.3968675148663742 15.366351142786208 a36.37147524695542,36.37147524695542 0 0,0 -0.6260055853486056,0.010777253862602958 l -0.13230223962510063 -15.37090587392797" fill="#ffb010" stroke="none" /><path d="M 99.45781275523022 120.99299961872073 l -0.5066553988503584 19.617238689199805 a40.623780305594074,40.623780305594074 0 0,0 -0.6988830982119805,-0.02407094700174231 l 0.8442588487369819 -19.605610943771968" fill="#ffe815" stroke="none" /><path d="M 94.46302465271185 120.25689768951611 l -3.296394733525388 12.05978475125193 a33.50218486848369,33.50218486848369 0 0,0 -0.5549698055306047,-0.15684001048650298 l 3.5034957071606065 -12.001255947426907" fill="#ff890c" stroke="none" /><path d="M 93.08242187328487 119.8279376855182 l -4.938673016447566 14.155778080929666 a35.99254962439398,35.99254962439398 0 0,0 -0.5832171714402453,-0.20912092780541205 l 5.181609748517537 -14.068669612084296" fill="#ffab0f" stroke="none" /><line stroke="#e1ed5e" stroke-width="0.3" x1="58.666819895761336" x2="56.23545636021788" y1="174.27360380694188" y2="178.64263932499728" /><path d="M 58.180547188652646 175.14741091055294 a86.0,86.0 0 0,1 -31.652253787137756,-30.449443065178592" fill="none" id="id20" stroke="none" /><text fill="#e1ed5e" style="font-size:6.75px; font-family:Arial;" text-anchor="middle"><textPath startOffset="22.20632615414155" xlink:href="#id20">August</textPath></text><path d="M 84.67929136418377 114.36230785411682 l -8.129936170007376 7.621360661803656 a32.14365292288316,32.14365292288316 0 0,0 -0.37493824969518175,-0.40692141884045696 l 8.259920827698288 -7.480287988161854" fill="#ff760a" stroke="none" /><path d="M 84.19399662182784 113.82643327865904 l -7.795570321569601 6.819240154606437 a31.357265706967915,31.357265706967915 0 0,0 -0.3518845020583971,-0.4093211732360339 l 7.911797333198776 -6.684041882208872" fill="#ff6b09" stroke="none" /><path d="M 83.50135304334701 112.99209946851258 l -9.769860881679577 7.6934190241052995 a33.435388129360426,33.435388129360426 0 0,0 -0.35217523418487834,-0.45523396388327014 l 9.900842933082524 -7.524107066108777" fill="#ff880c" stroke="none" /><line stroke="#e1ed5e" stroke-width="0.3" x1="26.63291911575756" x2="22.317208475507996" y1="142.92168965132927" y2="145.44649492493687" /><path d="M 25.769776987707644 143.4266507060508 a86.0,86.0 0 0,1 -11.730757126820373,-40.83630448921669" fill="none" id="id21" stroke="none" /><text fill="#e1ed5e" style="font-size:6.75px; font-family:Arial;" text-anchor="middle"><textPath startOffset="21.46611528233685" xlink:href="#id21">September</textPath></text><line stroke="#e1ed5e" stroke-width="0.3" x1="15.007084014347285" x2="10.007500721073583" y1="101.09737516637583" y2="101.16192664675087" /><path d="M 14.007167355692545 101.11028546245083 a86.0,86.0 0 0,1 10.666146001902534,-42.60595125391555" fill="none" id="id22" stroke="none" /><text fill="#e1ed5e" style="font-size:6.75px; font-family:Arial;" text-anchor="middle"><textPath startOffset="22.20632615414155" xlink:href="#id22">October</textPath></text><line stroke="#e1ed5e" stroke-width="0.3" x1="26.266209847984243" x2="21.928928074336255" y1="57.711370442889674" y2="55.22380399835377" /><path d="M 25.398753493254645 57.213857153982495 a86.0,86.0 0 0,1 29.58750427330803,-30.492523968695096" fill="none" id="id23" stroke="none" /><text fill="#e1ed5e" style="font-size:6.75px; font-family:Arial;" text-anchor="middle"><textPath startOffset="21.46611528233685" xlink:href="#id23">November</textPath></text><path d="M 81.96595687620814 89.24020034530311 l -2.5993725642809267 -1.550885058197518 a24.026876639652947,24.026876639652947 0 0,0 0.21496526367222554,-0.35334637216680687 l 2.572291502322484 1.595399203571399" fill="#ff0000" stroke="none" /><path d="M 84.31358615837235 86.03803664274999 l -17.239740987927906 -15.344528991271023 a44.07949824616641,44.07949824616641 0 0,0 0.5093414556136272,-0.5624275568388944 l 16.973055891698234 15.639009335379473" fill="#ebff1a" stroke="none" /><path d="M 85.83668400450813 84.49514656593479 l -11.964242890048368 -13.09748596436046 a38.73942633003368,38.73942633003368 0 0,0 0.496213334743542,-0.4455052313529826 l 11.737018567708855 13.301490204482722" fill="#ffcf13" stroke="none" /><line stroke="#e1ed5e" stroke-width="0.3" x1="56.762969772571076" x2="54.21961505331055" y1="26.818313649435495" y2="22.513508569990535" /><path d="M 56.25429882871897 25.957352633546506 a86.0,86.0 0 0,1 42.265352541879196,-11.944610805530505" fill="none" id="id24" stroke="none" /><text fill="#e1ed5e" style="font-size:6.75px; font-family:Arial;" text-anchor="middle"><textPath startOffset="22.20632615414155" xlink:href="#id24">December</textPath></text><path d="M 90.58718382345135 81.22770947309562 l -6.228392297749087 -12.421488695400242 a34.89554792099312,34.89554792099312 0 0,0 0.5392670454179457,-0.2646159971755203 l 6.013653985320715 12.526859852710592" fill="#ff9c0e" stroke="none" /><path d="M 96.04723909329186 79.375362276772 l -2.5334301120053833 -13.218881559103124 a34.45946127473207,34.45946127473207 0 0,0 0.5835215501647922,-0.1066348335167338 l 2.305513440737698 13.260531873970596" fill="#ff960d" stroke="none" /></svg>