<?xml version="1.0" encoding="utf-8" ?>
<svg baseProfile="full" height="200mm" version="1.1" viewBox="0,0,200,200" width="200mm" xmlns="http://www.w3.org/2000/svg" xmlns:ev="http://www.w3.org/2001/xml-events" xmlns:xlink="http://www.w3.org/1999/xlink"><defs /><rect fill="#1a1a1a" height="200" width="200" x="0" y="0" /><rect fill="#1a1a1a" height="200" width="180" x="10" y="0" /><text alignment-baseline="middle" fill="#e1ed5e" style="dominant-baseline: central; font-size:9.0px; font-family:Arial;" text-anchor="middle" x="100.0" y="100.0">2023</text><line stroke="#e1ed5e" stroke-width="0.3" x1="100.0" x2="100.0" y1="15.0" y2="10.0" /><path d="M 100.0 14.0 a86.0,86.0 0 0,1 42.46469731375804,11.215312516191453" fill="none" id="id37" stroke="none" /><text fill="#e1ed5e" style="font-size:6.75px; font-family:Arial;" text-anchor="middle"><textPath startOffset="22.20632615414155" xlink:href="#id37">January</textPath></text><path d="M 100.0 79.0 l 0.0 -11.747680954973838 a32.74768095497384,32.74768095497384 0 0,0 0.5636974955556092,0.004851922309897827 l -0.2022170162830808 11.7459404092725" fill="#ff6c0a" stroke="none" /><path d="M 100.36148047927253 79.00311137660856 l 0.15529572222065385 -9.020478753702957 a30.02181543301272,30.02181543301272 0 0,0 0.5166230695517359,0.013342849700001089 l -0.3105454269672575 9.016469111860596" fill="#ff4406" stroke="none" /><path d="M 102.52436894288641 79.15227682838746 l 1.977333919669209 -16.329986268951735 a37.44926445085088,37.44926445085088 0 0,0 0.6392861778021308,0.08299769351487074 l -2.258134825979186 16.293530252272728" fill="#ffae10" stroke="none" /><path d="M 103.59715602781102 79.31037775812273 l 2.823436721045534 -16.239451035940856 a37.4830690366348,37.4830690366348 0 0,0 0.6347220107363869,0.1159913904210833 l -3.1025538528848218 16.188444164169034" fill="#ffaf10" stroke="none" /><path d="M 104.66035177308747 79.52364482259891 l 4.257185798468502 -18.704950336372963 a40.18329476416554,40.18329476416554 0 0,0 0.6731205370398231,0.15930588346501004 l -4.578530022470849 18.628898540767086" fill="#ffd313" stroke="none" /><path d="M 105.01212808612495 79.60689891045804 l 4.357929364027472 -17.73132939433822 a39.25901395016652,39.25901395016652 0 0,0 0.6548611250349493,0.16693868186259478 l -4.662499377747446 17.65368771630676" fill="#ffc712" stroke="none" /><path d="M 105.71112130821622 79.79150937346287 l 3.2581294444125293 -11.528712976685123 a32.98026002953758,32.98026002953758 0 0,0 0.5449748977273616,0.1590931168422784 l -3.456094559863318 11.47092153092414" fill="#ff700a" stroke="none" /><path d="M 106.0581310904928 79.89281104454417 l 5.107313896858334 -16.95138715966651 a38.70407246590312,38.70407246590312 0 0,0 0.6362481881378141,0.19768540915190083 l -5.3983474577068655 16.86096161563209" fill="#ffc011" stroke="none" /><path d="M 107.08798089147638 80.2323363322302 l 12.413886132943126 -34.6210761066114 a57.77938933290568,57.77938933290568 0 0,0 0.9333233365613843,0.34375086149520645 l -13.007991795277086 34.40226197730986" fill="#56ff2a" stroke="none" /><path d="M 107.76421540070413 80.48803036053334 l 5.442400585318172 -13.677100583390978 a35.720149608589765,35.720149608589765 0 0,0 0.5693385835576686,0.23224750347365777 l -5.6770230384642275 13.581392193733741" fill="#ff960d" stroke="none" /><path d="M 108.09893153111575 80.62456947434976 l 7.9298916735425715 -18.97102903097262 a41.56169070013762,41.56169070013762 0 0,0 0.6576964225405207,0.2815912843561937 l -8.255271853873408 18.831718218653638" fill="#ffe615" stroke="none" /><path d="M 108.43124777332544 80.76684994638697 l 7.122700167368762 -16.248124214699242 a38.74075528748793,38.74075528748793 0 0,0 0.6084473256150549,0.2729925791896385 l -7.401329611450597 16.123111304993074" fill="#ffc011" stroke="none" /><path d="M 109.41281617654863 81.2277094730956 l 8.23212441884673 -16.41759791604452 a39.36587579671283,39.36587579671283 0 0,0 0.6031217944988568,0.3089424085199046 l -8.513506700934343 16.273462982212116" fill="#ffc912" stroke="none" /><path d="M 109.73455568895987 81.39251694778311 l 8.203562249652432 -15.681007989027618 a38.69724399831427,38.69724399831427 0 0,0 0.5875622825983375,0.3138554227935828 l -8.47226957877908 15.537473839732282" fill="#ffbf11" stroke="none" /><path d="M 110.05341064243156 81.56283822128135 l 7.8405686598183895 -14.378984203440398 a37.377719732371624,37.377719732371624 0 0,0 0.5622248223272883,0.31287750491723637 l -8.086917571217713 14.241891300962982" fill="#ffad10" stroke="none" /><line stroke="#e1ed5e" stroke-width="0.3" x1="143.23703022742887" x2="145.7803849466894" y1="26.81831364943548" y2="22.513508569990506" /><path d="M 143.74570117128098 25.957352633546492 a86.0,86.0 0 0,1 28.547481713284135,27.462654790039103" fill="none" id="id38" stroke="none" /><text fill="#e1ed5e" style="font-size:6.75px; font-family:Arial;" text-anchor="middle"><textPath startOffset="19.985693538727396" xlink:href="#id38">February</textPath></text><path d="M 110.99172775467656 82.1063720568725 l 9.463118682894512 -15.405178209706834 a39.07955007403042,39.07955007403042 0 0,0 0.5701536036472392,0.3570301342979091 l -9.726891438914015 15.240003734085981" fill="#ffc512" stroke="none" /><path d="M 111.60114157652 82.49532879139004 l 9.782683088576901 -14.7608448594535 a38.70828702546871,38.70828702546871 0 0,0 0.5522295752568852,0.37286787431315543 l -10.035317358240327 14.590265072841675" fill="#ffc011" stroke="none" /><path d="M 112.19680574252982 82.90503203632743 l 9.293100181958772 -13.02515209698123 a37.000509308813164,37.000509308813164 0 0,0 0.5152843926027453,0.37437602524330316 l -9.515929890915308 12.863256836921252" fill="#ffa80f" stroke="none" /><path d="M 112.48926042617603 83.11751280151076 l 9.287007704240974 -12.5538088989249 a36.61558932507375,36.61558932507375 0 0,0 0.5034710595246924,0.37920396398430134 l -9.501724917524049 12.392088345434752" fill="#ffa30f" stroke="none" /><path d="M 113.06298171725822 83.55741782278167 l 9.869400257573245 -12.42277056551437 a36.866010524627704,36.866010524627704 0 0,0 0.4934719174742166,0.39901997192591915 l -10.081775573611953 12.25104449632432" fill="#ffa60f" stroke="none" /><path d="M 113.6212207817346 84.01681056812373 l 20.7723705821873 -24.374374315218574 a53.02501370588477,53.02501370588477 0 0,0 0.6895933366627359,0.5980085461883448 l -21.1888577174968 24.01320077561056" fill="#8bff24" stroke="none" /><path d="M 113.89432698308785 84.25364557470407 l 15.902923590454392 -18.022684478240446 a45.03580942107089,45.03580942107089 0 0,0 0.5768637094756698,0.5179139340983634 l -16.210798287526053 17.746271535372788" fill="#ebff1a" stroke="none" /><path d="M 114.42810811169701 84.74124197986012 l 12.263576436629583 -12.969610697352236 a38.84954085286033,38.84954085286033 0 0,0 0.4819503033397152,0.46363580996408116 l -12.485009983581717 12.756591800625852" fill="#ffc212" stroke="none" /><path d="M 114.94478906791727 85.2469230424477 l 12.839176400294193 -12.674475139415739 a39.04125191602675,39.04125191602675 0 0,0 0.46800372843016186,0.48231898083643054 l -13.055444392427464 12.451591963029195" fill="#ffc412" stroke="none" /><path d="M 115.4437574822437 85.77008943001954 l 24.377611029323408 -22.46158198585262 a54.148010269157474,54.148010269157474 0 0,0 0.6256837637999652,0.6908956393581229 l -24.76063843373941 22.038633559224948" fill="#7eff26" stroke="none" /><path d="M 115.68641384162765 86.03803664274999 l 11.10661493146748 -9.885634298689675 a35.86884866838472,35.86884866838472 0 0,0 0.4065275155795442,0.46473122569419495 l -11.275134310624873 9.692987516792533" fill="#ff990e" stroke="none" /><path d="M 116.38621287248628 86.86637796730983 l 13.87516751493651 -11.12100808158164 a38.78193168129249,38.78193168129249 0 0,0 0.41302003653355873,0.5244935035562237 l -14.064541632064033 10.880522184072378" fill="#ffc111" stroke="none" /><path d="M 116.82858285166822 87.43820079747576 l 12.482070033588577 -9.317317968829533 a36.57608700719419,36.57608700719419 0 0,0 0.3722703467329514,0.5077763345779154 l -12.640602992835154 9.101079190580124" fill="#ffa20f" stroke="none" /><path d="M 117.04232023915458 87.72973835380427 l 18.122941920451037 -13.048296009122204 a43.33157075966032,43.33157075966032 0 0,0 0.4306072372198183,0.6090633993928323 l -18.344861777474737 12.734406109397577" fill="#fffd17" stroke="none" /><path d="M 117.2510076193507 88.02491185347247 l 21.173677224045907 -14.698077743566355 a46.77514493740047,46.77514493740047 0 0,0 0.4534416725739877,0.6653697027387385 l -21.42354336228863 14.33143001755721" fill="#d6ff1c" stroke="none" /><line stroke="#e1ed5e" stroke-width="0.3" x1="172.23445277983987" x2="176.4835382374775" y1="55.19839476539836" y2="52.563006222186495" /><path d="M 173.08426987136738 54.67131705675599 a86.0,86.0 0 0,1 12.851231095245387,41.99856678651699" fill="none" id="id39" stroke="none" /><text fill="#e1ed5e" style="font-size:6.75px; font-family:Arial;" text-anchor="middle"><textPath startOffset="22.20632615414155" xlink:href="#id39">March</textPath></text><path d="M 118.03404312379186 89.2402003453031 l 9.571881826244226 -5.710950675999438 a32.14611498771132,32.14611498771132 0 0,0 0.27942677592243403,0.4776309375716638 l -9.668768276636987 5.545340326073879" fill="#ff6309" stroke="none" /><path d="M 118.21658344932153 89.55222093294921 l 15.485366383939665 -8.881340850869737 a38.85146457168644,38.85146457168644 0 0,0 0.3277257177843815,0.5829874833201208 l -15.635949743016479 8.613469857614822" fill="#ffc212" stroke="none" /><path d="M 118.3937258080291 89.86733742301442 l 17.61230304434471 -9.702195510278896 a41.10785459081873,41.10785459081873 0 0,0 0.33608979484517265,0.6227233466544537 l -17.77670093840835 9.397591180291984" fill="#ffe015" stroke="none" /><path d="M 118.73160827565052 90.50648371742162 l 22.56150970701476 -11.434579274301882 a46.2937012601955,46.2937012601955 0 0,0 0.35412474146555234,0.7138938698099235 l -22.754994461433718 11.044525815993008" fill="#dcff1b" stroke="none" /><path d="M 118.89224826269711 90.83032412892265 l 15.537261224918405 -7.541275520821481 a38.27070707447423,38.27070707447423 0 0,0 0.2825504546561697,0.5951233168556566 l -15.664769873416331 7.272709788325284" fill="#ffba11" stroke="none" /><path d="M 119.34039704204932 91.81776055985345 l 19.204657652703347 -8.124812894937918 a41.852612789175524,41.852612789175524 0 0,0 0.2749882339074095,0.6659058202778501 l -19.341667573496952 7.7930325042067645" fill="#ffea16" stroke="none" /><path d="M 119.47837535516314 92.15188598940014 l 30.3545622430985 -12.230284142385623 a53.725820068771846,53.725820068771846 0 0,0 0.33823333099937253,0.8607669345203964 l -30.56058912397957 11.705968202969443" fill="#83ff25" stroke="none" /><path d="M 119.61058180528143 92.48833698450437 l 19.28597922112622 -7.387326815257234 a41.65239918249526,41.65239918249526 0 0,0 0.2506986730745741,0.6717478043014028 l -19.410282482702417 7.054255873926498" fill="#ffe715" stroke="none" /><path d="M 119.85752413597 93.16781622104841 l 15.570708822777432 -5.357261233441364 a37.466548550532764,37.466548550532764 0 0,0 0.20457218332549773,0.6116447897042676 l -15.6606182998747 5.0884433408147824" fill="#ffaf10" stroke="none" /><path d="M 120.08093135843002 93.85539295169968 l 11.393664757592651 -3.4863717984915343 a32.91513260210418,32.91513260210418 0 0,0 0.1611181679658409,0.543210366249073 l -11.451988822670195 3.2897320454959313" fill="#ff6f0a" stroke="none" /><path d="M 120.18372546131832 94.20196356495316 l 18.57441542443227 -5.33574129300113 a40.325605902667704,40.325605902667704 0 0,0 0.185907244585971,0.6688072723181502 l -18.663509439584605 5.015222717264027" fill="#ffd513" stroke="none" /><path d="M 120.28053869075195 94.5502522615342 l 32.14087258631284 -8.636834078251068 a54.28108462031902,54.28108462031902 0 0,0 0.23471055207540312,0.904435501606426 l -32.28477947025855 8.08230215109579" fill="#7dff26" stroke="none" /><path d="M 120.37134235888165 94.90015583598534 l 15.830169053496382 -3.962988488465559 a37.31868652870031,37.31868652870031 0 0,0 0.15063812166581936,0.6244922657742125 l -15.89603997542302 3.6899109910319403" fill="#ffad10" stroke="none" /><path d="M 120.53481517161879 95.60439243477599 l 17.605795466852715 -3.76863230075929 a39.00462783394808,39.00462783394808 0 0,0 0.1348830255178485,0.6577375351565328 l -17.66805778828556 3.4650191094393454" fill="#ffc412" stroke="none" /><path d="M 120.6074358757038 95.95851677861258 l 16.054313135533455 -3.1485351966886737 a37.36014193515904,37.36014193515904 0 0,0 0.11833251406866725,0.6321370218415353 l -16.10613137351198 2.8717200973845753" fill="#ffad10" stroke="none" /><path d="M 120.78858239683441 97.02765380044208 l 24.970790875243413 -3.5703172992347616 a46.22474107998642,46.22474107998642 0 0,0 0.1058414520781593,0.7886417557985311 l -25.028548326379408 3.1399572013715664" fill="#ddff1b" stroke="none" /><path d="M 120.83666639777658 97.38593545837742 l 33.77025988977233 -4.236648859946852 a55.034976811880675,55.034976811880675 0 0,0 0.10983316431626614,0.9409834778786805 l -33.83818340709219 3.6547216437433185" fill="#74ff27" stroke="none" /><path d="M 120.91429891909075 98.10471618934814 l 22.176700012156786 -2.009684411097202 a43.267574067720126,43.267574067720126 0 0,0 0.06083321229655619,0.7423192748943624 l -22.208007708272834 1.6276512189950707" fill="#fffc17" stroke="none" /><path d="M 120.94382443527127 98.46500227214037 l 18.071154617676612 -1.3244563505420943 a39.11962510209486,39.11962510209486 0 0,0 0.043440311309984936,0.6720023888285787 l -18.091275519991015 1.0131948974604805" fill="#ffc512" stroke="none" /><line stroke="#e1ed5e" stroke-width="0.3" x1="184.98032266829074" x2="189.97916517819016" y1="98.17113171792111" y2="98.06355123074" /><path d="M 185.9800911702706 98.14961562048488 a86.0,86.0 0 0,1 -9.607161424134198,41.387399972396054" fill="none" id="id40" stroke="none" /><text fill="#e1ed5e" style="font-size:6.75px; font-family:Arial;" text-anchor="middle"><textPath startOffset="21.466115282336823" xlink:href="#id40">April</textPath></text><path d="M 120.99980553446 99.90962569577887 l 31.280098006774885 -0.13461634626530988 a52.2803876714168,52.2803876714168 0 0,0 -0.003872987657440779,0.8999459342406717 l -31.27778072182794 -0.4038390661790466" fill="#94ff23" stroke="none" /><path d="M 120.9764740272857 100.99374915477107 l 20.895626556524654 0.9899190494049447 a41.919061855497084,41.919061855497084 0 0,0 -0.0403493908319511,0.7204654784920851 l -20.875490814805172 -1.3494562442324531" fill="#ffea16" stroke="none" /><path d="M 120.92983693683757 101.71520430193887 l 20.648834207379405 1.6921760723412043 a41.71805526548392,41.71805526548392 0 0,0 -0.06481278074150933,0.7152036347206436 l -20.61664683036082 -2.0473610956104182" fill="#ffe815" stroke="none" /><path d="M 120.8583938346157 102.4346265915055 l 30.918714499226127 3.608884034496405 a52.128619472425996,52.128619472425996 0 0,0 -0.11170043815735876,0.8903623951555996 l -30.852012551821918 -4.140564183939399" fill="#95ff23" stroke="none" /><path d="M 120.76222939487914 103.15116336523771 l 13.942001815187004 2.1160312085238178 a35.10166666355876,35.10166666355876 0 0,0 -0.09580790248333497,0.5965959002195115 l -13.90351215834238 -2.355706338436534" fill="#ff8e0d" stroke="none" /><path d="M 120.70491114924044 103.5080841355445 l 16.980980954902048 2.8771294628840036 a38.22299591061152,38.22299591061152 0 0,0 -0.11549452738014011,0.6477546445422626 l -16.92893998518272 -3.1690028581594847" fill="#ffb911" stroke="none" /><path d="M 120.5718875245553 104.21870165774334 l 16.81973514552623 3.449243267373409 a38.169763233171594,38.169763233171594 0 0,0 -0.13753103936658753,0.6424992294801413 l -16.7578700674352 -3.738256316269719" fill="#ffb811" stroke="none" /><path d="M 120.49622156327973 104.57218783832717 l 23.688482101099442 5.284300300749996 a45.27072339100372,45.27072339100372 0 0,0 -0.17620968142357754,0.7591066957369461 l -23.59401185374531 -5.691275653835507" fill="#e8ff1a" stroke="none" /><path d="M 120.41448212921028 104.9243191809786 l 20.642280015075123 4.979267892959178 a42.234331469830266,42.234331469830266 0 0,0 -0.1765569738744357,0.7052573461015207 l -20.553511726905626 -5.333853078458095" fill="#ffef16" stroke="none" /><path d="M 120.23288151984713 105.62410040840565 l 15.733595501126937 4.373441360627609 a37.33012604752119,37.33012604752119 0 0,0 -0.17742006883393457,0.617622534937282 l -15.655982795406903 -4.643621371069473" fill="#ffad10" stroke="none" /><path d="M 120.02730092923936 106.31721596034902 l 16.044316399841346 5.06086226956279 a37.823567268855385,37.823567268855385 0 0,0 -0.2011993122923521,0.6192278111331591 l -15.954824836532747 -5.336288980673745" fill="#ffb410" stroke="none" /><path d="M 119.9155931802556 106.66101706037122 l 14.069807513515586 4.705821565816084 a35.83591049031637,35.83591049031637 0 0,0 -0.2006967454837556,0.5833186864399348 l -13.986719937088601 -4.9473129553453195" fill="#ff980e" stroke="none" /><path d="M 119.79798401119884 107.00284435728193 l 29.86726128801003 10.564498994437807 a52.680623981382375,52.680623981382375 0 0,0 -0.30975137984795065,0.8523027644174429 l -29.680985647156852 -11.07704955586138" fill="#8fff24" stroke="none" /><path d="M 119.41010516605496 108.01547362559984 l 15.003482196014552 6.195742619912542 a37.23242756393283,37.23242756393283 0 0,0 -0.24972147096230338,0.5902677908248832 l -14.89460974385994 -6.453084936403589" fill="#ffab0f" stroke="none" /><path d="M 119.12269723197855 108.67885076344098 l 10.718353172310644 4.864532784463986 a32.770589362368675,32.770589362368675 0 0,0 -0.23754835819386277,0.5116580302555481 l -10.63303019727695 -5.048310881998364" fill="#ff6c0a" stroke="none" /><path d="M 118.81262510543309 109.33194174019688 l 24.470851005666965 12.138686368228948 a48.31611714149321,48.31611714149321 0 0,0 -0.3759944825726318,0.7418727847216068 l -24.258277853308066 -12.558113364653249" fill="#c3ff1e" stroke="none" /><line stroke="#e1ed5e" stroke-width="0.3" x1="174.80103733775053" x2="179.2010983576182" y1="140.37084112569926" y2="142.7455964860345" /><path d="M 175.68104954172406 140.8457921977663 a86.0,86.0 0 0,1 -30.038265399797805,32.042727171017184" fill="none" id="id41" stroke="none" /><text fill="#e1ed5e" style="font-size:6.75px; font-family:Arial;" text-anchor="middle"><textPath startOffset="22.206326154141568" xlink:href="#id41">May</textPath></text><path d="M 118.12598468904814 110.60418214915192 l 29.448624154442754 17.22822676576061 a55.11793167942775,55.11793167942775 0 0,0 -0.48613785899945466,0.8147950142804914 l -29.147705419745073 -17.732583873927204" fill="#73ff27" stroke="none" /><path d="M 117.75023020441432 111.22182372390056 l 13.936307763610756 8.810634413427133 a37.487812251755656,37.487812251755656 0 0,0 -0.3495205391203803,0.542463638548022 l -13.782582361113326 -9.049219651896609" fill="#ffaf10" stroke="none" /><path d="M 117.35343817320211 111.8261652097733 l 13.987097006354446 9.532043065547198 a37.92627329534224,37.92627329534224 0 0,0 -0.37228988437251187,0.536311345130237 l -13.820946214819799 -9.771395672864454" fill="#ffb510" stroke="none" /><path d="M 116.71984013943494 112.70617746262583 l 13.28504828471913 10.095920756267407 a37.685925921091396,37.685925921091396 0 0,0 -0.39694618574144297,0.5131064539551342 l -13.109295281759618 -10.323105204335794" fill="#ffb210" stroke="none" /><path d="M 116.27256486870786 113.27417163493432 l 11.440671417502344 9.332605968395967 a35.764365771837106,35.764365771837106 0 0,0 -0.3932445294279823,0.47368836837628897 l -11.278330888180818 -9.528155593886027" fill="#ff970d" stroke="none" /><path d="M 116.0416608686014 113.55231037782055 l 20.254830646673717 17.111679010195058 a47.515424248414035,47.515424248414035 0 0,0 -0.5332078873838579,0.6202412347402824 l -19.95728024971908 -17.45779734409687" fill="#cdff1d" stroke="none" /><path d="M 115.80600337817218 113.82643327865902 l 16.79433912345104 14.690988214657791 a43.31311186985563,43.31311186985563 0 0,0 -0.4957106253386341,0.5569361425602142 l -16.538969648464068 -14.977898526958871" fill="#fffd17" stroke="none" /><path d="M 114.81725581225074 114.88116024355365 l 11.786899655534352 11.8377346501417 a37.70517779422899,37.70517779422899 0 0,0 -0.4638635466103907,0.45398811069318684 l -11.581386156548168 -12.038872863757458" fill="#ffb210" stroke="none" /><path d="M 114.29624159901734 115.38237550388516 l 14.650621191618654 15.763678514648626 a42.52055439837692,42.52055439837692 0 0,0 -0.5404169107545486,0.49365803481299897 l -14.37710473139724 -16.01352931604821" fill="#fff216" stroke="none" /><path d="M 113.48314897796784 116.09983520530334 l 7.6033922863296866 9.078989115318112 a32.84228092961329,32.84228092961329 0 0,0 -0.43653626924676664,0.3592396303521894 l -7.445985888538229 -9.20852386452748" fill="#ff6e0a" stroke="none" /><path d="M 113.20401910651253 116.32954008644616 l 14.232436850767836 17.601394409358083 a43.63562112832065,43.63562112832065 0 0,0 -0.588130267190267,0.46724625395622343 l -13.927349090860218 -17.843774577319433" fill="#fdff18" stroke="none" /><path d="M 112.63410532772338 116.77436683061366 l 9.77199453480473 12.974327563493896 a37.24269229263089,37.24269229263089 0 0,0 -0.5153945772531063,0.38127658690770116 l -9.54721498713306 -13.140614099141366" fill="#ffac0f" stroke="none" /><path d="M 112.34349029814194 116.9893568818739 l 12.58512489405816 17.32193837105334 a42.411093328683904,42.411093328683904 0 0,0 -0.5943059886991503,0.4240215431341684 l -12.285091577510125 -17.536004176031728" fill="#fff116" stroke="none" /><path d="M 111.45004920935366 117.60387380957326 l 8.820062052480962 13.5604010537912 a37.176463499457356,37.176463499457356 0 0,0 -0.539444998277272,0.3442993208572755 l -8.58533525215676 -13.710214803472283" fill="#ffab0f" stroke="none" /><line stroke="#e1ed5e" stroke-width="0.3" x1="143.8653032363475" x2="146.44561519142675" y1="172.8068346515853" y2="177.08958963109032" /><path d="M 144.38136562736335 173.6633856474863 a86.0,86.0 0 0,1 -40.68145358897372,12.25698825130547" fill="none" id="id42" stroke="none" /><text fill="#e1ed5e" style="font-size:6.75px; font-family:Arial;" text-anchor="middle"><textPath startOffset="21.466115282336833" xlink:href="#id42">June</textPath></text><path d="M 110.21172684928248 118.3499491758327 l 6.987897559353143 12.556893359232891 a35.37032647976937,35.37032647976937 0 0,0 -0.5345587981636705,0.29148407845871516 l -6.770715949320823 -12.675318089451375" fill="#ff920d" stroke="none" /><path d="M 109.89434966115114 118.52300852407294 l 11.09551093492248 20.7716778429076 a44.549372885843965,44.549372885843965 0 0,0 -0.6795033058131089,0.35548401429187393 l -10.736316726582874 -20.95959127614419" fill="#f2ff19" stroke="none" /><path d="M 107.59598834532513 119.57807347666477 l 5.327226391826866 13.730514711782376 a35.727741689758446,35.727741689758446 0 0,0 -0.5752673052519977,0.21751687117970922 l -5.090088865814593 -13.820179833068718" fill="#ff970d" stroke="none" /><path d="M 106.91757812671514 119.82793768551818 l 6.229436696637009 17.855509598046527 a39.91097841369768,39.91097841369768 0 0,0 -0.6506064713856046,0.22072103918763503 l -5.921160492314177 -17.960093624132288" fill="#ffd013" stroke="none" /><path d="M 106.2309692047433 120.05430185196036 l 4.412157083374534 14.200476211774681 a35.870126252643274,35.870126252643274 0 0,0 -0.5912165888584648,0.17812870839942507 l -4.167065520075823 -14.274320289279833" fill="#ff990e" stroke="none" /><path d="M 105.53697534728816 120.25689768951611 l 8.362716735362447 30.594807939249645 a52.7171452693253,52.7171452693253 0 0,0 -0.8773879094916118,0.23172612135135096 l -7.8348383830593376 -30.734225409904578" fill="#8fff24" stroke="none" /><path d="M 105.18746579009965 120.34920634021253 l 4.371561016103643 17.148604105553673 a38.69703841004278,38.69703841004278 0 0,0 -0.6468794392386338,0.15898722766629247 l -4.075728292121798 -17.221312591533998" fill="#ffbf11" stroke="none" /><path d="M 104.48393922423573 120.51570834832081 l 2.649659360610026 12.123188104526308 a33.40936680677127,33.40936680677127 0 0,0 -0.5628818687844567,0.11795736840168114 l -2.4405860303961915 -12.16700145365453" fill="#ff760a" stroke="none" /><path d="M 103.7750983002368 120.6578951692458 l 4.362402474711034 23.871710308307986 a45.267037486993395,45.267037486993395 0 0,0 -0.76770961711457,0.1334761574922634 l -3.9508438861244146 -23.943265044321254" fill="#e9ff1a" stroke="none" /><path d="M 103.06178313531738 120.77559828337769 l 3.2227132205111344 21.867582481451432 a43.10377895484704,43.10377895484704 0 0,0 -0.7349633740730251,0.10185922664500463 l -2.8458212552512787 -21.91981627358904" fill="#fffa17" stroke="none" /><path d="M 102.34483914955558 120.86867818915974 l 1.6942449516923768 15.078498103879646 a36.17338363797071,36.17338363797071 0 0,0 -0.6193699822235479,0.06420023110853829 l -1.4344423728632263 -15.105427703443944" fill="#ff9d0e" stroke="none" /><path d="M 101.26447882468166 120.96189622390904 l 0.9792565767485201 16.233624745397105 a37.26313364076783,37.26313364076783 0 0,0 -0.6405921834581069,0.033111298780124906 l -0.6996763248769337 -16.24807585093943" fill="#ffac0f" stroke="none" /><path d="M 100.90346689309514 120.98055641714683 l 0.7078799385734293 16.438582422125634 a37.45381676257678,37.45381676257678 0 0,0 -0.6443477023059881,0.02219263769947097 l -0.4248118845927889 -16.448331858251198" fill="#ffae10" stroke="none" /><line stroke="#e1ed5e" stroke-width="0.3" x1="102.19456741930631" x2="102.32365962044197" y1="184.97166512339345" y2="189.96999836594603" /><path d="M 102.22038585953345 185.97133177190398 a86.0,86.0 0 0,1 -42.740103519485714,-10.115201625700543" fill="none" id="id43" stroke="none" /><text fill="#e1ed5e" style="font-size:6.75px; font-family:Arial;" text-anchor="middle"><textPath startOffset="22.20632615414155" xlink:href="#id43">July</textPath></text><path d="M 100.18074693466247 120.99922214144158 l 0.2813333102529797 32.68537133878346 a53.686582078669915,53.686582078669915 0 0,0 -0.9241604898308479,0.0 l 0.2813333102529572 -32.68537133878346" fill="#84ff25" stroke="none" /><path d="M 99.81925306533755 120.99922214144158 l -0.14052591686989518 16.32633466504793 a37.32693942931307,37.32693942931307 0 0,0 -0.6424505029851675,-0.011060368033253892 l 0.4215361097477306 -16.32149681973552" fill="#ffad10" stroke="none" /><path d="M 98.01472825383883 120.90594882070398 l -2.6210358223010837 27.600876738518604 a48.7250468983676,48.7250468983676 0 0,0 -0.8342827901674632,-0.0864768223773732 l 3.09575120907414 -27.55167054768547" fill="#beff1f" stroke="none" /><path d="M 97.65516085044442 120.86867818915974 l -2.39253525288536 21.293165570929474 a42.427158583613355,42.427158583613355 0 0,0 -0.72504493969089,-0.08779284494936697 l 2.7587076156276393 -21.24882719725476" fill="#fff116" stroke="none" /><path d="M 96.93821686468263 120.77559828337769 l -2.542994092956647 17.255377463823386 a38.441756516355696,38.441756516355696 0 0,0 -0.6538103222636115,-0.10211172604917845 l 2.8396402788287753 -17.209047430427102" fill="#ffbc11" stroke="none" /><path d="M 96.22490169976321 120.6578951692458 l -3.0638998001437496 16.766111991434133 a38.0437669925,38.0437669925 0 0,0 -0.6431794926678993,-0.12326688054989393 l 3.352046907383344 -16.71088791253577" fill="#ffb710" stroke="none" /><path d="M 95.51606077576429 120.51570834832081 l -4.724808416422734 21.617775492829637 a43.128082425512716,43.128082425512716 0 0,0 -0.7238942881103346,-0.16475598317644727 l 5.096222853925932 -21.5332427760755" fill="#fffa17" stroke="none" /><path d="M 95.16358092515715 120.4354850818985 l -6.1299884242755205 25.901247401842085 a47.61674989650658,47.61674989650658 0 0,0 -0.7959858877320336,-0.19563396496410154 l 6.574927596750764 -25.791892178563955" fill="#cbff1d" stroke="none" /><path d="M 94.46302465271185 120.25689768951611 l -3.117746818290808 11.406205438654009 a32.82462970801804,32.82462970801804 0 0,0 -0.543745980663182,-0.15366804546721297 l 3.3136239670586036 -11.350848599848273" fill="#ff6d0a" stroke="none" /><path d="M 93.76903079525671 120.05430185196036 l -5.254872703014073 16.91274662369523 a38.71029885355402,38.71029885355402 0 0,0 -0.6346252200204424,-0.20318695464663258 l 5.5452192681254555 -16.819786822388892" fill="#ffc011" stroke="none" /><path d="M 93.08242187328487 119.8279376855182 l -8.280060104663072 23.733236225199718 a46.136147219849846,46.136147219849846 0 0,0 -0.7475823069915296,-0.26805641758268545 l 8.687361972284329 -23.587192266577073" fill="#deff1b" stroke="none" /><path d="M 92.7421414339146 119.70592522655815 l -7.850972019736169 21.31629683439339 a43.71612362148635,43.71612362148635 0 0,0 -0.7038915823499694,-0.26615156683627506 l 8.216733822846422 -21.177997017450483" fill="#fcff18" stroke="none" /><path d="M 92.06813273071674 119.44442032107085 l -6.723582259428039 16.482393751330086 a38.801007335911656,38.801007335911656 0 0,0 -0.6162496831797559,-0.257592417548468 l 7.0063034021052575 -16.364216290761647" fill="#ffc111" stroke="none" /><path d="M 91.40352486487194 119.15986991738527 l -7.5658025453113815 16.8627013177104 a39.4822093886243,39.4822093886243 0 0,0 -0.6176747324750071,-0.2835441746467593 l 7.854945273553809 -16.729970072729564" fill="#ffca12" stroke="none" /><path d="M 91.07499286063937 119.00905698771935 l -5.543637107007355 11.8071965703646 a34.04384158234906,34.04384158234906 0 0,0 -0.5283074621092454,-0.25361968700404197 l 5.746057237116842 -11.710022606860996" fill="#ff7f0b" stroke="none" /><path d="M 90.7491055286396 118.85261126421891 l -11.759476754684048 23.964908973183356 a47.69460911189596,47.69460911189596 0 0,0 -0.7339203123384468,-0.368002880542256 l 12.170250974705256 -23.7589382517318" fill="#caff1d" stroke="none" /><path d="M 90.42595943632237 118.69057910512821 l -2.0629031661843835 4.0272291053442135 a25.524836321899954,25.524836321899954 0 0,0 -0.38932558502031894,-0.20367674541913208 l 2.131919653731198 -3.9911229409803646" fill="#ff0000" stroke="none" /><path d="M 90.10565033884886 118.52300852407294 l -6.991214985259533 13.088109800085896 a35.83831881006814,35.83831881006814 0 0,0 -0.5416316595854588,-0.2953407664426722 l 7.215469456713632 -12.965828381883457" fill="#ff980e" stroke="none" /><line stroke="#e1ed5e" stroke-width="0.3" x1="58.666819895761336" x2="56.23545636021788" y1="174.27360380694188" y2="178.64263932499728" /><path d="M 58.180547188652646 175.14741091055294 a86.0,86.0 0 0,1 -31.652253787137756,-30.449443065178592" fill="none" id="id44" stroke="none" /><text fill="#e1ed5e" style="font-size:6.75px; font-family:Arial;" text-anchor="middle"><textPath startOffset="22.20632615414155" xlink:href="#id44">August</textPath></text><path d="M 89.7882731507175 118.34994917583269 l -10.543364801979939 18.945885560206598 a42.68199993100439,42.68199993100439 0 0,0 -0.6389113956466751,-0.362790565011332 l 10.867924964547822 -18.761591829400633" fill="#fff417" stroke="none" /><path d="M 89.1626897886671 117.98757091392108 l -9.650086723422367 16.017038903392148 a39.69945745208535,39.69945745208535 0 0,0 -0.5822980307925999,-0.3576950100281256 l 9.924363954147276 -15.848555426535645" fill="#ffcd13" stroke="none" /><path d="M 88.54995079064634 117.60387380957326 l -9.957058049750785 15.308475118099754 a39.26177470695513,39.26177470695513 0 0,0 -0.5633602900750954,-0.3733644811640839 l 10.219093038565841 -15.13481261584435" fill="#ffc712" stroke="none" /><path d="M 88.24862548938628 117.40417183066458 l -9.91044376752872 14.677692902428044 a38.71021074429481,38.71021074429481 0 0,0 -0.5490271316659634,-0.37762586745651505 l 10.161627783817574 -14.504926245606429" fill="#ffc011" stroke="none" /><path d="M 86.79598089348748 116.32954008644616 l -14.487793114550433 17.917196008259623 a44.04174607377682,44.04174607377682 0 0,0 -0.5853984247733706,-0.48174304986662536 l 14.794061667868492 -17.665157839535816" fill="#f8ff18" stroke="none" /><path d="M 86.51685102203217 116.09983520530335 l -11.315795875242644 13.511862036528221 a38.624348271193774,38.624348271193774 0 0,0 -0.5060424597198423,-0.43126036252996425 l 11.546703811539544 -13.315077283775306" fill="#ffbe11" stroke="none" /><path d="M 86.24171649860922 115.8653595955263 l -14.606502873431278 16.84348345465114 a43.29468234980402,43.29468234980402 0 0,0 -0.5588264156854554,-0.49309933820918406 l 14.894271642023321 -16.589560974669666" fill="#fffc17" stroke="none" /><path d="M 85.70375840098266 115.38237550388516 l -7.3219765718082215 7.878251936225357 a31.75537979286399,31.75537979286399 0 0,0 -0.39719049223311104,-0.37556840178693307 l 7.4565028984321495 -7.751048897692494" fill="#ff5e08" stroke="none" /><path d="M 85.18274418774928 114.88116024355367 l -13.157226974162775 13.213971969184886 a39.64729677063248,39.64729677063248 0 0,0 -0.4794667955289333,-0.4856973324864238 l 13.382734394747242 -12.985534142717798" fill="#ffcc13" stroke="none" /><path d="M 84.67929136418377 114.36230785411682 l -10.873200334518868 10.193017456044462 a35.90382804429145,35.90382804429145 0 0,0 -0.4187986498168034,-0.4545232206382473 l 11.0470453923314 -10.004342980604871" fill="#ff990e" stroke="none" /><path d="M 84.19399662182784 113.82643327865904 l -13.350236376410408 11.678230612532685 a38.73724560199602,38.73724560199602 0 0,0 -0.43470105165270334,-0.5056555302338762 l 13.549279937633889 -11.446697983137279" fill="#ffc011" stroke="none" /><path d="M 83.72743513129214 113.27417163493432 l -17.90148345934931 14.602944641892202 a44.1021449709659,44.1021449709659 0 0,0 -0.47479547704262787,-0.5923803607526673 l 18.1501968484468 -14.292636447561275" fill="#f7ff18" stroke="none" /><path d="M 83.28015986056508 112.70617746262583 l -12.898094914618229 9.801857048166124 a37.199915247284,37.199915247284 0 0,0 -0.3830505977201373,-0.5131588728801662 l 13.06490677903345 -9.578385295776648" fill="#ffab0f" stroke="none" /><path d="M 82.85270091963577 112.12312394758628 l -12.711513092932782 8.98702752338747 a36.5675697788038,36.5675697788038 0 0,0 -0.3589526505470469,-0.5170980650667582 l 12.864326650641962 -8.7668881961337" fill="#ffa20f" stroke="none" /><path d="M 82.44556493220864 111.52570212397912 l -12.764872870582748 8.3810229032514 a36.27034787773232,36.27034787773232 0 0,0 -0.3381694151467943,-0.524846442065609 l 12.907247149106588 -8.160054861264342" fill="#ff9e0e" stroke="none" /><path d="M 82.05923443525364 110.91462005526583 l -10.481083992282212 6.37637502871558 a33.26830388277459,33.26830388277459 0 0,0 -0.293425052960601,-0.4917972665394811 l 10.589289920941045 -6.1950156682899875" fill="#ff740a" stroke="none" /><line stroke="#e1ed5e" stroke-width="0.3" x1="26.63291911575756" x2="22.317208475507996" y1="142.92168965132927" y2="145.44649492493687" /><path d="M 25.769776987707644 143.4266507060508 a86.0,86.0 0 0,1 -11.730757126820373,-40.83630448921669" fill="none" id="id45" stroke="none" /><text fill="#e1ed5e" style="font-size:6.75px; font-family:Arial;" text-anchor="middle"><textPath startOffset="21.46611528233685" xlink:href="#id45">September</textPath></text><path d="M 81.69416730710424 110.29060199501025 l -12.92759016914461 7.267229380770128 a35.83021275822073,35.83021275822073 0 0,0 -0.29760163616214,-0.5402334138729121 l 13.050768214758266 -7.043625448499394" fill="#ff980e" stroke="none" /><path d="M 81.35079622478065 109.6543875284942 l -4.887706144618531 2.530285464961872 a26.503818300992418,26.503818300992418 0 0,0 -0.20625186869006046,-0.40695450404534783 l 4.930536683094859 -2.4457767492138394" fill="#ff0f01" stroke="none" /><path d="M 81.18737489456691 109.33194174019688 l -17.313794750333624 8.58845179799911 a40.326898171802796,40.326898171802796 0 0,0 -0.30311759748804357,-0.6245120312920779 l 17.459065604436386 -8.289150810741747" fill="#ffd513" stroke="none" /><path d="M 81.02952815118164 109.00673069616217 l -9.509958708462888 4.51510314036193 a31.52736771490268,31.52736771490268 0 0,0 -0.22853645859203517,-0.4922472002494271 l 9.58626978389475 -4.350735872833676" fill="#ff5a08" stroke="none" /><path d="M 80.58989483394504 108.01547362559985 l -17.216683943025302 7.109692342468423 a39.6269141620017,39.6269141620017 0 0,0 -0.25492821468253934,-0.6327109223313361 l 17.336514771965227 -6.8122820522942815" fill="#ffcc13" stroke="none" /><path d="M 80.32549172779594 107.34259656027581 l -14.39487162793809 5.372217360585115 a36.3646688397176,36.3646688397176 0 0,0 -0.21381687420401999,-0.5883322071160506 l 14.485212763147334 -5.123637356462947" fill="#ff9f0e" stroke="none" /><path d="M 80.20201598880116 107.00284435728193 l -21.179071397158303 7.491355712893124 a43.46493880835257,43.46493880835257 0 0,0 -0.24342263506446513,-0.7075001211070608 l 21.304884863165995 -7.125682888696766" fill="#ffff18" stroke="none" /><path d="M 79.97269907076064 106.31721596034903 l -24.432746199247756 7.706826535956343 a46.619411821745175,46.619411821745175 0 0,0 -0.23481360248818323,-0.7673844391555004 l 24.561786574242067 -7.285115124248795" fill="#d8ff1c" stroke="none" /><path d="M 79.86692584326677 105.97154293290107 l -13.842272194425206 4.105668218098155 a35.43831745812712,35.43831745812712 0 0,0 -0.1684288104137529,-0.5863227848343446 l 13.910893641725064 -3.866787957759214" fill="#ff920d" stroke="none" /><path d="M 79.76711848015287 105.62410040840567 l -16.690171938629636 4.6393393212098974 a38.32297055006284,38.32297055006284 0 0,0 -0.17119769464756687,-0.6370903088892258 l 16.767557709618977 -4.351358079145133" fill="#ffba11" stroke="none" /><path d="M 79.58551787078972 104.9243191809786 l -10.19714357309016 2.4597239043507906 a31.4896128973308,31.4896128973308 0 0,0 -0.12256872082351004,-0.5280228413862261 l 10.237972859844225 -2.28383240561599" fill="#ff5a08" stroke="none" /><path d="M 79.4281124754447 104.21870165774334 l -15.930408772055184 3.266868040911626 a37.26192948089194,37.26192948089194 0 0,0 -0.12344356816388774,-0.6294360945861097 l 15.984282273194738 -2.9921682192575614" fill="#ffac0f" stroke="none" /><path d="M 79.35854240842038 103.8639653848113 l -29.320777576530936 5.4886855305065065 a50.83007989505209,50.83007989505209 0 0,0 -0.1535880669297301,-0.8614034444467474 l 29.410912085799854 -4.983163335326545" fill="#a5ff21" stroke="none" /><path d="M 79.23777060512086 103.15116336523772 l -23.84466545366844 3.618996534759503 a45.117736347260504,45.117736347260504 0 0,0 -0.10992818077097463,-0.7688374402791254 l 23.903427685456013 -3.2080136224999767" fill="#eaff1a" stroke="none" /><path d="M 79.10278846688536 102.07522291339032 l -16.7868283096314 1.6670363266454455 a37.86939876852159,37.86939876852159 0 0,0 -0.05883354397940205,-0.649223255292561 l 16.81303644988788 -1.3778316828043184" fill="#ffb410" stroke="none" /><path d="M 79.0235259727143 100.99374915477108 l -35.320482651305014 1.6732888346813695 a56.36009601578321,56.36009601578321 0 0,0 -0.03756767316773795,-0.9694547162560325 l 35.344052457323954 -1.0650568714113402" fill="#66ff29" stroke="none" /><path d="M 79.0095281055655 100.63252640178507 l -27.28257198562477 0.8221324025633323 a48.29495623440606,48.29495623440606 0 0,0 -0.017887387724834225,-0.8311566204325885 l 27.292681436034613 -0.3523859663406149" fill="#c3ff1e" stroke="none" /><line stroke="#e1ed5e" stroke-width="0.3" x1="15.007084014347285" x2="10.007500721073583" y1="101.09737516637583" y2="101.16192664675087" /><path d="M 14.007167355692545 101.11028546245083 a86.0,86.0 0 0,1 10.666146001902534,-42.60595125391555" fill="none" id="id46" stroke="none" /><text fill="#e1ed5e" style="font-size:6.75px; font-family:Arial;" text-anchor="middle"><textPath startOffset="22.20632615414155" xlink:href="#id46">October</textPath></text><path d="M 79.00175016825051 100.2711162175752 l -14.85147214424131 0.19175288347518163 a35.852709989072586,35.852709989072586 0 0,0 -0.002656007528983934,-0.6171626115124833 l 14.852572449059796 0.06391920624097702" fill="#ff980e" stroke="none" /><path d="M 79.00019446554 99.90962569577889 l -28.45144985846181 -0.12244303790438393 a49.45171332883308,49.45171332883308 0 0,0 0.010990037815354048,-0.8511905402457542 l 28.44512681352874 0.61216983621061" fill="#b5ff20" stroke="none" /><path d="M 79.00486145842228 99.54816195383935 l -14.872424305370002 -0.3200706261834241 a35.87586803936852,35.87586803936852 0 0,0 0.018601305375314396,-0.617286767126923 l 14.864711305539041 0.5760275407353415" fill="#ff990e" stroke="none" /><path d="M 79.03285615573316 98.82574320788736 l -21.32671718894427 -1.1943945583905047 a42.36013680710692,42.36013680710692 0 0,0 0.047038731205425593,-0.7276683519126756 l 21.30299786673443 1.5613219745561921" fill="#fff016" stroke="none" /><path d="M 79.08570108090925 98.10471618934814 l -10.42198621077905 -0.9444553612120379 a31.46469266185065,31.46469266185065 0 0,0 0.053524250543171066,-0.5389818985396395 l 10.40418483455365 1.1237127904561077" fill="#ff5908" stroke="none" /><path d="M 79.12142395522702 97.74499172005258 l -17.67228211205077 -1.908709789536537 a38.77505915907405,38.77505915907405 0 0,0 0.0773832876962738,-0.6629727518042599 l 17.636808471350907 2.2126262796656584" fill="#ffc111" stroke="none" /><path d="M 79.21141760316559 97.0276538004421 l -23.017129470169692 -3.290983290703313 a44.25121115267423,44.25121115267423 0 0,0 0.11430321015264758,-0.7531153401757488 l 22.957070366577742 3.686697743271154" fill="#f5ff19" stroke="none" /><path d="M 79.46518482838121 95.60439243477599 l -14.690082308226307 -3.144505386980437 a36.022863653485395,36.022863653485395 0 0,0 0.13500959837093277,-0.6052215567749981 l 14.633778322853336 3.3969051133053947" fill="#ff9b0e" stroke="none" /><path d="M 79.54389044137918 95.25157060432595 l -17.77322540488653 -4.125657702734458 a39.24578287640835,39.24578287640835 0 0,0 0.158416910285962,-0.6567403665646977 l 17.699575694339753 4.430983300958552" fill="#ffc712" stroke="none" /><path d="M 79.71946130924805 94.55025226153421 l -14.206859303752175 -3.817640179184726 a35.71085408174302,35.71085408174302 0 0,0 0.16463252902319045,-0.5922708010441243 l 14.139040004162624 4.061622283647793" fill="#ff960d" stroke="none" /><path d="M 79.81627453868168 94.20196356495316 l -11.731997901252766 -3.370168278285416 a33.20646586768507,33.20646586768507 0 0,0 0.16254423185521,-0.5480183447497013 l 11.672247772285848 3.5716160097816565" fill="#ff730a" stroke="none" /><path d="M 80.02781315780177 93.51064311812611 l -22.48510645466119 -7.305853959013069 a44.64224004505227,44.64224004505227 0 0,0 0.24375238360265936,-0.7287886015829582 l 22.356016777286754 7.69181566351835" fill="#f0ff19" stroke="none" /><path d="M 80.14247586403 93.16781622104843 l -20.630699362722336 -7.098202604175396 a42.81765882043612,42.81765882043612 0 0,0 0.24578746941620278,-0.6948742741361992 l 20.50545881249632 7.452274504738206" fill="#fff617" stroke="none" /><path d="M 80.2630227832202 92.82701384747504 l -15.621972450636132 -5.677474865212512 a37.62166490137357,37.62166490137357 0 0,0 0.2264383722125232,-0.6067422594538349 l 15.52192948992198 5.9455402616956885" fill="#ffb110" stroke="none" /><path d="M 80.52162464483688 92.15188598940014 l -7.545288847845559 -3.0401040148917304 a29.134716726400704,29.134716726400704 0 0,0 0.19142662223605666,-0.46355474956808246 l 7.491840538723303 3.1695333349131243" fill="#ff3705" stroke="none" /><path d="M 80.803312248108 91.48605970444005 l -9.466986964067258 -4.198711925340815 a31.35630358814469,31.35630358814469 0 0,0 0.2230742430791695,-0.4915145250135063 l 9.393310404024737 4.361048459196392" fill="#ff5808" stroke="none" /><path d="M 81.26839172434947 90.50648371742162 l -56.19482482695157 -28.480548847735136 a84.0,84.0 0 0,0 0.6647622673595439,-1.284109110958658 l 55.69625312643191 29.44363068095413" fill="#4dd2ff" stroke="none" /><line stroke="#e1ed5e" stroke-width="0.3" x1="26.266209847984243" x2="21.928928074336255" y1="57.711370442889674" y2="55.22380399835377" /><path d="M 25.398753493254645 57.213857153982495 a86.0,86.0 0 0,1 29.58750427330803,-30.492523968695096" fill="none" id="id47" stroke="none" /><text fill="#e1ed5e" style="font-size:6.75px; font-family:Arial;" text-anchor="middle"><textPath startOffset="21.46611528233685" xlink:href="#id47">November</textPath></text><path d="M 81.78341655067845 89.55222093294921 l -9.036506090340712 -5.182718232131223 a31.41724582576557,31.41724582576557 0 0,0 0.27309115620386054,-0.46680130975131484 l 8.945955259666528 5.33749895423643" fill="#ff5908" stroke="none" /><path d="M 82.15384107792192 88.93136811851018 l -12.518632088553876 -7.764367158951307 a35.73097236259618,35.73097236259618 0 0,0 0.3286779914167513,-0.5198896502309341 l 12.383126500891162 7.978704456896457" fill="#ff970d" stroke="none" /><path d="M 82.34701348167596 88.62581576622439 l -14.99246867244652 -9.659957572760076 a38.83504687972014,38.83504687972014 0 0,0 0.3669049508080655,-0.5588214119824712 l 14.823967086280534 9.916597048720213" fill="#ffc112" stroke="none" /><path d="M 82.95767976084542 87.72973835380427 l -19.46578901817022 -14.015129457187152 a44.98626264764128,44.98626264764128 0 0,0 0.45786886909916025,-0.6245326228878755 l 19.221657536557426 14.34812452374653" fill="#ecff1a" stroke="none" /><path d="M 83.39014120810768 87.1503855733568 l -11.75848835048837 -9.096527757219896 a35.86636692425028,35.86636692425028 0 0,0 0.3819698384060924,-0.4850629051313292 l 11.600164431488306 9.297583056304273" fill="#ff980e" stroke="none" /><path d="M 83.84228863543731 86.58626213691792 l -15.916735140487603 -13.213685279640844 a41.68680584821712,41.68680584821712 0 0,0 0.46309949342913975,-0.5481637311206566 l 15.686925033571338 13.485707960390616" fill="#ffe715" stroke="none" /><path d="M 84.07557802195018 86.31012108654704 l -11.498615212367765 -9.885109183032384 a36.16355945556869,36.16355945556869 0 0,0 0.4098676853529409,-0.46854961715191445 l 11.32675566343698 10.081574356387241" fill="#ff9d0e" stroke="none" /><path d="M 85.57189188830299 84.74124197986013 l -16.080373153327468 -17.006146677072383 a44.40485901586153,44.40485901586153 0 0,0 0.5599074566000494,-0.5203729599907316 l 15.785257812932564 17.28042422313776" fill="#f3ff19" stroke="none" /><path d="M 85.83668400450813 84.49514656593479 l -10.078255532695957 -11.032859462801312 a35.94306603439338,35.94306603439338 0 0,0 0.46039475406496483,-0.4133469559608224 l 9.88684979103502 11.204705427531414" fill="#ff9a0e" stroke="none" /><path d="M 86.65592168130627 83.78471172551755 l -12.452592955283643 -15.13198436881477 a40.597041160543455,40.597041160543455 0 0,0 0.543413823741231,-0.4394028535670714 l 12.190275732977911 15.344093319645976" fill="#ffd914" stroke="none" /><path d="M 87.22198572758235 83.33499621200491 l -12.1552372041664 -15.852781952878924 a40.9764983702118,40.9764983702118 0 0,0 0.563434357614844,-0.4243670769362602 l 11.880556692793165 16.059665619321038" fill="#ffde14" stroke="none" /><path d="M 87.80319425747018 82.90503203632743 l -8.686101182471974 -12.174386030090016 a35.9554013306829,35.9554013306829 0 0,0 0.5069178427517825,-0.35512834383281633 l 8.47525220013653 12.322099216686775" fill="#ff9a0e" stroke="none" /><path d="M 88.39885842347998 82.49532879139004 l -9.103452459017172 -13.735970818667335 a37.47876636781001,37.47876636781001 0 0,0 0.5408239067796808,-0.3517669129651804 l 8.865661526453204 13.89063665579205" fill="#ffaf10" stroke="none" /><line stroke="#e1ed5e" stroke-width="0.3" x1="56.762969772571076" x2="54.21961505331055" y1="26.818313649435495" y2="22.513508569990535" /><path d="M 56.25429882871897 25.957352633546506 a86.0,86.0 0 0,1 42.265352541879196,-11.944610805530505" fill="none" id="id48" stroke="none" /><text fill="#e1ed5e" style="font-size:6.75px; font-family:Arial;" text-anchor="middle"><textPath startOffset="22.20632615414155" xlink:href="#id48">December</textPath></text><path d="M 89.63071344664047 81.73862282372117 l -9.527400534013127 -16.778729545739623 a40.29500261996845,40.29500261996845 0 0,0 0.6061057456393735,-0.3372971912315464 l 9.237170699301707 16.940242134531353" fill="#ffd513" stroke="none" /><path d="M 89.94658935756843 81.56283822128135 l -9.235877152192012 -16.937869871209177 a40.292300602685984,40.292300602685984 0 0,0 0.6117809349493798,-0.3267921881344669 l 8.942951170714327 17.094340785845393" fill="#ffd513" stroke="none" /><path d="M 90.58718382345135 81.22770947309562 l -7.390031615872041 -14.738184396056637 a37.48716611718811,37.48716611718811 0 0,0 0.5793172630181308,-0.2842684650157457 l 7.135243085843484 14.863208021207212" fill="#ffaf10" stroke="none" /><path d="M 91.90106846888425 80.62456947434976 l -11.386321904686401 -27.239999271428296 a50.523988328553365,50.523988328553365 0 0,0 0.8052949460140576,-0.3285000282310465 l 10.915743089083964 27.431960185842918" fill="#a8ff21" stroke="none" /><path d="M 94.63758080256005 79.69619591428918 l -4.660358223897229 -17.645580635026477 a39.25062888566495,39.25062888566495 0 0,0 0.6547212577224876,-0.16690302657036915 l 4.355928077489742 17.72318665776571" fill="#ffc712" stroke="none" /><path d="M 95.692805502759 79.44645832069477 l -1.9178973293315484 -9.152032191788546 a30.35083009178281,30.35083009178281 0 0,0 0.5122549373849268,-0.10275352139516701 l 1.7600759824794854 9.183689669260923" fill="#ff4906" stroke="none" /><path d="M 96.04723909329186 79.375362276772 l -1.9480614709767194 -10.164556635158029 a31.34954854493852,31.34954854493852 0 0,0 0.5308596387524681,-0.097011205812598 l 1.7728067111213581 10.196583322321363" fill="#ff5808" stroke="none" /><path d="M 97.83486435360386 79.11191278185805 l -2.144584630515757 -20.689821851791585 a41.800672380870694,41.800672380870694 0 0,0 0.7163338886004051,-0.06802453416740893 l 1.7881256148251155 20.723671930474172" fill="#ffe915" stroke="none" /><path d="M 98.55514903715128 79.0497635885617 l -1.5198014648451805 -22.03701337069368 a43.08935840608952,43.08935840608952 0 0,0 0.7403940859080242,-0.04466259319051333 l 1.1402453300975333 22.0599092332645" fill="#fffa17" stroke="none" /><path d="M 99.27714615592234 79.0124445844662 l -1.1271684775702862 -32.72654780695562 a53.74595303450153,53.74595303450153 0 0,0 0.9248740901302772,-0.0238867691037133 l 0.56366775224513 32.7411013682017" fill="#83ff25" stroke="none" /><path d="M 99.63851952072746 79.00311137660856 l -0.2949514343805255 -17.132494760050754 a38.13503350016596,38.13503350016596 0 0,0 0.656431913653057,-0.005650116723763106 l 4.196872785852182e-15 17.13503350016596" fill="#ffb811" stroke="none" /></svg>