<?xml version="1.0" encoding="utf-8" ?>
<svg baseProfile="full" height="200mm" version="1.1" viewBox="0,0,200,200" width="200mm" xmlns="http://www.w3.org/2000/svg" xmlns:ev="http://www.w3.org/2001/xml-events" xmlns:xlink="http://www.w3.org/1999/xlink"><defs /><rect fill="#1a1a1a" height="200" width="200" x="0" y="0" /><rect fill="#1a1a1a" height="200" width="180" x="10" y="0" /><text alignment-baseline="middle" fill="#e1ed5e" style="dominant-baseline: central; font-size:9.0px; font-family:Arial;" text-anchor="middle" x="100.0" y="100.0">2020</text><line stroke="#e1ed5e" stroke-width="0.3" x1="100.0" x2="100.0" y1="15.0" y2="10.0" /><path d="M 100.0 14.0 a86.0,86.0 0 0,1 42.35913384403234,11.155469271406648" fill="none" id="id1" stroke="none" /><text fill="#e1ed5e" style="font-size:6.75px; font-family:Arial;" text-anchor="middle"><textPath startOffset="22.145653131862478" xlink:href="#id1">January</textPath></text><line stroke="#e1ed5e" stroke-width="0.3" x1="143.13028292997686" x2="145.6673583964461" y1="26.7553504044142" y2="22.446841604673864" /><path d="M 143.63769802327073 25.89364864446614 a86.0,86.0 0 0,1 29.32050498858742,28.57503671076993" fill="none" id="id2" stroke="none" /><text fill="#e1ed5e" style="font-size:6.75px; font-family:Arial;" text-anchor="middle"><textPath startOffset="20.669276256404974" xlink:href="#id2">February</textPath></text><line stroke="#e1ed5e" stroke-width="0.3" x1="172.87174338648825" x2="177.1583165268699" y1="56.24261187166439" y2="53.66864786411523" /><path d="M 173.72905801456457 55.72781907015455 a86.0,86.0 0 0,1 12.242430191666344,42.057860355516425" fill="none" id="id3" stroke="none" /><text fill="#e1ed5e" style="font-size:6.75px; font-family:Arial;" text-anchor="middle"><textPath startOffset="22.145653131862474" xlink:href="#id3">March</textPath></text><line stroke="#e1ed5e" stroke-width="0.3" x1="184.99686870605535" x2="189.99668451229388" y1="99.2704041080226" y2="99.22748670261217" /><path d="M 185.99683186730306 99.26182062694052 a86.0,86.0 0 0,1 -10.086455211305974,41.156179273409016" fill="none" id="id4" stroke="none" /><text fill="#e1ed5e" style="font-size:6.75px; font-family:Arial;" text-anchor="middle"><textPath startOffset="21.40746469413373" xlink:href="#id4">April</textPath></text><line stroke="#e1ed5e" stroke-width="0.3" x1="174.33088141563837" x2="178.70328620479359" y1="141.23008692659167" y2="143.65538615756765" /><path d="M 175.20536237346943 141.71514677278685 a86.0,86.0 0 0,1 -30.301960400862466,31.631185727798858" fill="none" id="id5" stroke="none" /><text fill="#e1ed5e" style="font-size:6.75px; font-family:Arial;" text-anchor="middle"><textPath startOffset="22.145653131862474" xlink:href="#id5">May</textPath></text><line stroke="#e1ed5e" stroke-width="0.3" x1="143.1302829299769" x2="145.66735839644613" y1="173.24464959558577" y2="177.55315839532614" /><path d="M 143.63769802327073 174.10635135553383 a86.0,86.0 0 0,1 -40.68552437913181,11.842963189579606" fill="none" id="id6" stroke="none" /><text fill="#e1ed5e" style="font-size:6.75px; font-family:Arial;" text-anchor="middle"><textPath startOffset="21.407464694133747" xlink:href="#id6">June</textPath></text><line stroke="#e1ed5e" stroke-width="0.3" x1="101.45913802915013" x2="101.54496967792366" y1="184.9874750549273" y2="189.98673829345242" /><path d="M 101.47630435890484 185.9873277026323 a86.0,86.0 0 0,1 -42.54439059252881,-10.42667462771756" fill="none" id="id7" stroke="none" /><text fill="#e1ed5e" style="font-size:6.75px; font-family:Arial;" text-anchor="middle"><textPath startOffset="22.145653131862474" xlink:href="#id7">July</textPath></text><line stroke="#e1ed5e" stroke-width="0.3" x1="58.13341422392154" x2="55.67067388415222" y1="173.97424548756322" y2="178.32567169271397" /><path d="M 57.64086615596768 174.84453072859336 a86.0,86.0 0 0,1 -31.369924170532247,-30.572349798747897" fill="none" id="id8" stroke="none" /><text fill="#e1ed5e" style="font-size:6.75px; font-family:Arial;" text-anchor="middle"><textPath startOffset="22.145653131862474" xlink:href="#id8">August</textPath></text><line stroke="#e1ed5e" stroke-width="0.3" x1="26.387840678322732" x2="22.057713659400548" y1="142.50000000000003" y2="145.00000000000006" /><path d="M 25.521815274538298 143.00000000000003 a86.0,86.0 0 0,1 -11.493303480769221,-40.785679425670985" fill="none" id="id9" stroke="none" /><text fill="#e1ed5e" style="font-size:6.75px; font-family:Arial;" text-anchor="middle"><textPath startOffset="21.40746469413373" xlink:href="#id9">September</textPath></text><line stroke="#e1ed5e" stroke-width="0.3" x1="15.003131293944662" x2="10.003315487706104" y1="100.72959589197737" y2="100.7725132973878" /><path d="M 14.003168132696942 100.73817937305945 a86.0,86.0 0 0,1 10.791469493833604,-42.45332614584628" fill="none" id="id10" stroke="none" /><text fill="#e1ed5e" style="font-size:6.75px; font-family:Arial;" text-anchor="middle"><textPath startOffset="22.145653131862435" xlink:href="#id10">October</textPath></text><line stroke="#e1ed5e" stroke-width="0.3" x1="26.387840678322718" x2="22.05771365940052" y1="57.49999999999999" y2="54.99999999999999" /><path d="M 25.521815274538284 56.99999999999999 a86.0,86.0 0 0,1 29.574782752854787,-30.34633250058573" fill="none" id="id11" stroke="none" /><text fill="#e1ed5e" style="font-size:6.75px; font-family:Arial;" text-anchor="middle"><textPath startOffset="21.40746469413373" xlink:href="#id11">November</textPath></text><path d="M 82.18462484594161 88.88188828441811 l -12.743976983017399 -7.953184177865296 a36.02205338529737,36.02205338529737 0 0,0 0.33188714482679815,-0.5217817166572529 l 12.605572146564711 8.17077956920122" fill="#ff950d" stroke="none" /><path d="M 82.576782715395 88.27688183743585 l -8.592703377278127 -5.781554312400303 a31.356684874858434,31.356684874858434 0 0,0 0.3043244855687705,-0.4440185192922721 l 8.492189154894042 5.92820756676261" fill="#ff5107" stroke="none" /><path d="M 82.98947788004972 87.6856937992154 l -7.729382070214594 -5.595476545887178 a30.542154104966464,30.542154104966464 0 0,0 0.311090718124386,-0.42205430583806447 l 7.632189332506389 5.7273371609941055" fill="#ff4506" stroke="none" /><path d="M 83.2033758604659 87.39550010848427 l -50.389872418602316 -37.8134996745472 a84.0,84.0 0 0,0 0.875392090582773,-1.1459163470364628 l 49.73332835066524 38.672936934824556" fill="#4dd2ff" stroke="none" /><path d="M 84.83555147118756 85.47280134310135 l -22.966645037980765 -22.00152641985657 a52.80462150543932,52.80462150543932 0 0,0 0.6326828443335579,-0.6491883346027028 l 22.585575392496406 22.392537446527005" fill="#91ff24" stroke="none" /><path d="M 88.12776184653039 82.6780497279521 l -5.350164210428071 -7.806049474609096 a30.46354402317601,30.46354402317601 0 0,0 0.4338932902406057,-0.29194276971617933 l 5.215374632090476 7.896741918382385" fill="#ff4406" stroke="none" /><line stroke="#e1ed5e" stroke-width="0.3" x1="56.869717070023135" x2="54.33264160355391" y1="26.7553504044142" y2="22.446841604673864" /><path d="M 56.362301976729285 25.89364864446614 a86.0,86.0 0 0,1 42.16139366436587,-11.88097634709845" fill="none" id="id12" stroke="none" /><text fill="#e1ed5e" style="font-size:6.75px; font-family:Arial;" text-anchor="middle"><textPath startOffset="22.145653131862474" xlink:href="#id12">December</textPath></text><path d="M 89.34428304082924 81.90426304109057 l -4.189320937937802 -7.11438282565585 a29.256200876373526,29.256200876373526 0 0,0 0.4349526797806186,-0.2511200467560879 l 4.066575790296784 7.185249769688112" fill="#ff3204" stroke="none" /><path d="M 89.65649057296885 81.72400993836675 l -3.777925439046305 -6.6752322569709746 a28.670165989566264,28.670165989566264 0 0,0 0.4304017359400004,-0.23873658764967734 l 3.662779514950202 6.739101760053798" fill="#ff2904" stroke="none" /><path d="M 90.28995756902619 81.37971332152246 l -6.91024035412395 -13.251297028376396 a35.94484174175224,35.94484174175224 0 0,0 0.5495671525280947,-0.280612903901842 l 6.681745979882273 13.36796788395107" fill="#ff940d" stroke="none" /><path d="M 90.61103034731259 81.2157712731953 l -6.049076637966963 -12.102205391729939 a34.5297710075084,34.5297710075084 0 0,0 0.5324815445766622,-0.2604634064429212 l 5.840434844128248 12.204262548270075" fill="#ff800b" stroke="none" /><path d="M 91.26138138417902 80.90454125486306 l -4.694448378684874 -10.25821692047036 a32.28135009507113,32.28135009507113 0 0,0 0.5058742692387336,-0.22627112616955092 l 4.517660706590521 10.337291797549758" fill="#ff5f08" stroke="none" /><path d="M 91.5904679813234 80.7573450057729 l -5.598384796034846 -12.81020001062771 a34.9800978765086,34.9800978765086 0 0,0 0.5522939772835969,-0.23574145747243913 l 5.377655743580818 12.904416117759553" fill="#ff860c" stroke="none" /><path d="M 92.25597844496254 80.48000691201159 l -5.814248361212073 -14.65570401839596 a36.76690027496479,36.76690027496479 0 0,0 0.5886691283132116,-0.22770986488473463 l 5.561806970405331 14.753353771418736" fill="#ff9f0e" stroke="none" /><path d="M 92.93061703081487 80.22567764915836 l -6.069857311884451 -16.97847119501175 a39.03085277812674,39.03085277812674 0 0,0 0.6328466706244459,-0.22013692291552853 l 5.777504869215002 17.080166550495864" fill="#ffbf11" stroke="none" /><path d="M 93.27111125876988 80.10723608172694 l -2.226465071419467 -6.58214836673485 a27.948512346967597,27.948512346967597 0 0,0 0.45579666644796246,-0.14982941753360193 l 2.113145667323743 6.619398705670481" fill="#ff1e03" stroke="none" /><path d="M 93.61358852112211 79.99465700312896 l -3.448095211168293 -10.801109138274656 a32.338135614032936,32.338135614032936 0 0,0 0.5302828530552491,-0.1642829833941231 l 3.2621717252414277 10.858708709475422" fill="#ff6008" stroke="none" /><path d="M 94.30408787586887 79.78721728523814 l -2.587211549595936 -9.181101068528541 a30.53867288635576,30.53867288635576 0 0,0 0.5058056390784003,-0.13785957614858496 l 2.4292245095828577 9.224161138821264" fill="#ff4506" stroke="none" /><path d="M 95.35216902796891 79.52079915486377 l -4.53001422277124 -19.96007850924819 a41.46767605161517,41.46767605161517 0 0,0 0.6955463809924851,-0.1515910964317143 l 4.186705425159637 20.03490106381362" fill="#ffe015" stroke="none" /><path d="M 95.70440661134978 79.44403061299748 l -1.027150927185254 -4.915289019402727 a26.021464444908332,26.021464444908332 0 0,0 0.43803233966218225,-0.0876187357435831 l 0.942622101992095 4.932197151809176" fill="#ff0000" stroke="none" /><path d="M 96.41257539226777 79.30868818359171 l -2.5464538690118865 -14.687269222678289 a35.90638469000577,35.90638469000577 0 0,0 0.6082242294412271,-0.10008306549809087 l 2.2939521365175866 14.728818286672047" fill="#ff930d" stroke="none" /><path d="M 97.12497278360702 79.19773525538626 l -2.1285420735477683 -15.401070112143728 a36.54746448646949,36.54746448646949 0 0,0 0.6222156717891154,-0.0805582759048302 l 1.8638485798678588 15.435339984248953" fill="#ff9c0e" stroke="none" /><path d="M 98.9189461498227 79.02784411241856 l -0.789541125489544 -15.316886906889637 a36.337222685587065,36.337222685587065 0 0,0 0.6232253115552355,-0.02676397645165462 l 0.5264900533334883 15.32818345176712" fill="#ff990e" stroke="none" /></svg>