<?xml version="1.0" encoding="utf-8" ?>
<svg baseProfile="full" height="200mm" version="1.1" viewBox="0,0,200,200" width="200mm" xmlns="http://www.w3.org/2000/svg" xmlns:ev="http://www.w3.org/2001/xml-events" xmlns:xlink="http://www.w3.org/1999/xlink"><defs /><rect fill="#1a1a1a" height="200" width="200" x="0" y="0" /><rect fill="#1a1a1a" height="200" width="180" x="10" y="0" /><text alignment-baseline="middle" fill="#e1ed5e" style="dominant-baseline: central; font-size:9.0px; font-family:Arial;" text-anchor="middle" x="100.0" y="100.0">2025</text><line stroke="#e1ed5e" stroke-width="0.3" x1="100.0" x2="100.0" y1="15.0" y2="10.0" /><path d="M 100.0 14.0 a86.0,86.0 0 0,1 42.46469731375804,11.215312516191453" fill="none" id="id61" stroke="none" /><text fill="#e1ed5e" style="font-size:6.75px; font-family:Arial;" text-anchor="middle"><textPath startOffset="22.20632615414155" xlink:href="#id61">January</textPath></text><path d="M 100.0 79.0 l 0.0 -29.937245541225607 a50.93724554122561,50.93724554122561 0 0,0 0.8768009490983186,0.007546902584828043 l -0.5153204698257903 29.932810015249338" fill="#90ff24" stroke="none" /><path d="M 100.36148047927253 79.00311137660856 l 0.30839252276465806 -17.913231347395584 a38.915885779202014,38.915885779202014 0 0,0 0.6696745042096394,0.017295716711499185 l -0.6166936621691652 17.905268838541726" fill="#ffe015" stroke="none" /><path d="M 100.72285384407766 79.0124445844662 l 0.051303535575807156 -1.4895622465478406 a22.490445483438837,22.490445483438837 0 0,0 0.38679193190437566,0.01665607422624426 l -0.07693629986951434 1.4884584457974015" fill="#ff0000" stroke="none" /><path d="M 101.08401301168833 79.027996857942 l 0.9348291260752023 -18.085797087252388 a39.10994096556434,39.10994096556434 0 0,0 0.6720167127627603,0.040537883311888054 l -1.2460078876775744 18.067025934560196" fill="#ffe315" stroke="none" /><path d="M 101.44485096284872 79.0497635885617 l 1.7463646631789487 -25.322163665963934 a46.38231199600746,46.38231199600746 0 0,0 0.7960304896865648,0.061787286532435495 l -2.1819853422278546 25.288351117243035" fill="#c4ff1e" stroke="none" /><path d="M 102.16513564639614 79.11191278185805 l 1.862166084439743 -17.965196615365613 a39.06144933151218,39.06144933151218 0 0,0 0.6681987242403313,0.07507991230109172 l -2.1711315121898 17.930480749593922" fill="#ffe215" stroke="none" /><path d="M 102.52436894288641 79.15227682838746 l 1.4719877043871883 -12.156540057093565 a33.24533437524625,33.24533437524625 0 0,0 0.5675220342551233,0.07368064803775849 l -1.6810244671501577 12.12940108589167" fill="#ff970d" stroke="none" /><path d="M 102.88285421437855 79.19881850522331 l 2.097636747705865 -15.135459324136706 a36.28012463554937,36.28012463554937 0 0,0 0.6178522839803317,0.09105536588671276 l -2.3578580121148525 15.097109474089024" fill="#ffbf11" stroke="none" /><path d="M 103.59715602781102 79.31037775812273 l 4.093646760847296 -23.54526865634877 a44.89848572404192,44.89848572404192 0 0,0 0.7602914561219553,0.1389384039456001 l -4.498333338072152 23.47131477105243" fill="#d5ff1c" stroke="none" /><path d="M 103.95276090670814 79.375362276772 l 2.812455344318442 -14.674773900663736 a35.9418504242074,35.9418504242074 0 0,0 0.6066190045832073,0.12168206554408847 l -3.0646407583687747 14.62418787904244" fill="#ffba11" stroke="none" /><path d="M 105.01212808612495 79.60689891045804 l 3.792977679573073 -15.43268167149183 a36.89195844606131,36.89195844606131 0 0,0 0.6153773867931759,0.15687339784266213 l -4.058063955051274 15.3651052774803" fill="#ffc712" stroke="none" /><path d="M 105.36241919743992 79.69619591428918 l 5.772059061567035 -21.854829330231947 a43.60420825562764,43.60420825562764 0 0,0 0.7240418789269644,0.1979079963511693 l -6.1473988297177105 21.752234793054484" fill="#e4ff1a" stroke="none" /><path d="M 105.71112130821622 79.79150937346287 l 5.062459741941253 -17.913237124741567 a39.61484791573639,39.61484791573639 0 0,0 0.6546066547694872,0.19109763302359584 l -5.3700566144341675 17.82344116279927" fill="#ffe915" stroke="none" /><path d="M 106.0581310904928 79.89281104454417 l 7.265201724586518 -24.11350657383708 a46.184208452627985,46.184208452627985 0 0,0 0.7592125860773555,0.2358910461517348 l -7.679199683374592 23.984875392802824" fill="#c6ff1e" stroke="none" /><path d="M 106.40334571778207 80.00007090966166 l 5.969802495754857 -18.64581921086359 a40.57817958551128,40.57817958551128 0 0,0 0.6633898139922896,0.21870919160113864 l -6.2898751319895645 18.540296295003213" fill="#fff517" stroke="none" /><path d="M 107.4271985657038 80.35727306442388 l 6.132581826403002 -16.218851449906797 a38.339541580205406,38.339541580205406 0 0,0 0.6152890932725947,0.23872260910017196 l -6.410854084675264 16.11088613691608" fill="#ffd914" stroke="none" /><path d="M 107.76421540070413 80.48803036053334 l 8.962924332650681 -22.524401814464966 a45.24216759475716,45.24216759475716 0 0,0 0.7211087270833699,0.294158355739149 l -9.349316929322438 22.36678257254224" fill="#d1ff1c" stroke="none" /><path d="M 108.43124777332544 80.76684994638697 l 13.082143680777762 -29.842656650580725 a53.58414705418823,53.58414705418823 0 0,0 0.8415718983417563,0.3775887795539219 l -13.593897697586296 29.61304754051027" fill="#74ff27" stroke="none" /><path d="M 109.41281617654863 81.2277094730956 l 7.955550573869801 -15.866017552350046 a38.74883933965486,38.74883933965486 0 0,0 0.5936682226496286,0.30409992184000717 l -8.227479284108185 15.726725105197538" fill="#ffde14" stroke="none" /><path d="M 109.73455568895987 81.39251694778311 l 9.00427543739306 -17.211561364716644 a40.42459319429487,40.42459319429487 0 0,0 0.613789608670421,0.3278651520714679 l -9.299210092591792 17.054017486143422" fill="#fff316" stroke="none" /><path d="M 110.05341064243156 81.56283822128135 l 8.586107801106772 -15.746244156225567 a38.93503421239264,38.93503421239264 0 0,0 0.585649495183381,0.32591331000029683 l -8.855881385362188 15.59611544866509" fill="#ffe015" stroke="none" /><path d="M 110.36928655335952 81.73862282372117 l 10.326152851198488 -18.18541430264056 a41.91264512358488,41.91264512358488 0 0,0 0.624305349794213,0.3616379547228473 l -10.63765493345803 18.004972190527663" fill="#f9ff18" stroke="none" /><line stroke="#e1ed5e" stroke-width="0.3" x1="143.23703022742887" x2="145.7803849466894" y1="26.81831364943548" y2="22.513508569990506" /><path d="M 143.74570117128098 25.957352633546492 a86.0,86.0 0 0,1 28.547481713284135,27.462654790039103" fill="none" id="id62" stroke="none" /><text fill="#e1ed5e" style="font-size:6.75px; font-family:Arial;" text-anchor="middle"><textPath startOffset="19.985693538727396" xlink:href="#id62">February</textPath></text><path d="M 110.99172775467656 82.1063720568725 l 12.506342506648199 -20.35929607591236 a44.89371339076988,44.89371339076988 0 0,0 0.6549797124676549,0.4101482358592912 l -12.854941371488117 20.141003498730125" fill="#d5ff1c" stroke="none" /><path d="M 111.60114157652 82.49532879139004 l 18.02907074689565 -27.20361212209641 a53.63562324341362,53.63562324341362 0 0,0 0.7651895683955281,0.5166594123132925 l -18.49466500969772 26.889240797484447" fill="#73ff27" stroke="none" /><path d="M 113.06298171725822 83.55741782278167 l 11.147560634838058 -14.031611295274812 a38.920776312678946,38.920776312678946 0 0,0 0.5209760927012241,0.4212597688389817 l -11.387440126103773 13.837645429171701" fill="#ffe015" stroke="none" /><path d="M 114.16331599549186 84.49514656593476 l 10.841755134603188 -11.868677108069352 a37.07510966352342,37.07510966352342 0 0,0 0.4674855593496425,0.4344768789987091 l -11.044448577747676 11.680295642996002" fill="#ffc912" stroke="none" /><path d="M 114.42810811169701 84.74124197986012 l 12.190663684759308 -12.892500238464763 a38.74341690525597,38.74341690525597 0 0,0 0.48063377635852794,0.4623693120512619 l -12.410780704730254 12.680747839651199" fill="#ffde14" stroke="none" /><path d="M 114.68862486808459 84.99185889309783 l 15.361129632531362 -15.695274619434816 a42.961465091539495,42.961465091539495 0 0,0 0.5240566347054152,0.5218061689713401 l -15.629022067404101 15.428532599813357" fill="#ecff1a" stroke="none" /><path d="M 114.94478906791727 85.2469230424477 l 18.803297351555102 -18.56208820496197 a47.421868022904576,47.421868022904576 0 0,0 0.5684656601580891,0.5858538323351694 l -19.120027275416298 18.23567017707669" fill="#b8ff1f" stroke="none" /><path d="M 115.4437574822437 85.77008943001954 l 11.957851383281263 -11.017989371359164 a37.25996000893068,37.25996000893068 0 0,0 0.4305412498361535,0.47541440146862124 l -12.145736273733451 10.810522182620993" fill="#ffcb12" stroke="none" /><path d="M 115.68641384162765 86.03803664274999 l 16.20980664334358 -14.427818153176263 a42.700685889522205,42.700685889522205 0 0,0 0.48395765107204064,0.5532472557144421 l -16.455756157993466 14.146655341258873" fill="#efff19" stroke="none" /><path d="M 116.38621287248628 86.86637796730983 l 19.135192429866358 -15.336941296462417 a45.52299650652728,45.52299650652728 0 0,0 0.4848110670390503,0.6156608218049052 l -19.39635757749937 15.005288080704474" fill="#ceff1d" stroke="none" /><path d="M 116.60985879189232 87.15038557335679 l 25.831375232878734 -19.98350594133001 a53.65884958367261,53.65884958367261 0 0,0 0.5588800678021195,0.7354206580424115 l -26.171531240904965 19.535900507406563" fill="#73ff27" stroke="none" /><path d="M 117.04232023915458 87.72973835380427 l 12.904391110046895 -9.291003401129165 a36.90113373696514,36.90113373696514 0 0,0 0.3667048059920861,0.5186779422316445 l -13.062408535842863 9.067498958565729" fill="#ffc712" stroke="none" /><path d="M 117.2510076193507 88.02491185347247 l 9.71342593024947 -6.742744208693454 a32.824349570539255,32.824349570539255 0 0,0 0.3182016429951815,0.46692164707498435 l -9.828052038913384 6.5745445383480625" fill="#ff910d" stroke="none" /><path d="M 117.45458315368197 88.32363383020206 l 14.392849426035921 -9.628197857575923 a38.31635956502325,38.31635956502325 0 0,0 0.3620045075493414,0.5513577006993473 l -14.556450568943188 9.379022092898902" fill="#ffd914" stroke="none" /><line stroke="#e1ed5e" stroke-width="0.3" x1="172.23445277983987" x2="176.4835382374775" y1="55.19839476539836" y2="52.563006222186495" /><path d="M 173.08426987136738 54.67131705675599 a86.0,86.0 0 0,1 12.851231095245387,41.99856678651699" fill="none" id="id63" stroke="none" /><text fill="#e1ed5e" style="font-size:6.75px; font-family:Arial;" text-anchor="middle"><textPath startOffset="22.20632615414155" xlink:href="#id63">March</textPath></text><path d="M 117.84615892207809 88.93136811851018 l 18.85277481179497 -11.692960106850995 a43.184508878148726,43.184508878148726 0 0,0 0.38636604652249756,0.6350841923712968 l -19.05125665660369 11.366708141272616" fill="#e9ff1a" stroke="none" /><path d="M 118.03404312379186 89.2402003453031 l 20.919856629709034 -12.481586330671004 a45.36042689973996,45.36042689973996 0 0,0 0.3942908139258788,0.6739708122445256 l -21.13160711810524 12.119636106072583" fill="#d0ff1d" stroke="none" /><path d="M 118.3937258080291 89.86733742301442 l 13.09835238083149 -7.21556830707386 a35.95430577079667,35.95430577079667 0 0,0 0.29395538566993334,0.5446546855604735 l -13.220615865719887 6.989032638180928" fill="#ffba11" stroke="none" /><path d="M 118.56541770881063 90.18545643968196 l 9.55137489467082 -5.049301148779831 a31.803897651755932,31.803897651755932 0 0,0 0.2516908465934744,0.48618660403113423 l -9.63687517442441 4.884141822488352" fill="#ff840c" stroke="none" /><path d="M 118.73160827565052 90.50648371742162 l 14.17522506021906 -7.18425924448441 a36.89184024585643,36.89184024585643 0 0,0 0.28220498758187207,0.5689080345832928 l -14.29679006075434 6.939191621402166" fill="#ffc712" stroke="none" /><path d="M 118.89224826269711 90.83032412892265 l 13.250159244704088 -6.431191450834228 a35.72843995429592,35.72843995429592 0 0,0 0.26378104103478106,0.5555901449717562 l -13.358898479580626 6.202158890221931" fill="#ffb711" stroke="none" /><path d="M 119.04729006885535 91.15688171328212 l 39.29599790960606 -18.244020879246676 a64.32458597094902,64.32458597094902 0 0,0 0.45761638601675136,1.008297047237287 l -39.60421661258616 17.56490182316733" fill="#34ff5f" stroke="none" /><path d="M 119.196687751892 91.48605970444005 l 20.404656528457362 -9.049687616946905 a43.32144381550261,43.32144381550261 0 0,0 0.29646161615790806,0.6842742843497925 l -20.55740885445795 8.69711418801051" fill="#e8ff1a" stroke="none" /><path d="M 119.47837535516314 92.15188598940014 l 14.337474477569263 -5.776772049636207 a36.45749881799795,36.45749881799795 0 0,0 0.22951983328188627,0.584102940777437 l -14.434787860732849 5.529120103962986" fill="#ffc111" stroke="none" /><path d="M 119.61058180528143 92.48833698450437 l 10.641491108813074 -4.076130733167183 a32.39544535210528,32.39544535210528 0 0,0 0.1949826498072599,0.5224565622089848 l -10.71007834712196 3.8923510339288647" fill="#ff8b0c" stroke="none" /><path d="M 119.97218684219823 93.5106431181261 l 30.514791092475356 -9.91485665237769 a53.0851501142602,53.0851501142602 0 0,0 0.2748913794413038,0.8714807936723696 l -30.680937955684865 9.388125692278901" fill="#79ff26" stroke="none" /><path d="M 120.08093135843002 93.85539295169968 l 15.855463069435952 -4.851646987460173 a37.58113951564182,37.58113951564182 0 0,0 0.18395807247763601,0.620215169938105 l -15.936627039025291 4.578002430775538" fill="#ffcf13" stroke="none" /><path d="M 120.28053869075195 94.5502522615342 l 14.567892767909738 -3.914656404187689 a36.08469537180531,36.08469537180531 0 0,0 0.15602965252869685,0.6012458996940729 l -14.633118752308738 3.6633140789447656" fill="#ffbc11" stroke="none" /><path d="M 120.45610955862082 95.25157060432595 l 11.416839659646413 -2.650164582381002 a32.72039249034698,32.72039249034698 0 0,0 0.12263231183269929,0.5497366081660875 l -11.46076635848115 2.4532498046649502" fill="#ff900d" stroke="none" /><path d="M 120.53481517161879 95.60439243477599 l 14.548695055693452 -3.1142405478929907 a35.878273489007384,35.878273489007384 0 0,0 0.12407168962504841,0.6050176217754475 l -14.600146041233497 2.863347269954131" fill="#ffb911" stroke="none" /><path d="M 120.6074358757038 95.95851677861258 l 8.955534729040282 -1.7563390013330622 a30.12613439363295,30.12613439363295 0 0,0 0.09541990574222789,0.5097369519698509 l -8.98444035869237 1.6019239719006486" fill="#ff6d0a" stroke="none" /><path d="M 120.67395015179393 96.31383870115 l 62.02185045538181 -11.058483896549978 a84.0,84.0 0 0,0 0.2415525539191079,1.4256568467366484 l -62.20301487082114 9.98924126149749" fill="#4dd2ff" stroke="none" /><path d="M 120.83666639777658 97.38593545837742 l 7.5483726141035214 -0.9469812886954159 a28.607542486406977,28.607542486406977 0 0,0 0.057092000335245176,0.4891293933753446 l -7.5635549674423554 0.8169081569952186" fill="#ff5808" stroke="none" /><path d="M 120.91429891909075 98.10471618934814 l 14.689139760440876 -1.331150945487994 a35.749331840508525,35.749331840508525 0 0,0 0.050262736938056475,0.6133327014884001 l -14.709876981198425 1.078104326791825" fill="#ffb811" stroke="none" /><path d="M 120.94382443527127 98.46500227214037 l 17.913920333749353 -1.3129324634260662 a38.96196908407975,38.96196908407975 0 0,0 0.04326524249261781,0.6692941517112019 l -17.93386616724639 1.0043792474618292" fill="#ffe115" stroke="none" /><path d="M 120.96714384426684 98.82574320788733 l 23.639978296098903 -1.3239478531636342 a44.67702286517297,44.67702286517297 0 0,0 0.036393459813937365,0.7682084164649641 l -23.659265364146336 0.9168283300756703" fill="#d8ff1c" stroke="none" /><line stroke="#e1ed5e" stroke-width="0.3" x1="184.98032266829074" x2="189.97916517819016" y1="98.17113171792111" y2="98.06355123074" /><path d="M 185.9800911702706 98.14961562048488 a86.0,86.0 0 0,1 -9.607161424134198,41.387399972396054" fill="none" id="id64" stroke="none" /><text fill="#e1ed5e" style="font-size:6.75px; font-family:Arial;" text-anchor="middle"><textPath startOffset="21.466115282336823" xlink:href="#id64">April</textPath></text><path d="M 120.99513854157772 99.54816195383933 l 16.358046078379452 -0.3520428105022505 a37.36183381051194,37.36183381051194 0 0,0 0.008303210117273984,0.643092774041465 l -16.36168229561444 0.07041377840032274" fill="#ffcd13" stroke="none" /><path d="M 120.99980553446 99.90962569577887 l 17.801066736367503 -0.07660828182685761 a38.80123158046808,38.80123158046808 0 0,0 -0.0028744371971597842,0.667917973826813 l -17.79974800188084 -0.22981917020364007" fill="#ffdf14" stroke="none" /><path d="M 120.9904718944345 100.63252640178507 l 32.22419777804025 0.9710432415937538 a53.23882515563027,53.23882515563027 0 0,0 -0.035487142937453996,0.9157654756407976 l -32.202708502251596 -1.5255859642485574" fill="#77ff26" stroke="none" /><path d="M 120.9764740272857 100.99374915477107 l 19.08497888410608 0.904140591513803 a40.10638346773135,40.10638346773135 0 0,0 -0.03860458869461511,0.6893108642381728 l -19.066587944523935 -1.232523172087399" fill="#ffef16" stroke="none" /><path d="M 120.95626037817324 101.35467743843564 l 23.70533592007707 1.5323861777797638 a44.754813375009846,44.754813375009846 0 0,0 -0.05631315170014706,0.7683482139411759 l -23.675446209712586 -1.94020752821771" fill="#d7ff1c" stroke="none" /><path d="M 120.89721153311464 102.0752229133903 l 11.967620784982191 1.1884590837588855 a33.02648669591027,33.02648669591027 0 0,0 -0.06104820014482696,0.5652305139872931 l -11.945390283336312 -1.39428591963097" fill="#ff940d" stroke="none" /><path d="M 120.8583938346157 102.4346265915055 l 14.408405917033686 1.6817732211288372 a35.506223569120856,35.506223569120856 0 0,0 -0.07608221299782991,0.6064500955498141 l -14.37732219478901 -1.9295410709660463" fill="#ffb510" stroke="none" /><path d="M 120.76222939487914 103.15116336523771 l 15.9862103986792 2.426288603174984 a37.169285676761845,37.169285676761845 0 0,0 -0.10145134507790854,0.6317376226430077 l -15.942077299240003 -2.701105455511197" fill="#ffca12" stroke="none" /><path d="M 120.64145759157962 103.86396538481128 l 30.77539458421859 5.760981696652992 a52.30996362060361,52.30996362060361 0 0,0 -0.1732956035774269,0.8836305491421101 l -30.671669047665496 -6.289875972863047" fill="#81ff25" stroke="none" /><path d="M 120.49622156327973 104.57218783832717 l 15.041358047043543 3.3553459657084383 a36.41106091250558,36.41106091250558 0 0,0 -0.14172473870744642,0.6105464650706561 l -14.981372742405544 -3.613761088127659" fill="#ffc011" stroke="none" /><path d="M 120.41448212921028 104.9243191809786 l 14.188904649192684 3.4226043491507796 a35.59586364949699,35.59586364949699 0 0,0 -0.14880543268197902,0.5944037340230859 l -14.127887902215644 -3.6663359225712617" fill="#ffb610" stroke="none" /><path d="M 120.23288151984713 105.62410040840565 l 11.323243234580085 3.1475030799547543 a32.75255772110005,32.75255772110005 0 0,0 -0.15566411530375338,0.541887206585757 l -11.267386482390233 -3.3419477620450935" fill="#ff900d" stroke="none" /><path d="M 120.02730092923936 106.31721596034902 l 30.057071110213528 9.480908586217458 a52.516902629297896,52.516902629297896 0 0,0 -0.2793592845865623,0.8597794711291254 l -29.88941957461072 -9.99688695732438" fill="#7fff26" stroke="none" /><path d="M 119.79798401119884 107.00284435728193 l 11.462743904103823 4.054544716392085 a33.15869362506895,33.15869362506895 0 0,0 -0.1949663904503174,0.536463771786473 l -11.391253252648278 -4.251256285184689" fill="#ff960d" stroke="none" /><path d="M 119.41010516605496 108.01547362559984 l 8.273563973154886 3.4165983774530253 a29.951257190512464,29.951257190512464 0 0,0 -0.20088596130192773,0.4748350717640997 l -8.21352703066065 -3.558507974883289" fill="#ff6a09" stroke="none" /><path d="M 119.26925614724726 108.34839909993367 l 21.61828806536904 9.366116431682606 a44.56001943736703,44.56001943736703 0 0,0 -0.31098419586161463,0.7011872642379098 l -21.453862784776152 -9.736852032413204" fill="#d9ff1c" stroke="none" /><path d="M 118.97047184881838 109.00673069616215 l 17.02419253201182 8.082683376428303 a39.84550084053479,39.84550084053479 0 0,0 -0.29949916886828953,0.6170569965922292 l -16.88254010652882 -8.374529328985806" fill="#ffec16" stroke="none" /><path d="M 118.81262510543309 109.33194174019688 l 13.28102455576987 6.588009207113541 a35.82523114706732,35.82523114706732 0 0,0 -0.2787908061556251,0.5500807094356814 l -13.165655079827975 -6.815644128251917" fill="#ffb911" stroke="none" /><line stroke="#e1ed5e" stroke-width="0.3" x1="174.80103733775053" x2="179.2010983576182" y1="140.37084112569926" y2="142.7455964860345" /><path d="M 175.68104954172406 140.8457921977663 a86.0,86.0 0 0,1 -30.038265399797805,32.042727171017184" fill="none" id="id65" stroke="none" /><text fill="#e1ed5e" style="font-size:6.75px; font-family:Arial;" text-anchor="middle"><textPath startOffset="22.206326154141568" xlink:href="#id65">May</textPath></text><path d="M 118.48025628344425 109.97397251340804 l 19.265038909048876 10.39752726377117 a42.89178607076252,42.89178607076252 0 0,0 -0.35625425388095844,0.6467049518370372 l -19.08320824571641 -10.727602734006012" fill="#edff1a" stroke="none" /><path d="M 118.30583269289576 110.29060199501025 l 19.64121185463582 11.041283796621508 a43.5319140553177,43.5319140553177 0 0,0 -0.3728156117388124,0.6500354437880526 l -19.44824424674463 -11.377739086267876" fill="#e5ff1a" stroke="none" /><path d="M 118.12598468904814 110.60418214915192 l 23.191361734522996 13.567562167717371 a47.868531822121824,47.868531822121824 0 0,0 -0.4221984545573785,0.7076288946478996 l -22.95438240426739 -13.964753156251374" fill="#b3ff20" stroke="none" /><path d="M 117.75023020441432 111.22182372390056 l 10.052754560387552 6.355424032092358 a32.89324551495889,32.89324551495889 0 0,0 -0.30668273807493346,0.4759784200226929 l -9.941866958935568 -6.527524052036504" fill="#ff920d" stroke="none" /><path d="M 117.35343817320211 111.8261652097733 l 14.86244698888359 10.12858384360165 a38.98556479997899,38.98556479997899 0 0,0 -0.3826880457923535,0.5512906721870438 l -14.6858980359291 -10.382915777975713" fill="#ffe115" stroke="none" /><path d="M 117.14729908036423 112.12312394758627 l 11.061604264355594 7.820543569423949 a34.54695503138872,34.54695503138872 0 0,0 -0.34747690545336374,0.4826150304857339 l -10.925347566526627 -8.009792205360814" fill="#ffa80f" stroke="none" /><path d="M 116.71984013943494 112.70617746262583 l 25.30291612233698 19.228852661937918 a52.78028223582254,52.78028223582254 0 0,0 -0.5559351721842967,0.7186211508635733 l -24.968174132934617 -19.66155180691474" fill="#7cff26" stroke="none" /><path d="M 116.498646956653 112.99209946851258 l 18.644822386610475 14.682136520407996 a44.73172000998135,44.73172000998135 0 0,0 -0.48157336463020256,0.6008368176660271 l -18.38933110992542 -15.000901171652274" fill="#d7ff1c" stroke="none" /><path d="M 115.80600337817218 113.82643327865902 l 15.491262422169282 13.551111002425358 a41.58183230017599,41.58183230017599 0 0,0 -0.47589644803591336,0.5346747043119561 l -15.25570712448503 -13.81575987647818" fill="#fdff18" stroke="none" /><path d="M 115.56566222782051 114.09645910891815 l 10.908567361160634 9.878935537265034 a35.71700408447375,35.71700408447375 0 0,0 -0.41661944981539595,0.4521581294339498 l -10.736901503349515 -10.06524492150032" fill="#ffb711" stroke="none" /><path d="M 115.32070863581623 114.36230785411682 l 11.826649474917991 11.086822723357129 a37.21071484857241,37.21071484857241 0 0,0 -0.4420871225344906,0.4635265805363892 l -11.634055801004536 -11.288756420476025" fill="#ffcb12" stroke="none" /><path d="M 115.07121518719521 114.62390073753431 l 26.778390532832862 25.98360651076041 a58.312598500170736,58.312598500170736 0 0,0 -0.7051919555471844,0.7143557278503695 l -26.32715795223014 -26.440702732591447" fill="#43ff2d" stroke="none" /><path d="M 114.81725581225074 114.88116024355365 l 12.52541683973148 12.579436939682324 a38.7518534448793,38.7518534448793 0 0,0 -0.4767401515719433,0.4665905788141574 l -12.307026735783744 -12.793177621419053" fill="#ffde14" stroke="none" /><path d="M 114.29624159901734 115.38237550388516 l 5.120029917314686 5.509015934976509 a28.520901736229675,28.520901736229675 0 0,0 -0.3624876915719525,0.33112391175076566 l -5.02444267627587 -5.596332613313859" fill="#ff5608" stroke="none" /><path d="M 113.75828350139079 115.86535959552629 l 10.756953090962822 12.404376528734945 a37.418909734443545,37.418909734443545 0 0,0 -0.4902492331806006,0.41780103224648385 l -10.541838381205174 -12.587701951204375" fill="#ffcd13" stroke="none" /><path d="M 113.48314897796784 116.09983520530334 l 10.394809057697644 12.412138521423504 a37.18991161251346,37.18991161251346 0 0,0 -0.4943245356111991,0.40679543936497364 l -10.179614393541753 -12.589229079645657" fill="#ffca12" stroke="none" /><path d="M 113.20401910651253 116.32954008644616 l 19.672754510738482 24.32948868087233 a52.2880374825983,52.2880374825983 0 0,0 -0.7047493919030356,0.5598955396697688 l -19.251047626118094 -24.664518134547226" fill="#82ff25" stroke="none" /><path d="M 112.92097659922987 116.55440617244103 l 13.64998666908051 17.48841674876436 a43.184833928712145,43.184833928712145 0 0,0 -0.5899280104250936,0.452331642573104 l -13.346929930161922 -17.720787733164837" fill="#e9ff1a" stroke="none" /><path d="M 112.34349029814194 116.9893568818739 l 8.757405464515092 12.053534551594028 a35.898988074912666,35.898988074912666 0 0,0 -0.5030519594440751,0.3589142162054218 l -8.548626177222133 -12.20249302964367" fill="#ffba11" stroke="none" /><path d="M 111.7513745106137 117.40417183066458 l 4.330865700108215 6.414154425266328 a28.739365264899792,28.739365264899792 0 0,0 -0.4123760903080067,0.273300386475234 l -4.219814911060244 -6.48775283283288" fill="#ff5a08" stroke="none" /><path d="M 111.45004920935366 117.60387380957326 l 8.807270765816428 13.540735094965399 a37.15300359853957,37.15300359853957 0 0,0 -0.5391045859567088,0.3440820536082406 l -8.57288437781279 -13.69033157739745" fill="#ffca12" stroke="none" /><path d="M 111.1453310114006 117.79835938074945 l 17.062758106758036 27.248100617220874 a53.149598775971214,53.149598775971214 0 0,0 -0.7795800922976875,0.4788817653265748 l -16.59119881452804 -27.53777084937583" fill="#78ff26" stroke="none" /><line stroke="#e1ed5e" stroke-width="0.3" x1="143.8653032363475" x2="146.44561519142675" y1="172.8068346515853" y2="177.08958963109032" /><path d="M 144.38136562736335 173.6633856474863 a86.0,86.0 0 0,1 -40.68145358897372,12.25698825130547" fill="none" id="id66" stroke="none" /><text fill="#e1ed5e" style="font-size:6.75px; font-family:Arial;" text-anchor="middle"><textPath startOffset="21.466115282336833" xlink:href="#id66">June</textPath></text><path d="M 110.8373102113329 117.98757091392108 l 7.775463659927075 12.905573545850599 a36.066906240970816,36.066906240970816 0 0,0 -0.5345323816570038,0.3158111529779614 l -7.5521634072416886 -13.03750327112231" fill="#ffbc11" stroke="none" /><path d="M 110.5260780823613 118.17145234162733 l 11.729690895128996 20.249281585705475 a44.401261787187096,44.401261787187096 0 0,0 -0.6646472091931861,0.3774040316065159 l -11.379394919014612 -20.44818878310662" fill="#dbff1b" stroke="none" /><path d="M 109.89434966115114 118.52300852407294 l 7.020892825040007 13.143669073616337 a35.90130775393344,35.90130775393344 0 0,0 -0.5475959754657592,0.28647633337957956 l -6.793605947047753 -13.262574825940632" fill="#ffba11" stroke="none" /><path d="M 109.57404056367764 118.69057910512821 l 8.147555330628833 15.90577420344996 a38.871102676577976,38.871102676577976 0 0,0 -0.5981449968570649,0.2999223187105779 l -7.872556426089008 -16.04366436306984" fill="#ffe015" stroke="none" /><path d="M 109.2508944713604 118.85261126421891 l 3.975421392435895 8.101602969862048 a30.024408342307794,30.024408342307794 0 0,0 -0.4659321109307734,0.22367572789452322 l -3.8353766135048892 -8.16883297425613" fill="#ff6b09" stroke="none" /><path d="M 108.92500713936063 119.00905698771935 l 9.781457451471665 20.833180210912086 a44.01517559297103,44.01517559297103 0 0,0 -0.6885901835337017,0.3160979800445765 l -9.421399272170543 -20.998465261290736" fill="#dfff1b" stroke="none" /><path d="M 108.59647513512805 119.15986991738527 l 15.790152634419053 35.19317693537667 a59.573159360142895,59.573159360142895 0 0,0 -0.9392114956886776,0.41172271882833267 l -15.182020464072622 -35.459764207499454" fill="#37ff2e" stroke="none" /><path d="M 107.93186726928326 119.44442032107085 l 3.3040933371578696 8.099754754664806 a29.747745987759714,29.747745987759714 0 0,0 -0.4757924244070773,0.1893276249081328 l -3.164179836708926 -8.15542922397901" fill="#ff6709" stroke="none" /><path d="M 107.59598834532513 119.57807347666477 l 5.340278633173665 13.764155856095096 a35.76382614063198,35.76382614063198 0 0,0 -0.575848316080943,0.217736559760096 l -5.102560096332447 -13.854040665961822" fill="#ffb811" stroke="none" /><path d="M 107.2578585660854 119.70592522655815 l 5.049259171946246 13.709322493115499 a35.60960442331434,35.60960442331434 0 0,0 -0.5770119923317496,0.2068959713468045 l -4.8125276189847614 -13.794206005502264" fill="#ffb610" stroke="none" /><path d="M 106.57524785965236 119.94407469862006 l 9.768696957764488 29.630460477293415 a52.19922480365633,52.19922480365633 0 0,0 -0.8557656620332582,0.2739891407941464 l -9.25720995064029 -29.794222464747268" fill="#83ff25" stroke="none" /><path d="M 106.2309692047433 120.05430185196036 l 5.650639367702339 18.186517026951265 a40.04413628483623,40.04413628483623 0 0,0 -0.6600132235765342,0.1988565700925794 l -5.336751169685559 -18.28108896614957" fill="#ffee16" stroke="none" /><path d="M 105.18746579009965 120.34920634021253 l 2.256354035473717 8.851145376622101 a30.134216332641643,30.134216332641643 0 0,0 -0.5037389362100632,0.1238067746130061 l -2.1036618145204424 -8.888673409549138" fill="#ff6d0a" stroke="none" /><path d="M 104.83641907484287 120.43548508189849 l 7.0908565902154255 29.96123615940724 a51.788892792414174,51.788892792414174 0 0,0 -0.8692638664085348,0.19784162591440865 l -6.5740725744140285 -30.078854518899334" fill="#87ff25" stroke="none" /><path d="M 104.13013068566511 120.58985236759428 l 5.135767806017754 25.603233642743735 a47.11324728796197,47.11324728796197 0 0,0 -0.7965108842818246,0.15265320668449373 l -4.694289307164225 -25.687844047776696" fill="#bbff1f" stroke="none" /><path d="M 103.7750983002368 120.6578951692458 l 4.098907814843661 22.429828633106354 a43.80127754721441,43.80127754721441 0 0,0 -0.7428509547275532,0.1291541603961644 l -3.7122078886440573 -22.497061372023524" fill="#e2ff1b" stroke="none" /><path d="M 103.06178313531738 120.77559828337769 l 1.7237458651158364 11.696403714291081 a32.82273909274776,32.82273909274776 0 0,0 -0.5596611632403469,0.07756393758097843 l -1.522156110688659 -11.724342217364661" fill="#ff910d" stroke="none" /><path d="M 102.70371172650421 120.8252237178851 l 3.926752410563146 30.245642178892552 a51.49947959076462,51.49947959076462 0 0,0 -0.8800833786785974,0.10656584078744084 l -3.4055416088331683 -30.308753548405345" fill="#8aff24" stroke="none" /><path d="M 101.98527174616119 120.90594882070398 l 1.3857497115152306 14.592668536819296 a35.65831768275065,35.65831768275065 0 0,0 -0.6115497968199957,0.052767089736973076 l -1.1343555969536931 -14.614359878834934" fill="#ffb710" stroke="none" /><path d="M 101.62511606390274 120.93702456842531 l 1.8250906760862475 23.5133780125558 a44.58410272911139,44.58410272911139 0 0,0 -0.7656517962559661,0.05280383062519091 l -1.420076119051351 -23.541310187697277" fill="#d9ff1c" stroke="none" /><path d="M 101.26447882468166 120.96189622390904 l 2.2468348354985292 37.24690183391641 a58.3146079036537,58.3146079036537 0 0,0 -1.0024890113813616,0.05181723105088604 l -1.6053577557036884 -37.2800588717295" fill="#43ff2d" stroke="none" /><line stroke="#e1ed5e" stroke-width="0.3" x1="102.19456741930631" x2="102.32365962044197" y1="184.97166512339345" y2="189.96999836594603" /><path d="M 102.22038585953345 185.97133177190398 a86.0,86.0 0 0,1 -42.740103519485714,-10.115201625700543" fill="none" id="id67" stroke="none" /><text fill="#e1ed5e" style="font-size:6.75px; font-family:Arial;" text-anchor="middle"><textPath startOffset="22.20632615414155" xlink:href="#id67">July</textPath></text><path d="M 100.54218724476979 120.99299961872073 l 0.3807486667013318 14.742243924021542 a35.74715991174385,35.74715991174385 0 0,0 -0.6152602173312898,0.010592262607444718 l -0.126928759477374 -14.746613663908146" fill="#ffb811" stroke="none" /><path d="M 100.18074693466247 120.99922214144158 l 0.1372521792126084 15.94599104026235 a36.946581715741644,36.946581715741644 0 0,0 -0.6359982277501167,0.0 l 0.1372521792125974 -15.94599104026235" fill="#ffc712" stroke="none" /><path d="M 99.81925306533755 120.99922214144158 l -0.10221824741128223 11.875740456163356 a32.876180360379294,32.876180360379294 0 0,0 -0.5658465154571463,-0.009741560917471671 l 0.3066244527610964 -11.872221417966724" fill="#ff920d" stroke="none" /><path d="M 99.45781275523022 120.99299961872073 l -0.22959345178024856 8.889650747372542 a29.8926151138662,29.8926151138662 0 0,0 -0.5142663559934681,-0.017712373115858694 l 0.3825801594483597 -8.88438157583059" fill="#ff6909" stroke="none" /><path d="M 99.09653310690486 120.98055641714683 l -1.0871823007870665 25.246846090003466 a46.27024342675527,46.27024342675527 0 0,0 -0.7954338073557613,-0.041114842071581476 l 1.5216041765563169 -25.224391441169683" fill="#c5ff1e" stroke="none" /><path d="M 98.73552117531835 120.96189622390904 l -1.1130213809464333 18.45111062912817 a39.48465039006068,39.48465039006068 0 0,0 -0.6780778718228869,-0.04676422006650076 l 1.4304620135482502 -18.429218064545385" fill="#ffe715" stroke="none" /><path d="M 98.01472825383883 120.90594882070398 l -2.2503625167407533 23.6974931487255 a44.80410286044496,44.80410286044496 0 0,0 -0.7671473774736238,-0.07951796235151622 l 2.6579424908199702 -23.65524581791822" fill="#d6ff1c" stroke="none" /><path d="M 97.2962882734958 120.8252237178851 l -2.0993752603732907 16.17034798365706 a37.30605808883402,37.30605808883402 0 0,0 -0.6361063227207008,-0.08815854011507189 l 2.3774101742808225 -16.131814878049383" fill="#ffcc13" stroke="none" /><path d="M 96.93821686468263 120.77559828337769 l -2.6040521747067698 17.66968446152089 a38.86053853326679,38.86053853326679 0 0,0 -0.6609328897591512,-0.10322412460898292 l 2.9078209280744383 -17.622242029564802" fill="#ffe014" stroke="none" /><path d="M 96.58105272829116 120.7198165907248 l -6.317566445427201 38.28629330792325 a59.80401913529984,59.80401913529984 0 0,0 -1.014250615482964,-0.17634047023879584 l 6.9756660323822155 -38.171874259163445" fill="#34ff2f" stroke="none" /><path d="M 96.22490169976321 120.6578951692458 l -4.293368292086496 23.493945070337237 a44.883016272228204,44.883016272228204 0 0,0 -0.7588059205879336,-0.14542696065398578 l 4.697141827246125 -23.416560911334784" fill="#d5ff1c" stroke="none" /><path d="M 95.16358092515715 120.4354850818985 l -3.138468652585149 13.261077739007526 a34.62740504583542,34.62740504583542 0 0,0 -0.5788493713908047,-0.14226709215262331 l 3.3662713087191642 -13.205089388540872" fill="#ffa90f" stroke="none" /><path d="M 94.81253420990036 120.34920634021253 l -6.270497721649078 24.59768548974252 a46.38435094954165,46.38435094954165 0 0,0 -0.7719892362309895,-0.20388937378958671 l 6.692977400691556 -24.48610476664935" fill="#c4ff1e" stroke="none" /><path d="M 94.11515582081647 120.15858648285463 l -6.746541912257999 23.110339791074143 a45.07495862992829,45.07495862992829 0 0,0 -0.7429319622804186,-0.22383930587127435 l 7.143348848978663 -22.990785116097143" fill="#d3ff1c" stroke="none" /><path d="M 93.76903079525671 120.05430185196036 l -10.14806591322616 32.66143201004821 a55.20164298284784,55.20164298284784 0 0,0 -0.9049879711859515,-0.2897485697955477 l 10.708775229503052 -32.48191059359296" fill="#63ff29" stroke="none" /><path d="M 93.08242187328487 119.8279376855182 l -5.940507887041825 17.027349463493135 a39.033864358698224,39.033864358698224 0 0,0 -0.6324981197284517,-0.22679132252940576 l 6.232725567400004 -16.922570599923773" fill="#ffe215" stroke="none" /><path d="M 92.7421414339146 119.70592522655815 l -6.710998979829219 18.221138216992163 a40.41770803236059,40.41770803236059 0 0,0 -0.6507824140170203,-0.2460702237436423 l 7.023651614606521 -18.102919743141886" fill="#fff316" stroke="none" /><path d="M 91.7346041902142 119.30500536409082 l -14.589498893197227 34.075845957565676 a58.06773200073547,58.06773200073547 0 0,0 -0.9154774064265937,-0.4013183915764178 l 15.173896974281565 -33.819663012694804" fill="#45ff2d" stroke="none" /><path d="M 91.40352486487194 119.15986991738527 l -14.011025144347366 31.22784803714912 a55.226996926794676,55.226996926794676 0 0,0 -0.8639921899098296,-0.39661643824671317 l 14.546485330024616 -30.982044528568334" fill="#63ff29" stroke="none" /><path d="M 90.7491055286396 118.85261126421891 l -14.46894366866803 29.486594105441842 a53.845236531743325,53.845236531743325 0 0,0 -0.8285656083395393,-0.41545999676131873 l 14.974363184690331 -29.23316626777122" fill="#71ff27" stroke="none" /><path d="M 90.42595943632237 118.69057910512821 l -4.461921363010987 8.710626787253123 a30.786917863990965,30.786917863990965 0 0,0 -0.4695871369050407,-0.24566579597001167 l 4.611199402442523 -8.632531572338394" fill="#ff760a" stroke="none" /><path d="M 90.10565033884886 118.52300852407294 l -12.661083689497154 23.702554400859093 a47.87218125344751,47.87218125344751 0 0,0 -0.7235018226635214,-0.3945108803123801 l 13.067208324029314 -23.481102868786948" fill="#b3ff20" stroke="none" /><line stroke="#e1ed5e" stroke-width="0.3" x1="58.666819895761336" x2="56.23545636021788" y1="174.27360380694188" y2="178.64263932499728" /><path d="M 58.180547188652646 175.14741091055294 a86.0,86.0 0 0,1 -31.652253787137756,-30.449443065178592" fill="none" id="id68" stroke="none" /><text fill="#e1ed5e" style="font-size:6.75px; font-family:Arial;" text-anchor="middle"><textPath startOffset="22.20632615414155" xlink:href="#id68">August</textPath></text><path d="M 89.7882731507175 118.34994917583269 l -8.738539344554432 15.702706820331272 a38.970449948779915,38.970449948779915 0 0,0 -0.5833528092873497,-0.3312429496864722 l 9.00754092076299 -15.549960704850166" fill="#ffe115" stroke="none" /><path d="M 89.4739219176387 118.17145234162733 l -14.96554098626806 25.835416825792315 a50.85692850200941,50.85692850200941 0 0,0 -0.7537290538398925,-0.44531641055734256 l 15.408037911136335 -25.573981842941222" fill="#91ff24" stroke="none" /><path d="M 88.8546689885994 117.79835938074946 l -10.344227802523454 16.519050332136892 a40.490563683643714,40.490563683643714 0 0,0 -0.5875338857040093,-0.37499192405997994 l 10.627043490274387 -16.33854397925311" fill="#fff417" stroke="none" /><path d="M 88.54995079064634 117.60387380957326 l -9.753392752656339 14.99534998440941 a38.888241706285626,38.888241706285626 0 0,0 -0.5580005308390332,-0.3698123250011602 l 10.010067982235334 -14.825239638316932" fill="#ffe015" stroke="none" /><path d="M 87.95078237400918 117.19931262002967 l -12.869133163075018 18.369677707793713 a43.42899122691813,43.42899122691813 0 0,0 -0.6085697760558307,-0.43419837668612005 l 13.183430266979736 -18.14543506926337" fill="#e6ff1a" stroke="none" /><path d="M 87.36589467227662 116.77436683061367 l -16.036397969713946 21.29160832587131 a47.65518045231279,47.65518045231279 0 0,0 -0.6509953433441574,-0.49915546941077743 l 16.40052204155159 -21.012413514633163" fill="#b5ff20" stroke="none" /><path d="M 86.24171649860922 115.8653595955263 l -12.72942722115581 14.678934351680047 a40.42960192797668,40.42960192797668 0 0,0 -0.5218453700724116,-0.4604678651681179 l 12.980214944134808 -14.45764334473964" fill="#fff316" stroke="none" /><path d="M 85.44109423537348 115.13401014063109 l -31.044365005356585 32.270676271704815 a65.7788917417457,65.7788917417457 0 0,0 -0.8092371340070227,-0.7920088574651348 l 31.5952520917394 -31.731517311317113" fill="#36ff70" stroke="none" /><path d="M 85.18274418774928 114.88116024355367 l -16.852361392975443 16.925042905974582 a44.88428692443067,44.88428692443067 0 0,0 -0.5427993072455483,-0.5498528324861498 l 17.141201325276526 -16.632449579507767" fill="#d5ff1c" stroke="none" /><path d="M 84.9287848128048 114.62390073753433 l -13.944134330843696 13.530271699547848 a40.429542827874236,40.429542827874236 0 0,0 -0.48032886029992755,-0.5036228896949964 l 14.174969742522581 -13.28824169327035" fill="#fff316" stroke="none" /><path d="M 84.67929136418377 114.36230785411682 l -11.839056370427006 11.098453494299264 a37.227720903049565,37.227720903049565 0 0,0 -0.43424114082545123,-0.471282994699119 l 12.028343919248185 -10.8930192447988" fill="#ffcb12" stroke="none" /><path d="M 84.19399662182784 113.82643327865904 l -17.872064774934582 15.63373771662962 a44.74498798297917,44.74498798297917 0 0,0 -0.502118646540692,-0.5840774239941293 l 18.138525931046054 -15.32378319347396" fill="#d7ff1c" stroke="none" /><path d="M 83.72743513129214 113.27417163493432 l -12.207182844035888 9.95787950812607 a36.75356078117202,36.75356078117202 0 0,0 -0.39568198861075937,-0.49367411967896685 l 12.376782744701508 -9.746277554868843" fill="#ffc512" stroke="none" /><path d="M 83.50135304334701 112.99209946851258 l -25.633393601501496 20.18538855102589 a53.62699462845735,53.62699462845735 0 0,0 -0.5648536011856204,-0.730149422564112 l 25.977054019905186 -19.741161134348527" fill="#73ff27" stroke="none" /><path d="M 83.06392112726016 112.41649034213515 l -14.908762925094814 10.93018710314233 a39.48621654277534,39.48621654277534 0 0,0 -0.3971565169746062,-0.551615665787125 l 15.094699234445027 -10.671937831904067" fill="#ffe715" stroke="none" /><path d="M 82.6465618267979 111.8261652097733 l -8.30572819281177 5.660256648584302 a31.05105099682173,31.05105099682173 0 0,0 -0.29719832495686727,-0.4442711714122609 l 8.401929623179369 -5.51644856296622" fill="#ff790b" stroke="none" /><path d="M 82.44556493220864 111.52570212397912 l -26.296872691534983 17.2657177667277 a52.45839352788211,52.45839352788211 0 0,0 -0.48909992037201816,-0.7590939379020889 l 26.590177475284047 -16.810502228904163" fill="#80ff26" stroke="none" /><path d="M 82.05923443525364 110.91462005526583 l -26.34111028883188 16.025136140310416 a51.832759843450404,51.832759843450404 0 0,0 -0.45716278039751124,-0.7662311159002289 l 26.613053944927625 -15.569342930524074" fill="#87ff25" stroke="none" /><line stroke="#e1ed5e" stroke-width="0.3" x1="26.63291911575756" x2="22.317208475507996" y1="142.92168965132927" y2="145.44649492493687" /><path d="M 25.769776987707644 143.4266507060508 a86.0,86.0 0 0,1 -11.730757126820373,-40.83630448921669" fill="none" id="id69" stroke="none" /><text fill="#e1ed5e" style="font-size:6.75px; font-family:Arial;" text-anchor="middle"><textPath startOffset="21.46611528233685" xlink:href="#id69">September</textPath></text><path d="M 81.87401531095188 110.60418214915194 l -16.220549866819646 9.489452203448291 a39.79244372356912,39.79244372356912 0 0,0 -0.34079007485251295,-0.5941962207862596 l 16.38149193782454 -9.208836136803724" fill="#ffeb16" stroke="none" /><path d="M 81.51974371655577 109.97397251340807 l -19.269108598541184 10.39972371443248 a42.89641065377847,42.89641065377847 0 0,0 -0.3451067136243403,-0.6528118453165299 l 19.445267820390413 -10.066496854029824" fill="#edff1a" stroke="none" /><path d="M 81.18737489456691 109.33194174019688 l -14.757413109488567 7.3203669664364295 a37.4732818286885,37.4732818286885 0 0,0 -0.2816683571722528,-0.5803202431864243 l 14.88123472327554 -7.06525776728472" fill="#ffce13" stroke="none" /><path d="M 81.02952815118164 109.00673069616217 l -22.10277937511927 10.49387611730842 a45.46741286018229,45.46741286018229 0 0,0 -0.3295854449496686,-0.709897727123922 l 22.280139436908765 -10.11185832290567" fill="#ceff1d" stroke="none" /><path d="M 80.87730276802145 108.67885076344099 l -26.00610708616873 11.802891590077808 a49.559164127551156,49.559164127551156 0 0,0 -0.3458732064837316,-0.7798527727609902 l 26.20542137738374 -11.353490480824123" fill="#a0ff22" stroke="none" /><path d="M 80.58989483394504 108.01547362559985 l -16.544178159786 6.831978629817088 a38.89932297549316,38.89932297549316 0 0,0 -0.2502474686260313,-0.6210936944842734 l 16.659328242669417 -6.546185567490009" fill="#ffe015" stroke="none" /><path d="M 80.20201598880116 107.00284435728193 l -15.352938333566172 5.4305649260094 a37.285077552467754,37.285077552467754 0 0,0 -0.20881271376966754,-0.6069074892793327 l 15.44414187827907 -5.1654847336407705" fill="#ffcc13" stroke="none" /><path d="M 80.0844068197444 106.66101706037122 l -33.96134015001269 11.35879127901534 a56.8105398466024,56.8105398466024 0 0,0 -0.3021989297531251,-0.930072671053178 l 34.15183133078206 -10.77251970798436" fill="#52ff2b" stroke="none" /><path d="M 79.97269907076064 106.31721596034903 l -16.88199294132754 5.325090766262555 a38.701928633342966,38.701928633342966 0 0,0 -0.19493466198981393,-0.6370577542267738 l 16.971154375823485 -5.033706039483733" fill="#ffde14" stroke="none" /><path d="M 79.76711848015287 105.62410040840567 l -11.573713373790174 3.217125847766806 a33.01252429670878,33.01252429670878 0 0,0 -0.14747468614705456,-0.5488081690830405 l 11.627376136279004 -3.0174267455082266" fill="#ff940d" stroke="none" /><path d="M 79.67330655649465 105.27499134158121 l -23.294610011078788 6.045196994556587 a45.06622658979276,45.06622658979276 0 0,0 -0.1883954667618568,-0.7525462404023494 l 23.395216792135702 -5.643322914756846" fill="#d3ff1c" stroke="none" /><path d="M 79.58551787078972 104.9243191809786 l -30.89737925726817 7.452971687233379 a52.78356229150798,52.78356229150798 0 0,0 -0.20545230999415004,-0.8850831742682795 l 31.021092133192873 -6.920019855616525" fill="#7cff26" stroke="none" /><path d="M 79.50377843672027 104.57218783832718 l -18.984045804048044 4.234859731562413 a40.45065633947099,40.45065633947099 0 0,0 -0.14574941886444603,-0.6808927624547114 l 19.05412926163693 -3.9074531496915372" fill="#fff316" stroke="none" /><path d="M 79.23777060512086 103.15116336523772 l -45.581149006864095 6.9180261986363645 a67.10314773712275,67.10314773712275 0 0,0 -0.1634950587496782,-1.1434840600998817 l 45.693478116630374 -6.132396666556082" fill="#38ff7f" stroke="none" /><path d="M 79.18660465613746 102.79330883721812 l -15.424847182777519 2.0701265332519054 a36.56314025110977,36.56314025110977 0 0,0 -0.07834695849979802,-0.6245023455034522 l 15.458195650524166 -1.8043064334610446" fill="#ffc212" stroke="none" /><path d="M 79.1416061653843 102.43462659150553 l -17.57730806876292 2.051652776843995 a38.696639174174564,38.696639174174564 0 0,0 -0.0715292605897949,-0.6622721166617032 l 17.61001963085377 -1.7487843382975097" fill="#ffdd14" stroke="none" /><path d="M 79.10278846688536 102.07522291339032 l -12.314134170742006 1.222870015417681 a33.3747044994878,33.3747044994878 0 0,0 -0.05185062897281427,-0.5721673700717865 l 12.333359395991895 -1.0107212567973283" fill="#ff990e" stroke="none" /><path d="M 79.07016306316243 101.71520430193888 l -23.95785493249465 1.9633509792480692 a45.038168816159285,45.038168816159285 0 0,0 -0.05666968626569267,-0.7732128448199671 l 23.988101177424678 -1.5506649979313414" fill="#d3ff1c" stroke="none" /><path d="M 79.04373962182676 101.35467743843564 l -22.691506435225765 1.4668491065292393 a43.73886783903759,43.73886783903759 0 0,0 -0.04210105367023492,-0.7517425951702363 l 22.71339383978353 -1.0760347950235654" fill="#e3ff1b" stroke="none" /><path d="M 79.0095281055655 100.63252640178507 l -25.038183405123092 0.754500048218376 a46.04954886921804,46.04954886921804 0 0,0 -0.017055738308974465,-0.7925131399812171 l 25.047461206117074 -0.32339709244703013" fill="#c8ff1d" stroke="none" /><line stroke="#e1ed5e" stroke-width="0.3" x1="15.007084014347285" x2="10.007500721073583" y1="101.09737516637583" y2="101.16192664675087" /><path d="M 14.007167355692545 101.11028546245083 a86.0,86.0 0 0,1 10.666146001902534,-42.60595125391555" fill="none" id="id70" stroke="none" /><text fill="#e1ed5e" style="font-size:6.75px; font-family:Arial;" text-anchor="middle"><textPath startOffset="22.20632615414155" xlink:href="#id70">October</textPath></text><path d="M 79.00175016825051 100.2711162175752 l -23.890362867482548 0.3084573652103908 a44.892354088413754,44.892354088413754 0 0,0 -0.003325674139806465,-0.7727695478136216 l 23.892132838911856 0.10282166080690622" fill="#d5ff1c" stroke="none" /><path d="M 79.00019446554 99.90962569577889 l -16.457201951637977 -0.07082485470473145 a37.45735435108088,37.45735435108088 0 0,0 0.008324438387890518,-0.6447369269950741 l 16.45354450613237 0.35409803976027754" fill="#ffce13" stroke="none" /><path d="M 79.00486145842228 99.54816195383935 l -17.672866659088967 -0.3803391687788481 a38.67695884006199,38.67695884006199 0 0,0 0.020053645017954033,-0.6654828493204361 l 17.663701319615367 0.6844921655242786" fill="#ffdd14" stroke="none" /><path d="M 79.01574976396665 99.18683210126434 l -19.16154778167424 -0.7425357289816731 a40.17592951327782,40.17592951327782 0 0,0 0.03272691380178419,-0.690813425159118 l 19.14592725963896 1.0722602607638" fill="#fff016" stroke="none" /><path d="M 79.03285615573316 98.82574320788736 l -37.27760177356076 -2.0877176882746142 a58.336016915762656,58.336016915762656 0 0,0 0.06477911607772098,-1.002104253806874 l 37.23614206647863 2.7290810063345" fill="#43ff2d" stroke="none" /><path d="M 79.08570108090925 98.10471618934814 l -37.43166523867404 -3.3921112731080223 a58.58504997241995,58.58504997241995 0 0,0 0.0996583989078624,-1.0035464766658666 l 37.36772971408395 4.035933280478319" fill="#40ff2d" stroke="none" /><path d="M 79.21141760316559 97.0276538004421 l -14.763838111411648 -2.1109298009673267 a35.91398472590686,35.91398472590686 0 0,0 0.09276771497577924,-0.6112233342179029 l 14.725314502996566 2.3647522475773215" fill="#ffba11" stroke="none" /><path d="M 79.32604984820605 96.31383870115002 l -30.864668959719584 -5.5031644840868665 a52.351437117491,52.351437117491 0 0,0 0.1658151401023007,-0.8857911087706731 l 30.76536809570742 6.033633670320112" fill="#81ff25" stroke="none" /><path d="M 79.3925641242962 95.95851677861259 l -17.422850415106417 -3.416929599883587 a38.75474934989887,38.75474934989887 0 0,0 0.13401891354416964,-0.6535238182897497 l 17.361452205647254 3.716329074336739" fill="#ffde14" stroke="none" /><path d="M 79.54389044137918 95.25157060432595 l -14.542126061471498 -3.375630085867828 a35.92877452654251,35.92877452654251 0 0,0 0.14502769555597997,-0.6012334274765097 l 14.481865565654704 3.6254487450037347" fill="#ffba11" stroke="none" /><path d="M 79.62865764111835 94.90015583598534 l -11.487043870273297 -2.875712980104744 a32.84153292532374,32.84153292532374 0 0,0 0.1420062693629272,-0.5472080838583551 l 11.435841269040061 3.073017489511963" fill="#ff910d" stroke="none" /><path d="M 79.81627453868168 94.20196356495316 l -7.459452120755239 -2.142824190931173 a28.76112887762339,28.76112887762339 0 0,0 0.1407844971918988,-0.4746553368085599 l 7.421461726451634 2.2709089144862724" fill="#ff5a08" stroke="none" /><path d="M 79.91906864156998 93.8553929516997 l -60.16580845610011 -18.4102641509623 a83.91949088545087,83.91949088545087 0 0,0 0.43456116375033244,-1.3776776436352007 l 59.83999180858157 19.443191961023913" fill="#4dd3ff" stroke="none" /><path d="M 80.02781315780177 93.51064311812611 l -8.660977303799458 -2.814122114630614 a30.106690459930128,30.106690459930128 0 0,0 0.164386409700531,-0.4914944415074272 l 8.611253600327155 2.9627896590603635" fill="#ff6c0a" stroke="none" /><path d="M 80.14247586403 93.16781622104843 l -11.573108384986952 -3.981846016580146 a33.23895156418271,33.23895156418271 0 0,0 0.19080253372258038,-0.5394244565792561 l 11.502852770454563 4.1804680995860135" fill="#ff970d" stroke="none" /><path d="M 80.38941819471856 92.48833698450439 l -14.22521810452517 -5.448846229250713 a36.23308095400699,36.23308095400699 0 0,0 0.22810700046564633,-0.5805074353651435 l 14.129317554177833 5.69290266951162" fill="#ffbe11" stroke="none" /><path d="M 80.803312248108 91.48605970444005 l -28.683861565262855 -12.721605308638994 a52.378386764203725,52.378386764203725 0 0,0 0.37262902970330886,-0.8210386731016021 l 28.460630218596194 13.213465990582668" fill="#81ff25" stroke="none" /><path d="M 81.10775173730289 90.83032412892265 l -13.587764508757889 -6.595053940925222 a36.10371082976544,36.10371082976544 0 0,0 0.276176173334631,-0.5567543129440828 l 13.472228322469846 6.827967842368267" fill="#ffbc11" stroke="none" /><path d="M 81.26839172434947 90.50648371742162 l -16.04253790522321 -8.130647009904342 a38.9852840744924,38.9852840744924 0 0,0 0.3085231647025653,-0.5959685532543709 l 15.90020530736053 8.405588285419048" fill="#ffe115" stroke="none" /><path d="M 81.6062741919709 89.86733742301443 l -13.461900008993695 -7.4158379797479395 a36.36936579023404,36.36936579023404 0 0,0 0.3067883447990685,-0.5457422330341176 l 13.332254022902196 7.646463722716842" fill="#ffc011" stroke="none" /><line stroke="#e1ed5e" stroke-width="0.3" x1="26.266209847984243" x2="21.928928074336255" y1="57.711370442889674" y2="55.22380399835377" /><path d="M 25.398753493254645 57.213857153982495 a86.0,86.0 0 0,1 29.58750427330803,-30.492523968695096" fill="none" id="id71" stroke="none" /><text fill="#e1ed5e" style="font-size:6.75px; font-family:Arial;" text-anchor="middle"><textPath startOffset="21.46611528233685" xlink:href="#id71">November</textPath></text><path d="M 81.78341655067845 89.55222093294921 l -28.484490822149265 -16.336744361266884 a53.836799992119985,53.836799992119985 0 0,0 0.46797080933512325,-0.7999138081203462 l 28.19906033834382 16.824637581741122" fill="#71ff27" stroke="none" /><path d="M 81.96595687620814 89.24020034530311 l -19.72647507290555 -11.769569265242357 a43.97077664101285,43.97077664101285 0 0,0 0.3934006794253218,-0.6466472792313501 l 19.52095859519401 12.107384317680783" fill="#e0ff1b" stroke="none" /><path d="M 82.54541684631803 88.32363383020206 l -14.44974529429453 -9.66625874883221 a38.384812258674586,38.384812258674586 0 0,0 0.37210517456022685,-0.5460184283002499 l 14.281215654065564 9.913555200402875" fill="#ffda14" stroke="none" /><path d="M 82.7489923806493 88.02491185347247 l -17.488725458268732 -12.140104135034315 a42.289378726589796,42.289378726589796 0 0,0 0.42025045983683945,-0.5944144722629534 l 17.277162378628013 12.439345107629055" fill="#f4ff19" stroke="none" /><path d="M 83.17141714833178 87.43820079747576 l -29.792574702247872 -22.238850676528703 a58.177466115941264,58.177466115941264 0 0,0 0.6059434083977628,-0.7973504975635056 l 29.405355353626003 22.748385949973233" fill="#44ff2d" stroke="none" /><path d="M 83.39014120810768 87.1503855733568 l -14.704284535134029 -11.375436062608381 a39.590764623992015,39.590764623992015 0 0,0 0.4216339502057324,-0.5354322991632543 l 14.506296504334326 11.626860755724682" fill="#ffe915" stroke="none" /><path d="M 83.84228863543731 86.58626213691792 l -12.411581116738535 -10.303791905297237 a37.131195660739145,37.131195660739145 0 0,0 0.4124911360087329,-0.4882593986325391 l 12.232379367242677 10.515910253558893" fill="#ffca12" stroke="none" /><path d="M 84.31358615837235 86.03803664274999 l -24.088278961864948 -21.440188407644207 a53.247897021354845,53.247897021354845 0 0,0 0.6152828969549385,-0.67941074241094 l 23.715652424293967 21.851651937324704" fill="#77ff27" stroke="none" /><path d="M 84.80347519578584 85.50635884689758 l -12.651003402311249 -12.06585754980833 a38.4823569777521,38.4823569777521 0 0,0 0.4613040222968507,-0.47541434474525845 l 12.441435116311279 12.281836090103711" fill="#ffdb14" stroke="none" /><path d="M 85.05521093208273 85.24692304244772 l -39.10394693916971 -38.60232057581057 a75.94777356780753,75.94777356780753 0 0,0 0.9264333640510236,-0.922454964766235 l 38.43367777495137 39.26971139122691" fill="#43ffde" stroke="none" /><path d="M 85.57189188830299 84.74124197986013 l -12.76822762482462 -13.503315484260582 a39.58405676236505,39.58405676236505 0 0,0 0.4991212456233894,-0.4638788016085179 l 12.533898495406374 13.721098871943749" fill="#ffe915" stroke="none" /><path d="M 85.83668400450813 84.49514656593479 l -12.085307613401334 -13.230017836996844 a38.91892943447769,38.91892943447769 0 0,0 0.4985125901143921,-0.4475695255268978 l 11.85578403569097 13.43608637129302" fill="#ffe015" stroke="none" /><path d="M 86.65592168130627 83.78471172551755 l -21.697208617613924 -26.365739475113884 a55.14558653568333,55.14558653568333 0 0,0 0.738154140921325,-0.5968693134454225 l 21.240151078128097 26.735314885823442" fill="#63ff29" stroke="none" /><path d="M 86.93701828274178 83.55741782278169 l -11.292011756931007 -14.21343421266178 a39.15299539019201,39.15299539019201 0 0,0 0.5313013835332288,-0.4146891572105848 l 11.045677818238353 14.405701759095585" fill="#ffe315" stroke="none" /><path d="M 87.51073957382395 83.11751280151077 l -10.08444734885678 -13.63175620183945 a37.95643994116256,37.95643994116256 0 0,0 0.5285970778728276,-0.38404825725397196 l 9.848304954630171 13.80332369391009" fill="#ffd413" stroke="none" /><path d="M 87.80319425747018 82.90503203632743 l -13.627354985842032 -19.10001699053407 a44.46306571931392,44.46306571931392 0 0,0 0.6268632951492424,-0.4391577984461262 l 13.296560551109131 19.331759631744138" fill="#daff1c" stroke="none" /><path d="M 88.39885842347998 82.49532879139004 l -8.386683175455257 -12.654455645490224 a36.18129448924378,36.18129448924378 0 0,0 0.5221012038119107,-0.3395891461490779 l 8.167614945859059 12.796943715798836" fill="#ffbd11" stroke="none" /><path d="M 88.70189139769569 82.29822771554957 l -16.42076951317919 -25.727910121032004 a51.52158302907725,51.52158302907725 0 0,0 0.7516774418844089,-0.4707003451489979 l 15.97547291892254 26.006754807503935" fill="#8aff24" stroke="none" /><line stroke="#e1ed5e" stroke-width="0.3" x1="56.762969772571076" x2="54.21961505331055" y1="26.818313649435495" y2="22.513508569990535" /><path d="M 56.25429882871897 25.957352633546506 a86.0,86.0 0 0,1 42.265352541879196,-11.944610805530505" fill="none" id="id72" stroke="none" /><text fill="#e1ed5e" style="font-size:6.75px; font-family:Arial;" text-anchor="middle"><textPath startOffset="22.20632615414155" xlink:href="#id72">December</textPath></text><path d="M 89.63071344664047 81.73862282372117 l -12.69708870220502 -22.360875518143786 a46.71429204643955,46.71429204643955 0 0,0 0.7026628358820757,-0.39103110741146707 l 12.3103017772509 22.576122023115435" fill="#c0ff1e" stroke="none" /><path d="M 89.94658935756843 81.56283822128135 l -10.673397592444282 -19.574168920338195 a43.295055619763076,43.295055619763076 0 0,0 0.6573734735806661,-0.35114614330169697 l 10.33487907233531 19.75499379014164" fill="#e8ff1a" stroke="none" /><path d="M 90.26544431104013 81.39251694778311 l -8.123299645183012 -15.52758701121294 a38.524096425100474,38.524096425100474 0 0,0 0.5902249523759656,-0.3023361450684931 l 7.8548142052182826 15.665115681593939" fill="#ffdb14" stroke="none" /><path d="M 90.91171255644093 81.06846463323043 l -16.212007755657112 -33.770740648182304 a58.46054083160411,58.46054083160411 0 0,0 0.9109315590147511,-0.42769458121609727 l 15.628297985342751 34.04480021203841" fill="#42ff2d" stroke="none" /><path d="M 91.56875222667455 80.76684994638697 l -3.7601791271125773 -8.577625913097247 a30.36560800872055,30.36560800872055 0 0,0 0.48052308313669206,-0.2057349067227505 l 3.6119722861855768 8.641080347782784" fill="#ff700a" stroke="none" /><path d="M 91.90106846888425 80.62456947434976 l -6.480587625886974 -15.503795139932885 a37.80374005148276,37.80374005148276 0 0,0 0.6025486469104319,-0.24579472217027976 l 6.212755109388161 15.613050748286742" fill="#ffd213" stroke="none" /><path d="M 92.23578459929587 80.48803036053334 l -6.773117807517193 -17.021278030594196 a39.31936217856111,39.31936217856111 0 0,0 0.6310136664595283,-0.24482349920079838 l 6.479120976057987 17.135344233685547" fill="#ffe515" stroke="none" /><path d="M 93.59665428221793 80.00007090966166 l -10.032491767097893 -31.335044644576797 a53.90191352998345,53.90191352998345 0 0,0 0.8860823328300841,-0.2753100940380863 l 9.49162406155708 31.50309487349741" fill="#70ff27" stroke="none" /><path d="M 93.94186890950719 79.89281104454417 l -4.853414686281808 -16.1086851239322 a37.8239522865173,37.8239522865173 0 0,0 0.6250134022754318,-0.18245855112017165 l 4.575411066282955 16.189842003971073" fill="#ffd213" stroke="none" /><path d="M 94.28887869178378 79.79150937346287 l -7.03586456074448 -24.896022226114887 a46.871128943290174,46.871128943290174 0 0,0 0.7782886474758265,-0.21273568737912885 l 6.606278024044931 25.01344445432031" fill="#beff1f" stroke="none" /><path d="M 94.63758080256005 79.69619591428918 l -3.963448385762472 -15.006861001610309 a36.52143035381261,36.52143035381261 0 0,0 0.6091967821643055,-0.15529782410585719 l 3.704542714913167 15.072861821885029" fill="#ffc212" stroke="none" /><path d="M 94.98787191387505 79.60689891045804 l -4.238537843253539 -17.245555026536838 a38.758782931890416,38.758782931890416 0 0,0 0.6492581789333275,-0.15365843426307213 l 3.941055977357678 17.31595937294078" fill="#ffde14" stroke="none" /><path d="M 96.04723909329186 79.375362276772 l -8.709942742534832 -45.446567069103 a67.27368108271388,67.27368108271388 0 0,0 1.139183295922907,-0.2081784658535355 l 7.926364325509031 45.58976101630727" fill="#38ff81" stroke="none" /><path d="M 96.75951476605007 79.25152402106235 l -3.3500641140388074 -21.450097679756766 a42.71012713088703,42.71012713088703 0 0,0 0.7273555386591027,-0.10719329914209505 l 2.9803395949510563 21.50458546305983" fill="#efff19" stroke="none" /><path d="M 97.47563105711357 79.15227682838746 l -1.8323199704411388 -15.132375801571877 a36.24290634603767,36.24290634603767 0 0,0 0.6199837486226512,-0.06966239800534313 l 1.5715695183087697 15.161674153047818" fill="#ffbe11" stroke="none" /><path d="M 98.19473922651362 79.07773832637324 l -2.646523457545463 -30.6721649954332 a51.78612986262509,51.78612986262509 0 0,0 0.8887728217831562,-0.0689858764371993 l 2.118160446399973 30.713176134058862" fill="#87ff25" stroke="none" /><path d="M 99.27714615592234 79.0124445844662 l -0.5105026263956128 -14.822086441173248 a35.83087520685036,35.83087520685036 0 0,0 0.6165868541624714,-0.015924619334605088 l 0.25528913703826245 14.828677852650213" fill="#ffb911" stroke="none" /></svg>