<?xml version="1.0" encoding="utf-8" ?>
<svg baseProfile="full" height="200mm" version="1.1" viewBox="0,0,200,200" width="200mm" xmlns="http://www.w3.org/2000/svg" xmlns:ev="http://www.w3.org/2001/xml-events" xmlns:xlink="http://www.w3.org/1999/xlink"><defs /><rect fill="#1a1a1a" height="200" width="200" x="0" y="0" /><rect fill="#1a1a1a" height="200" width="180" x="10" y="0" /><text alignment-baseline="middle" fill="#e1ed5e" style="dominant-baseline: central; font-size:9.0px; font-family:Arial;" text-anchor="middle" x="100.0" y="100.0">2022</text><line stroke="#e1ed5e" stroke-width="0.3" x1="100.0" x2="100.0" y1="15.0" y2="10.0" /><path d="M 100.0 14.0 a86.0,86.0 0 0,1 42.46469731375804,11.215312516191453" fill="none" id="id25" stroke="none" /><text fill="#e1ed5e" style="font-size:6.75px; font-family:Arial;" text-anchor="middle"><textPath startOffset="22.20632615414155" xlink:href="#id25">January</textPath></text><line stroke="#e1ed5e" stroke-width="0.3" x1="143.23703022742887" x2="145.7803849466894" y1="26.81831364943548" y2="22.513508569990506" /><path d="M 143.74570117128098 25.957352633546492 a86.0,86.0 0 0,1 28.547481713284135,27.462654790039103" fill="none" id="id26" stroke="none" /><text fill="#e1ed5e" style="font-size:6.75px; font-family:Arial;" text-anchor="middle"><textPath startOffset="19.985693538727396" xlink:href="#id26">February</textPath></text><line stroke="#e1ed5e" stroke-width="0.3" x1="172.23445277983987" x2="176.4835382374775" y1="55.19839476539836" y2="52.563006222186495" /><path d="M 173.08426987136738 54.67131705675599 a86.0,86.0 0 0,1 12.851231095245387,41.99856678651699" fill="none" id="id27" stroke="none" /><text fill="#e1ed5e" style="font-size:6.75px; font-family:Arial;" text-anchor="middle"><textPath startOffset="22.20632615414155" xlink:href="#id27">March</textPath></text><line stroke="#e1ed5e" stroke-width="0.3" x1="184.98032266829074" x2="189.97916517819016" y1="98.17113171792111" y2="98.06355123074" /><path d="M 185.9800911702706 98.14961562048488 a86.0,86.0 0 0,1 -9.607161424134198,41.387399972396054" fill="none" id="id28" stroke="none" /><text fill="#e1ed5e" style="font-size:6.75px; font-family:Arial;" text-anchor="middle"><textPath startOffset="21.466115282336823" xlink:href="#id28">April</textPath></text><line stroke="#e1ed5e" stroke-width="0.3" x1="174.80103733775053" x2="179.2010983576182" y1="140.37084112569926" y2="142.7455964860345" /><path d="M 175.68104954172406 140.8457921977663 a86.0,86.0 0 0,1 -30.038265399797805,32.042727171017184" fill="none" id="id29" stroke="none" /><text fill="#e1ed5e" style="font-size:6.75px; font-family:Arial;" text-anchor="middle"><textPath startOffset="22.206326154141568" xlink:href="#id29">May</textPath></text><path d="M 115.56566222782051 114.09645910891815 l 40.79176188414943 36.94153162034483 a76.03312271777864,76.03312271777864 0 0,0 -0.8868850724296167,0.9625385841932179 l -40.149830403724096 -37.638221459339384" fill="#41ffce" stroke="none" /><path d="M 115.32070863581623 114.36230785411682 l 16.061739200831724 15.05698258209787 a43.01572598469406,43.01572598469406 0 0,0 -0.511054372421848,0.535838466315852 l -15.800178277030911 -15.33122816499623" fill="#ffa70f" stroke="none" /><path d="M 114.81725581225074 114.88116024355365 l 17.733470532547532 17.8099521269648 a46.13305337386426,46.13305337386426 0 0,0 -0.5675465017232313,0.5554637046404319 l -17.424274078448505 -18.1125659345278" fill="#ffd714" stroke="none" /><path d="M 114.0293411484842 115.62618273729858 l 36.79514940896 40.98323096040293 a76.07729332475787,76.07729332475787 0 0,0 -0.9819681964687729,0.8664727618992196 l -36.08423885958464 -41.61052686407444" fill="#41ffcf" stroke="none" /><path d="M 113.75828350139079 115.86535959552629 l 21.752067838517895 25.083389084799922 a54.20133827469827,54.20133827469827 0 0,0 -0.7101266369093028,0.6051853258424861 l -21.317075725031547 -25.454098800865356" fill="#b2ff20" stroke="none" /><path d="M 113.48314897796784 116.09983520530334 l 8.316172947135263 9.930099727182506 a33.95243656917317,33.95243656917317 0 0,0 -0.4512923454832303,0.3713828765062435 l -8.144010473107341 -10.07177772254593" fill="#ff0e01" stroke="none" /><path d="M 113.20401910651253 116.32954008644616 l 13.956610381374908 17.260277106170207 a43.19693985934289,43.19693985934289 0 0,0 -0.5822176268917242,0.46254889491078094 l -13.657435261765832 -17.497959915086113" fill="#ffa90f" stroke="none" /><path d="M 112.63410532772338 116.77436683061366 l 19.925479900739973 26.455162471821843 a54.11948626843846,54.11948626843846 0 0,0 -0.7489493382302069,0.5540548155728071 l -19.467145592091203 -26.79422723613442" fill="#b3ff20" stroke="none" /><path d="M 112.04921762599082 117.19931262002967 l 16.439121623582373 23.465556086628723 a49.65095185521158,49.65095185521158 0 0,0 -0.7041997229521643,0.48435499068239807 l -16.032765016007325 -23.745051866676214" fill="#f2ff19" stroke="none" /><path d="M 111.7513745106137 117.40417183066458 l 19.182842212845184 28.41041971484644 a55.28021854855436,55.28021854855436 0 0,0 -0.7932061194220841,0.525693763745272 l -18.690961394683136 -28.73641149968303" fill="#a3ff22" stroke="none" /><path d="M 111.1453310114006 117.79835938074945 l 14.884004654805196 23.768774888784577 a49.04439791255963,49.04439791255963 0 0,0 -0.7193664135173726,0.44189360583402376 l -14.472659041355515 -24.02145696144698" fill="#fbff18" stroke="none" /><line stroke="#e1ed5e" stroke-width="0.3" x1="143.8653032363475" x2="146.44561519142675" y1="172.8068346515853" y2="177.08958963109032" /><path d="M 144.38136562736335 173.6633856474863 a86.0,86.0 0 0,1 -40.68145358897372,12.25698825130547" fill="none" id="id30" stroke="none" /><text fill="#e1ed5e" style="font-size:6.75px; font-family:Arial;" text-anchor="middle"><textPath startOffset="21.466115282336833" xlink:href="#id30">June</textPath></text><path d="M 110.5260780823613 118.17145234162733 l 16.75026227493323 28.916429296563532 a54.41752787897706,54.41752787897706 0 0,0 -0.8145817614217364,0.46254078341333105 l -16.250031746590295 -29.20047324577149" fill="#afff20" stroke="none" /><path d="M 109.89434966115114 118.52300852407294 l 10.593490451391324 19.831855619702996 a43.48387282619399,43.48387282619399 0 0,0 -0.66325143141004,0.3469818017152079 l -10.250548117454787 -20.011266840362918" fill="#ffae10" stroke="none" /><path d="M 109.57404056367764 118.69057910512821 l 9.531278089667438 18.60709759093338 a41.906203452111846,41.906203452111846 0 0,0 -0.6448488518762455,0.323340601173321 l -9.209575330108432 -18.768406033016" fill="#ff950d" stroke="none" /><path d="M 108.92500713936063 119.00905698771935 l 10.240084076823774 21.80999283652397 a45.09429620116858,45.09429620116858 0 0,0 -0.7054723576394075,0.323847758158155 l -9.863143723416947 -21.9830276650162" fill="#ffc712" stroke="none" /><path d="M 108.59647513512805 119.15986991738527 l 7.2409748690222475 16.138723649487485 a38.68870029392602,38.68870029392602 0 0,0 -0.609953751984828,0.2673857999817105 l -6.962100442379666 -16.26097400276365" fill="#ff6008" stroke="none" /><path d="M 108.2653958097858 119.30500536409082 l 8.761252719161114 20.463149573467764 a43.25983018073413,43.25983018073413 0 0,0 -0.6870660963127588,0.2871936839814435 l -8.407715163350893 -20.61092830046918" fill="#ffaa0f" stroke="none" /><path d="M 107.59598834532513 119.57807347666477 l 16.819820333326966 43.35178825713176 a67.50036452692157,67.50036452692157 0 0,0 -1.086851588385189,0.4109542725336772 l -16.071098524181505 -43.634890779772064" fill="#34ff5c" stroke="none" /><path d="M 107.2578585660854 119.70592522655815 l 9.56185472975755 25.96154121992523 a48.66641806209947,48.66641806209947 0 0,0 -0.7885823867022961,0.2827575874540026 l -9.113552782425518 -26.12228634841919" fill="#fffd18" stroke="none" /><path d="M 106.57524785965236 119.94407469862006 l 7.121069566582913 21.59966383039261 a43.74324315831153,43.74324315831153 0 0,0 -0.7171364245668295,0.22960443672442601 l -6.748211796925143 -21.719041113776743" fill="#ffb210" stroke="none" /><path d="M 106.2309692047433 120.05430185196036 l 7.628094653393969 24.550933844775702 a46.70867909270507,46.70867909270507 0 0,0 -0.7698591783249951,0.23195225517818385 l -7.204360500628728 -24.67860146905961" fill="#ffe015" stroke="none" /><path d="M 105.53697534728816 120.25689768951611 l 8.15456037205154 29.833272644158267 a51.9276738782941,51.9276738782941 0 0,0 -0.8642484906205496,0.22825588140518369 l -7.639821438619493 -29.969219874867033" fill="#d1ff1c" stroke="none" /><path d="M 105.18746579009965 120.34920634021253 l 5.505127171917749 21.595317113081695 a43.28596299004255,43.28596299004255 0 0,0 -0.7235902440181604,0.17784087711649244 l -5.132583643156377 -21.686879248512216" fill="#ffab0f" stroke="none" /><path d="M 104.83641907484287 120.43548508189849 l 10.15780129766636 42.92010135413965 a65.10573689955189,65.10573689955189 0 0,0 -1.0927838293343655,0.24871404175780637 l -9.417497318939134 -43.08859212947514" fill="#30ff3a" stroke="none" /><path d="M 104.13013068566511 120.58985236759428 l 2.3878747049330524 11.90422080771682 a33.14135159878575,33.14135159878575 0 0,0 -0.5602977673540364,0.10738240063332653 l -2.182609323007312 -11.943560406698614" fill="#ff0000" stroke="none" /><path d="M 103.7750983002368 120.6578951692458 l 3.9831264780427333 21.796256066787045 a43.15721270983867,43.15721270983867 0 0,0 -0.7319278902385028,0.12725504562211948 l -3.6073496163321805 -21.86158969093017" fill="#ffa90f" stroke="none" /><path d="M 103.06178313531738 120.77559828337769 l 3.5383139512624204 24.00907771813138 a45.268404943320256,45.268404943320256 0 0,0 -0.771872453941892,0.10697448879852788 l -3.124512906133698 -24.066426772422513" fill="#ffca12" stroke="none" /><path d="M 102.70371172650421 120.8252237178851 l 5.003496009283897 38.53921360899207 a59.86265505487806,59.86265505487806 0 0,0 -1.023003108691924,0.12387142973840119 l -4.339365477540593 -38.61963056745582" fill="#67ff28" stroke="none" /><path d="M 102.34483914955558 120.86867818915974 l 3.0253509850918525 26.92512027066126 a48.09455388399245,48.09455388399245 0 0,0 -0.8234873265466234,0.08535782843309314 l -2.5614310619396266 -26.97320746755011" fill="#fff517" stroke="none" /><path d="M 101.98527174616119 120.90594882070398 l 1.1791989542164933 12.41758113666121 a33.473445051756535,33.473445051756535 0 0,0 -0.5740786400074471,0.04953392065678136 l -0.9652759964675045 -12.436039309596655" fill="#ff0601" stroke="none" /><path d="M 101.62511606390274 120.93702456842531 l 1.7579988905621273 22.649007526619787 a43.717132346317335,43.717132346317335 0 0,0 -0.7507631388589527,0.05177702164064623 l -1.3678729909242442 -22.67591289277672" fill="#ffb210" stroke="none" /><path d="M 100.90346689309514 120.98055641714683 l 0.901704745492176 20.939635341364276 a41.95904100089875,41.95904100089875 0 0,0 -0.7218546465177879,0.02486213357247518 l -0.5411297472997358 -20.952054273362844" fill="#ff960d" stroke="none" /><line stroke="#e1ed5e" stroke-width="0.3" x1="102.19456741930631" x2="102.32365962044197" y1="184.97166512339345" y2="189.96999836594603" /><path d="M 102.22038585953345 185.97133177190398 a86.0,86.0 0 0,1 -42.740103519485714,-10.115201625700543" fill="none" id="id31" stroke="none" /><text fill="#e1ed5e" style="font-size:6.75px; font-family:Arial;" text-anchor="middle"><textPath startOffset="22.20632615414155" xlink:href="#id31">July</textPath></text><path d="M 100.54218724476979 120.99299961872073 l 0.5686076434309866 22.01597355322623 a43.02331505810433,43.02331505810433 0 0,0 -0.7404933493546038,0.012748264546425072 l -0.18955460418371492 -22.022499295051816" fill="#ffa70f" stroke="none" /><path d="M 100.18074693466247 120.99922214144158 l 0.20054431134968856 23.299286104624194 a44.300149162740325,44.300149162740325 0 0,0 -0.762582492024272,0.0 l 0.2005443113496725 -23.299286104624194" fill="#ffbb11" stroke="none" /><path d="M 99.45781275523022 120.99299961872073 l -0.7679379654282689 29.733863293449758 a50.743778426291186,50.743778426291186 0 0,0 -0.8729854487881102,-0.030067383979998797 l 1.2796437658910222 -29.716239111043667" fill="#e2ff1b" stroke="none" /><path d="M 99.09653310690486 120.98055641714683 l -0.5238972710207157 12.166086367352856 a33.17736120218465,33.17736120218465 0 0,0 -0.5703534882163834,-0.02948076053109482 l 0.733238827650588 -12.155265800059558" fill="#ff0100" stroke="none" /><path d="M 98.73552117531835 120.96189622390904 l -1.6309075061317622 27.03636725821435 a48.08551298784282,48.08551298784282 0 0,0 -0.8257822214506922,-0.05695077679958676 l 2.0960524883613845 -27.00428813689848" fill="#fff517" stroke="none" /><path d="M 98.37488393609728 120.93702456842531 l -1.233195052583124 15.887748381237467 a36.93553634689555,36.93553634689555 0 0,0 -0.6334544425046787,-0.054657114736589726 l 1.5064938128293444 -15.864167014222215" fill="#ff4206" stroke="none" /><path d="M 97.65516085044442 120.86867818915974 l -5.230940886321053 46.55450332439293 a67.84746014819905,67.84746014819905 0 0,0 -1.1594568029905885,-0.14039407181276056 l 6.031525112363032 -46.457563723854825" fill="#35ff61" stroke="none" /><path d="M 97.2962882734958 120.8252237178851 l -3.6128656716653826 27.82794302274964 a49.061489825718425,49.061489825718425 0 0,0 -0.8365484181127596,-0.11593798810387716 l 4.091342680964973 -27.76163046915316" fill="#fbff18" stroke="none" /><path d="M 96.58105272829116 120.7198165907248 l -3.438121643049414 20.836018867579586 a42.11777362040178,42.11777362040178 0 0,0 -0.7142994473434979,-0.12419011486217837 l 3.796270061864962 -20.7737501741964" fill="#ff980e" stroke="none" /><path d="M 95.86986931433489 120.58985236759428 l -4.86919263132006 24.274282113209473 a45.75782318768318,45.75782318768318 0 0,0 -0.7709289785812716,-0.16155566306376679 l 5.286313071330718 -24.186870469419166" fill="#ffd113" stroke="none" /><path d="M 95.16358092515715 120.4354850818985 l -6.864047022745515 29.00289002340509 a50.80407306460297,50.80407306460297 0 0,0 -0.8492668081426098,-0.208729118882668 l 7.362267115631336 -28.880439646208394" fill="#e1ff1b" stroke="none" /><path d="M 94.81253420990036 120.34920634021253 l -5.730484176504492 22.47933955720081 a44.19825760321454,44.19825760321454 0 0,0 -0.7356054020668211,-0.19428007249930707 l 6.116580021382802 -22.37736813539792" fill="#ffb911" stroke="none" /><path d="M 93.76903079525671 120.05430185196036 l -6.774358498725558 21.803193969152737 a43.83136439912765,43.83136439912765 0 0,0 -0.7185811037219291,-0.23006697736842485 l 7.148660947538428 -21.683354145124607" fill="#ffb310" stroke="none" /><path d="M 93.08242187328487 119.8279376855182 l -14.951867508580577 42.856718321306296 a66.39005009102698,66.39005009102698 0 0,0 -1.0757731149899579,-0.3857339648612655 l 15.687360184200262 -42.59299681540507" fill="#32ff4c" stroke="none" /><path d="M 92.7421414339146 119.70592522655815 l -13.970774477955551 37.93226813569457 a61.42325451311564,61.42325451311564 0 0,0 -0.9890014994621307,-0.37395574160226064 l 14.621646198177965 -37.68616414398568" fill="#53ff2b" stroke="none" /><path d="M 92.40401165467489 119.57807347666478 l -8.790174256996599 22.655995461351758 a45.30146690661198,45.30146690661198 0 0,0 -0.7245622837294384,-0.28831828595727793 l 9.178857616767896 -22.501330330988413" fill="#ffca12" stroke="none" /><path d="M 91.7346041902142 119.30500536409082 l -8.990376152072619 20.9982998800216 a43.8419671045878,43.8419671045878 0 0,0 -0.6911985186030638,-0.30300111810353725 l 9.350495345333426 -20.84043420862361" fill="#ffb410" stroke="none" /><path d="M 91.40352486487194 119.15986991738527 l -9.595505089045545 21.386513240345977 a44.44049202754483,44.44049202754483 0 0,0 -0.6952439959472057,-0.319152418974726 l 9.96221708076017 -21.218173751037174" fill="#ffbd11" stroke="none" /><path d="M 91.07499286063937 119.00905698771935 l -8.908048296387099 18.972936947982014 a41.96009687198192,41.96009687198192 0 0,0 -0.6511554295267418,-0.3125941768231267 l 9.233316393914084 -18.816788494659328" fill="#ff960d" stroke="none" /><path d="M 90.7491055286396 118.85261126421891 l -10.237534322202857 20.863307378341226 a44.23972254054314,44.23972254054314 0 0,0 -0.6807568316274007,-0.34134560765798194 l 10.59514506151302 -20.68399392977394" fill="#ffba11" stroke="none" /><path d="M 90.42595943632237 118.69057910512821 l -13.079771163412639 25.53451659001874 a49.68957913900417,49.68957913900417 0 0,0 -0.7579059165644141,-0.3965005547007337 l 13.517367982503549 -25.30558661637329" fill="#f2ff19" stroke="none" /><path d="M 90.10565033884886 118.52300852407294 l -12.469636218177087 23.34414952690387 a47.46584864590818,47.46584864590818 0 0,0 -0.7173608369289064,-0.391162325253832 l 12.869619866974634 -23.12604654989027" fill="#ffeb16" stroke="none" /><line stroke="#e1ed5e" stroke-width="0.3" x1="58.666819895761336" x2="56.23545636021788" y1="174.27360380694188" y2="178.64263932499728" /><path d="M 58.180547188652646 175.14741091055294 a86.0,86.0 0 0,1 -31.652253787137756,-30.449443065178592" fill="none" id="id32" stroke="none" /><text fill="#e1ed5e" style="font-size:6.75px; font-family:Arial;" text-anchor="middle"><textPath startOffset="22.20632615414155" xlink:href="#id32">August</textPath></text><path d="M 89.4739219176387 118.17145234162733 l -13.498129286976623 23.302184452767865 a47.92937605141925,47.92937605141925 0 0,0 -0.7103410356554518,-0.41968200463832106 l 13.897238193660456 -23.066383875835793" fill="#fff216" stroke="none" /><path d="M 89.1626897886671 117.98757091392108 l -13.561208038940078 22.508647120185124 a47.278233552817646,47.278233552817646 0 0,0 -0.6934609202250503,-0.4259803360083163 l 13.946648159097437 -22.27187831734843" fill="#ffe915" stroke="none" /><path d="M 88.8546689885994 117.79835938074946 l -12.031751071801672 19.213913820647726 a43.67019007774479,43.67019007774479 0 0,0 -0.6336715059408913,-0.4044391362211064 l 12.360704379789487 -19.003960255602816" fill="#ffb110" stroke="none" /><path d="M 88.24862548938628 117.40417183066458 l -13.32303416203028 19.73185142319829 a44.80859508391451,44.80859508391451 0 0,0 -0.6355205502602163,-0.43711682945473984 l 13.660711596913387 -19.49959380437845" fill="#ffc312" stroke="none" /><path d="M 87.95078237400918 117.19931262002967 l -8.94637325598766 12.77024577208195 a36.59220226635186,36.59220226635186 0 0,0 -0.5127659590863514,-0.3658448970275018 l 9.1648665429229 -12.614356613210228" fill="#ff3c05" stroke="none" /><path d="M 87.36589467227662 116.77436683061367 l -11.024268050885855 14.63697757203174 a39.324180704793946,39.324180704793946 0 0,0 -0.5371894152255302,-0.4118939366631448 l 11.274586194604872 -14.445044293541226" fill="#ff6a09" stroke="none" /><path d="M 86.79598089348748 116.32954008644616 l -18.762790792181175 23.204127614705435 a50.84080857937154,50.84080857937154 0 0,0 -0.6757708744497172,-0.556113423425208 l 19.159431795175582 -22.877719072423048" fill="#e1ff1b" stroke="none" /><path d="M 86.24171649860922 115.8653595955263 l -27.011783489957423 31.148628267570874 a62.229522071686105,62.229522071686105 0 0,0 -0.8032279920237525,-0.7087553132437091 l 27.543953834887766 -30.679049812554876" fill="#49ff2c" stroke="none" /><path d="M 85.97065885151581 115.62618273729859 l -17.66960558263174 19.680787772419883 a47.44897670589172,47.44897670589172 0 0,0 -0.6030549171494867,-0.5508763685219743 l 18.00576004924808 -19.37371863731133" fill="#ffeb16" stroke="none" /><path d="M 84.9287848128048 114.62390073753433 l -20.791700740360724 20.17460198231965 a49.97083679878323,49.97083679878323 0 0,0 -0.5936855430194155,-0.622476918332334 l 21.135892834759098 -19.813717947404818" fill="#edff19" stroke="none" /><path d="M 84.67929136418377 114.36230785411682 l -14.559569542420363 13.648782504930358 a40.95671138057239,40.95671138057239 0 0,0 -0.47773778901682923,-0.5184900156185085 l 14.79235373943292 -13.396141234510505" fill="#ff850c" stroke="none" /><path d="M 84.43433777217949 114.09645910891817 l -18.407018186755618 16.669626732806538 a45.833339967443976,45.833339967443976 0 0,0 -0.524554173915918,-0.5893421751551569 l 18.691231210319877 -16.350310387910515" fill="#ffd313" stroke="none" /><path d="M 83.72743513129214 113.27417163493432 l -20.671292470747893 16.8623868693431 a47.67662691088574,47.67662691088574 0 0,0 -0.5132776837235454,-0.6403928304968851 l 20.958488066526296 -16.504066205267957" fill="#ffef16" stroke="none" /><path d="M 83.50135304334701 112.99209946851258 l -20.683372935827723 16.28742279488894 a47.32645166561568,47.32645166561568 0 0,0 -0.49848992731870373,-0.6443654281778585 l 20.960669680364497 -15.928979372597826" fill="#ffe915" stroke="none" /><path d="M 83.28015986056508 112.70617746262583 l -17.77258223133896 13.506204719498923 a43.322236561212236,43.322236561212236 0 0,0 -0.44609264561582895,-0.5976139982206738 l 18.002436143649874 -13.198277841768942" fill="#ffab0f" stroke="none" /><line stroke="#e1ed5e" stroke-width="0.3" x1="26.63291911575756" x2="22.317208475507996" y1="142.92168965132927" y2="145.44649492493687" /><path d="M 25.769776987707644 143.4266507060508 a86.0,86.0 0 0,1 -11.730757126820373,-40.83630448921669" fill="none" id="id33" stroke="none" /><text fill="#e1ed5e" style="font-size:6.75px; font-family:Arial;" text-anchor="middle"><textPath startOffset="21.46611528233685" xlink:href="#id33">September</textPath></text><path d="M 80.73074385275274 108.34839909993369 l -27.262147682442993 11.811316816548722 a50.7108044522564,50.7108044522564 0 0,0 -0.3401222404785297,-0.8039485060056251 l 27.46142090411383 -11.340293784876938" fill="#e3ff1b" stroke="none" /><path d="M 80.45479744820244 107.68017299344265 l -28.16478137858647 11.067186064548732 a51.26115525704385,51.26115525704385 0 0,0 -0.31563621949433496,-0.8240265691278373 l 28.351111877674313 -10.580735928587737" fill="#dbff1b" stroke="none" /><path d="M 80.32549172779594 107.34259656027581 l -24.98391049272097 9.324084379036982 a47.66710207382299,47.66710207382299 0 0,0 -0.2802728883002235,-0.7711906161864592 l 25.140707642026417 -8.892645965844405" fill="#ffee16" stroke="none" /><path d="M 80.20201598880116 107.00284435728193 l -22.856870446033184 8.084818440988084 a45.2446038493205,45.2446038493205 0 0,0 -0.25338953633435196,-0.7364686016004199 l 22.992650813310767 -7.690177136298367" fill="#ffca12" stroke="none" /><path d="M 79.97269907076064 106.31721596034903 l -29.55121016587143 9.32134475669267 a51.98647269923805,51.98647269923805 0 0,0 -0.2618465239723976,-0.8557295906802824 l 29.70728346234996 -8.811288193460339" fill="#d1ff1d" stroke="none" /><path d="M 79.76711848015287 105.62410040840567 l -25.477575235976435 7.081959193468553 a47.44354336927624,47.44354336927624 0 0,0 -0.21194143183972547,-0.7887129120235179 l 25.595704744157935 -6.642355348269496" fill="#ffeb16" stroke="none" /><path d="M 79.67330655649465 105.27499134158121 l -46.92393276869364 12.177255477175747 a69.4782530361531,69.4782530361531 0 0,0 -0.29044783424377335,-1.1601947193848823 l 47.126591917232474 -11.367732918393473" fill="#37ff78" stroke="none" /><path d="M 79.50377843672027 104.57218783832718 l -17.64774095348471 3.936763969512814 a39.08150633417901,39.08150633417901 0 0,0 -0.1408161783272625,-0.6578463050253305 l 17.712891170536412 -3.6324038450713196" fill="#ff6609" stroke="none" /><path d="M 79.4281124754447 104.21870165774334 l -22.1721712723488 4.546873765996307 a43.63358654686161,43.63358654686161 0 0,0 -0.1445519781227248,-0.7370674222043577 l 22.24715318344719 -4.1645426167239945" fill="#ffb010" stroke="none" /><path d="M 79.18660465613746 102.79330883721812 l -48.12470052583133 6.458684373519105 a69.55616752316527,69.55616752316527 0 0,0 -0.14904393148170644,-1.188026779541435 l 48.22874596655988 -5.629339839690261" fill="#37ff79" stroke="none" /><path d="M 79.1416061653843 102.43462659150553 l -24.968318635911043 2.9143438837217714 a46.137826791052746,46.137826791052746 0 0,0 -0.08528401189389412,-0.7896240309022475 l 25.01478494930599 -2.484123530934742" fill="#ffd714" stroke="none" /><path d="M 79.0235259727143 100.99374915477108 l -17.73737273412402 0.8402984762580779 a38.75726592238929,38.75726592238929 0 0,0 -0.02583424092534692,-0.6666669664140984 l 17.749209107900565 -0.5348542628299827" fill="#ff6109" stroke="none" /><path d="M 79.0095281055655 100.63252640178507 l -22.264264093412024 0.6709108268848647 a43.27437040544193,43.27437040544193 0 0,0 -0.01602787335044266,-0.744752294276046 l 22.27251402944747 -0.28756871681868984" fill="#ffab0f" stroke="none" /><line stroke="#e1ed5e" stroke-width="0.3" x1="15.007084014347285" x2="10.007500721073583" y1="101.09737516637583" y2="101.16192664675087" /><path d="M 14.007167355692545 101.11028546245083 a86.0,86.0 0 0,1 10.666146001902534,-42.60595125391555" fill="none" id="id34" stroke="none" /><text fill="#e1ed5e" style="font-size:6.75px; font-family:Arial;" text-anchor="middle"><textPath startOffset="22.20632615414155" xlink:href="#id34">October</textPath></text><path d="M 79.00175016825051 100.2711162175752 l -33.30914251322213 0.4300667341905713 a54.31191877334596,54.31191877334596 0 0,0 -0.004023485678475547,-0.9349163741493538 l 33.3116102961901 0.14335911816245783" fill="#b0ff20" stroke="none" /><path d="M 79.00486145842228 99.54816195383935 l -48.6122230655274 -1.0461875184083889 a69.62347930471726,69.62347930471726 0 0,0 0.03609912932051591,-1.1979543577586877 l 48.587012241751246 1.882812023592071" fill="#37ff7a" stroke="none" /><path d="M 79.01574976396665 99.18683210126434 l -22.08012582317066 -0.8556345505552138 a43.09669809838456,43.09669809838456 0 0,0 0.03510614292921873,-0.7410351916451404 l 22.062126072007946 1.2355808488233633" fill="#ffa80f" stroke="none" /><path d="M 79.05617556472873 98.46500227214037 l -33.33024118644109 -2.4428128992544234 a54.4196396211434,54.4196396211434 0 0,0 0.07651275953196225,-0.9336494660031494 l 33.28325394308963 3.016176282465351" fill="#afff20" stroke="none" /><path d="M 79.12142395522702 97.74499172005258 l -16.475442167369064 -1.7794440781565344 a37.571258728220045,37.571258728220045 0 0,0 0.0749808662147872,-0.642390271684957 l 16.44237094815069 2.062778088166353" fill="#ff4d07" stroke="none" /><path d="M 79.26566170972629 96.67025291283419 l -23.99812297835631 -3.8538813713728586 a45.30560240168772,45.30560240168772 0 0,0 0.13028195198775402,-0.7689314554701934 l 23.928229164848332 4.26639861515888" fill="#ffca12" stroke="none" /><path d="M 79.32604984820605 96.31383870115002 l -21.76379893108879 -3.8804811246374595 a43.10703683607392,43.10703683607392 0 0,0 0.13653492140678028,-0.7293750096897849 l 21.693778285772147 4.254534211789817" fill="#ffa80f" stroke="none" /><path d="M 79.46518482838121 95.60439243477599 l -23.81610682247002 -5.097988876360542 a45.355624294252834,45.355624294252834 0 0,0 0.16998772442783075,-0.7620216373667916 l 23.724824711040153 5.507188683277294" fill="#ffcb12" stroke="none" /><path d="M 79.54389044137918 95.25157060432595 l -27.985873160238114 -6.496296003737259 a49.72996620793538,49.72996620793538 0 0,0 0.2007366656462376,-0.8321830740260779 l 27.86990369433106 6.977064309422733" fill="#f1ff19" stroke="none" /><path d="M 79.62865764111835 94.90015583598534 l -17.196491542381686 -4.305039181461045 a38.72717359651898,38.72717359651898 0 0,0 0.16745568661234786,-0.6452750699910311 l 17.11983952389903 4.60041067700094" fill="#ff6108" stroke="none" /><path d="M 79.71946130924805 94.55025226153421 l -27.68755305265783 -7.440146533246691 a49.66978155619475,49.66978155619475 0 0,0 0.2289853313199345,-0.823782070365377 l 27.555380950771532 7.91563990703101" fill="#f2ff19" stroke="none" /><path d="M 79.81627453868168 94.20196356495316 l -18.137766476235388 -5.210308229822464 a39.871297904389195,39.871297904389195 0 0,0 0.19516829995588408,-0.6580104840921709 l 18.045392279167796 5.521748100661173" fill="#ff740a" stroke="none" /><path d="M 79.91906864156998 93.8553929516997 l -31.657154069359226 -9.68684014459584 a54.106045909442294,54.106045909442294 0 0,0 0.2801778946494122,-0.8882404915526194 l 31.48572069094161 10.230330802574874" fill="#b3ff20" stroke="none" /><path d="M 80.02781315780177 93.51064311812611 l -12.871161043433872 -4.1820937363973485 a34.533539619257915,34.533539619257915 0 0,0 0.18855757658970615,-0.5637631539418687 l 12.797266173072394 4.40302999326154" fill="#ff1902" stroke="none" /><path d="M 80.2630227832202 92.82701384747504 l -43.787318225818694 -15.913572977273063 a67.58938765762123,67.58938765762123 0 0,0 0.40680897456704995,-1.0900457991424242 l 43.50690466275002 16.664941913444828" fill="#34ff5d" stroke="none" /><path d="M 80.38941819471856 92.48833698450439 l -22.700722013596305 -8.695314380150354 a45.30907797733648,45.30907797733648 0 0,0 0.28524535035796683,-0.7259183034633481 l 22.547683113356648 9.084781688509466" fill="#ffcb12" stroke="none" /><path d="M 80.65960295795068 91.81776055985345 l -20.349674922846773 -8.609229292752659 a43.09588419775795,43.09588419775795 0 0,0 0.29491804413151557,-0.6807115072949128 l 20.198466168872578 8.95823994463417" fill="#ffa80f" stroke="none" /><path d="M 80.803312248108 91.48605970444005 l -24.22037959020015 -10.742002392909617 a47.495611012065,47.495611012065 0 0,0 0.337892106648211,-0.7445004677033319 l 24.031885166588587 11.157324869455019" fill="#ffec16" stroke="none" /><path d="M 81.10775173730289 90.83032412892265 l -23.830886842833774 -11.56672858786107 a47.48962774259371,47.48962774259371 0 0,0 0.3632730088294049,-0.7323362185806038 l 23.628253821050954 11.975224394940636" fill="#ffec16" stroke="none" /><path d="M 81.26839172434947 90.50648371742162 l -19.75434339002609 -10.011856849934276 a43.14658800706428,43.14658800706428 0 0,0 0.34145504371909713,-0.6595824615077477 l 19.57907891314688 10.350412033702359" fill="#ffa90f" stroke="none" /><path d="M 81.6062741919709 89.86733742301443 l -37.83763316606485 -20.84384499284728 a64.19898560956652,64.19898560956652 0 0,0 0.5415409398815197,-0.9633409052873274 l 37.473234584890896 21.49206940806939" fill="#32ff2f" stroke="none" /><line stroke="#e1ed5e" stroke-width="0.3" x1="26.266209847984243" x2="21.928928074336255" y1="57.711370442889674" y2="55.22380399835377" /><path d="M 25.398753493254645 57.213857153982495 a86.0,86.0 0 0,1 29.58750427330803,-30.492523968695096" fill="none" id="id35" stroke="none" /><text fill="#e1ed5e" style="font-size:6.75px; font-family:Arial;" text-anchor="middle"><textPath startOffset="21.46611528233685" xlink:href="#id35">November</textPath></text><path d="M 82.15384107792192 88.93136811851018 l -10.771792289871563 -6.680933644099539 a33.67542439104102,33.67542439104102 0 0,0 0.30976965128832057,-0.4899811969954602 l 10.65519504233728 6.865362488809215" fill="#ff0901" stroke="none" /><path d="M 82.34701348167596 88.62581576622439 l -37.609366194269896 -24.232492307469933 a65.74011744470818,65.74011744470818 0 0,0 0.6210981187140754,-0.9459750458941649 l 37.1866714401979 24.876285417341766" fill="#31ff43" stroke="none" /><path d="M 82.95767976084542 87.72973835380427 l -19.70520174393216 -14.187503684716258 a45.28127337214637,45.28127337214637 0 0,0 0.4608714796485021,-0.6286281803027761 l 19.458067651770026 14.524594308690535" fill="#ffca12" stroke="none" /><path d="M 83.17141714833178 87.43820079747576 l -18.19211016516701 -13.579612554385362 a43.701514253212125,43.701514253212125 0 0,0 0.4551701245626918,-0.5989505294822266 l 17.955664100380208 13.890747859748615" fill="#ffb110" stroke="none" /><path d="M 83.39014120810768 87.1503855733568 l -17.515164316275335 -13.549971188996299 a43.14458625146911,43.14458625146911 0 0,0 0.4594814599810726,-0.5834947931031426 l 17.279328775700293 13.849458376052489" fill="#ffa90f" stroke="none" /><path d="M 84.07557802195018 86.31012108654704 l -32.40347693695584 -27.856563726661346 a63.73141069823665,63.73141069823665 0 0,0 0.7223140138972567,-0.8257297824872152 l 31.91917105948074 28.410209065351502" fill="#37ff2e" stroke="none" /><path d="M 84.31358615837235 86.03803664274999 l -17.532495786358577 -15.605100452002295 a44.47142025135598,44.47142025135598 0 0,0 0.5138701397537111,-0.5674282429769074 l 17.26128200598882 15.904581482248759" fill="#ffbe11" stroke="none" /><path d="M 85.05521093208273 85.24692304244772 l -16.124170376483818 -15.91732913458256 a43.65723365966174,43.65723365966174 0 0,0 0.5325438251112329,-0.530256912684335 l 15.84779075120527 16.192521897917004" fill="#ffb110" stroke="none" /><path d="M 85.31137513191541 84.99185889309783 l -18.16322991097942 -18.55832795167791 a46.96756548390948,46.96756548390948 0 0,0 0.5826589435851905,-0.5605174420888713 l 17.841087723781804 18.868228480529094" fill="#ffe415" stroke="none" /><path d="M 85.83668400450813 84.49514656593479 l -42.48994798647562 -46.514560302195655 a84.0,84.0 0 0,0 1.0759560496161145,-0.9660039649228849 l 41.68298094926353 47.23906327588782" fill="#4dd2ff" stroke="none" /><path d="M 86.10567301691215 84.25364557470407 l -27.114227605778698 -30.728385647496133 a61.980666455771775,61.980666455771775 0 0,0 0.8060621130036751,-0.6990091213288234 l 26.58127169412825 31.190559762244636" fill="#4dff2c" stroke="none" /><path d="M 86.37877921826538 84.01681056812374 l -14.827318242302661 -17.398428527876657 a43.85945496940278,43.85945496940278 0 0,0 0.5788246370405369,-0.4847489874160281 l 14.525636068303013 17.6510786726865" fill="#ffb410" stroke="none" /><path d="M 86.65592168130627 83.78471172551755 l -25.348370146540315 -30.80251175074582 a60.89153543348326,60.89153543348326 0 0,0 0.8150668412638782,-0.6590607015359841 l 24.814399906711937 31.234278549545937" fill="#5aff2a" stroke="none" /><path d="M 87.22198572758235 83.33499621200491 l -19.210776505882404 -25.054570797586383 a52.57190922022664,52.57190922022664 0 0,0 0.7228733805526287,-0.5444532434954052 l 18.776656971571388 25.381540630587644" fill="#c8ff1d" stroke="none" /><path d="M 87.51073957382395 83.11751280151077 l -20.037760102629388 -27.086249855918457 a54.69238432031442,54.69238432031442 0 0,0 0.7616687597264259,-0.5533847461943469 l 19.56854602654918 27.427153836929474" fill="#abff21" stroke="none" /><path d="M 87.80319425747018 82.90503203632743 l -22.986176692212997 -32.21728397218813 a60.576731869499355,60.576731869499355 0 0,0 0.8540420939213734,-0.5983110650266047 l 22.428203458707962 32.60817987997867" fill="#5eff2a" stroke="none" /><path d="M 88.09926311788651 82.69761687909137 l -12.553178025613551 -18.25096191401249 a43.15129543231008,43.15129543231008 0 0,0 0.6156155019903159,-0.4156663349922542 l 12.237157829216695 18.464340161303408" fill="#ffa90f" stroke="none" /><path d="M 88.70189139769569 82.29822771554957 l -15.211265516027835 -23.832870421171172 a49.27345594566454,49.27345594566454 0 0,0 0.718878247532461,-0.45016149265481187 l 14.798768116123131 24.091176255148913" fill="#f8ff18" stroke="none" /><path d="M 89.00827224532344 82.1063720568725 l -13.828977512696317 -22.51243698614933 a47.42064416516003,47.42064416516003 0 0,0 0.6992014418061068,-0.42126104526985464 l 13.439414004672562 22.747144640877803" fill="#ffeb16" stroke="none" /><line stroke="#e1ed5e" stroke-width="0.3" x1="56.762969772571076" x2="54.21961505331055" y1="26.818313649435495" y2="22.513508569990535" /><path d="M 56.25429882871897 25.957352633546506 a86.0,86.0 0 0,1 42.265352541879196,-11.944610805530505" fill="none" id="id36" stroke="none" /><text fill="#e1ed5e" style="font-size:6.75px; font-family:Arial;" text-anchor="middle"><textPath startOffset="22.20632615414155" xlink:href="#id36">December</textPath></text><path d="M 89.3179101791058 81.91981866633112 l -11.243540073384622 -19.03047500701033 a43.10375923625325,43.10375923625325 0 0,0 0.6420474634346739,-0.37191533211759253 l 10.914295877484628 19.22119449651797" fill="#ffa80f" stroke="none" /><path d="M 89.94658935756843 81.56283822128135 l -24.916074904476087 -45.69411518570864 a73.04577745840936,73.04577745840936 0 0,0 1.1090956177526134,-0.5924404685898136 l 24.125834240195168 46.1162343808002" fill="#3cffa8" stroke="none" /><path d="M 90.26544431104013 81.39251694778311 l -12.335897285170818 -23.57991540672263 a47.61177882852779,47.61177882852779 0 0,0 0.7294566907296264,-0.373656049243295 l 11.928180106852428 23.78876398127843" fill="#ffee16" stroke="none" /><path d="M 90.91171255644093 81.06846463323043 l -10.742179792442249 -22.376708254418674 a45.821593401643725,45.821593401643725 0 0,0 0.713991607332758,-0.3352286332249546 l 10.355409973809882 22.558301870283636" fill="#ffd213" stroke="none" /><path d="M 91.56875222667455 80.76684994638697 l -12.423086291629222 -28.339231534841623 a51.94261005465809,51.94261005465809 0 0,0 0.8219701420917775,-0.35192471797246105 l 11.933432391747136 28.54887578077687" fill="#d1ff1c" stroke="none" /><path d="M 91.90106846888425 80.62456947434976 l -10.22502173666234 -24.461769743430754 a47.51281291179496,47.51281291179496 0 0,0 0.7573002325146305,-0.3089217795191422 l 9.802437634559329 24.634152409133474" fill="#ffec16" stroke="none" /><path d="M 92.57280143429618 80.3572730644239 l -16.502838716906567 -43.64509063685318 a67.66087892887745,67.66087892887745 0 0,0 1.092941237449408,-0.4025394814631432 l 15.749115153684588 43.922693386122646" fill="#34ff5e" stroke="none" /><path d="M 93.59665428221793 80.00007090966166 l -5.398087071878672 -16.860148337959814 a38.703218521319585,38.703218521319585 0 0,0 0.6362341503205982,-0.19768104753375665 l 5.107067548847346 16.950569520376096" fill="#ff6008" stroke="none" /><path d="M 93.94186890950719 79.89281104454417 l -10.31931102875074 -34.25022232860457 a56.77102052873163,56.77102052873163 0 0,0 0.9380999749187783,-0.2738571070738747 l 9.72822083610854 34.42277776459714" fill="#8fff24" stroke="none" /><path d="M 94.63758080256005 79.69619591428918 l -8.515857272760833 -32.24371152679693 a54.34931420754152,54.34931420754152 0 0,0 0.9065753177603747,-0.23110623423859492 l 7.95957306631546 32.38552075720438" fill="#b0ff20" stroke="none" /><path d="M 94.98787191387505 79.60689891045804 l -6.852666118325509 -27.88179202178661 a49.71155445592262,49.71155445592262 0 0,0 0.8327308258031272,-0.19708048201367898 l 6.371711605559848 27.99561841594116" fill="#f1ff19" stroke="none" /><path d="M 95.33964822691252 79.52364482259891 l -6.386503087647179 -28.06060828270817 a49.778206318047644,49.778206318047644 0 0,0 0.8371207495145571,-0.1829621722262976 l 5.9025396139791 28.166383953030337" fill="#f0ff19" stroke="none" /><path d="M 96.04723909329186 79.375362276772 l -5.052535055291916 -26.363017536036324 a47.84281661991365,47.84281661991365 0 0,0 0.8101494766771846,-0.14804963851762318 l 4.5979904575118375 26.446082655904682" fill="#fff116" stroke="none" /></svg>