<?xml version="1.0" encoding="utf-8" ?>
<svg baseProfile="full" height="200mm" version="1.1" viewBox="0,0,200,200" width="200mm" xmlns="http://www.w3.org/2000/svg" xmlns:ev="http://www.w3.org/2001/xml-events" xmlns:xlink="http://www.w3.org/1999/xlink"><defs /><rect fill="#1a1a1a" height="200" width="200" x="0" y="0" /><rect fill="#1a1a1a" height="200" width="180" x="10" y="0" /><text alignment-baseline="middle" fill="#e1ed5e" style="dominant-baseline: central; font-size:9.0px; font-family:Arial;" text-anchor="middle" x="100.0" y="100.0">2024</text><line stroke="#e1ed5e" stroke-width="0.3" x1="100.0" x2="100.0" y1="15.0" y2="10.0" /><path d="M 100.0 14.0 a86.0,86.0 0 0,1 42.35913384403234,11.155469271406648" fill="none" id="id49" stroke="none" /><text fill="#e1ed5e" style="font-size:6.75px; font-family:Arial;" text-anchor="middle"><textPath startOffset="22.145653131862478" xlink:href="#id49">January</textPath></text><path d="M 100.0 79.0 l 0.0 -20.078380444841144 a41.078380444841144,41.078380444841144 0 0,0 0.7051650245054659,0.006052993632325085 l -0.34467209965661116 20.075421849403256" fill="#ffea16" stroke="none" /><path d="M 101.44090949804482 79.04949213459386 l 1.2275441596599164 -17.848222672544683 a38.89038616779004,38.89038616779004 0 0,0 0.6656385997080062,0.05152463741012367 l -1.533751754143156 17.824520268139505" fill="#ffcd13" stroke="none" /><path d="M 101.80034050326958 79.07731436759882 l 1.9934396367296918 -23.166790265906734 a44.25239714115076,44.25239714115076 0 0,0 0.7562954597723244,0.0716219663578639 l -2.3908346598870294 23.129156544043685" fill="#ecff1a" stroke="none" /><path d="M 102.15924093988457 79.11130261209362 l 1.5410056458508046 -14.907831735977322 a35.98726611056055,35.98726611056055 0 0,0 0.613949783188199,0.06879435378293876 l -1.7966913306398002 14.879181621687414" fill="#ffa60f" stroke="none" /><path d="M 103.23170211078529 79.25015418208739 l 2.5135981846175697 -16.139103478917377 a37.333671875512735,37.333671875512735 0 0,0 0.632401284750226,0.10406139074873744 l -2.790276972420866 16.093576089672972" fill="#ffb911" stroke="none" /><path d="M 104.64783097203109 79.52079915486377 l 5.063460272672353 -22.310540232514274 a43.877911517434654,43.877911517434654 0 0,0 0.7331118244054378,0.1730123943996762 l -5.445704250817676 22.22033169446837" fill="#f1ff19" stroke="none" /><path d="M 105.69591212413111 79.78721728523813 l 7.343069492878434 -26.057963129406584 a48.07282977508548,48.07282977508548 0 0,0 0.7923775572918726,0.2306495586934108 l -7.789307062551911 25.928069876410657" fill="#beff1f" stroke="none" /><path d="M 106.38641147887787 79.99465700312896 l 6.970414287259658 -21.83472347626136 a43.920336485768104,43.920336485768104 0 0,0 0.7162722191064683,0.23545290539433084 l -7.344209244013869 21.711849649465005" fill="#f0ff19" stroke="none" /><path d="M 106.72888874123014 80.10723608172694 l 9.809554140408888 -29.000203772576846 a51.61436217340798,51.61436217340798 0 0,0 0.8368758285534934,0.2911088551328998 l -10.305935741007401 28.827536484875356" fill="#95ff23" stroke="none" /><path d="M 107.06938296918511 80.22567764915836 l 4.999807340119229 -13.985350979934 a35.852209110777125,35.852209110777125 0 0,0 0.5777512619167527,0.21215826606466853 l -5.239147753690107 13.89746186486061" fill="#ffa50f" stroke="none" /><path d="M 107.74402155503746 80.48000691201159 l 6.163276820805673 -15.53548373883676 a37.71338494050627,37.71338494050627 0 0,0 0.599724602585225,0.24390277487863382 l -6.429055884581338 15.427393707378831" fill="#ffbe11" stroke="none" /><path d="M 109.06512990194946 81.05736502329252 l 10.234353541022893 -21.38586269000729 a44.708587376697366,44.708587376697366 0 0,0 0.6894484662816557,0.33724379356158796 l -10.599962256566617 21.20702514634848" fill="#e6ff1a" stroke="none" /><path d="M 109.3889696526874 81.21577127319529 l 7.400408146175786 -14.805773629237992 a37.552249801468804,37.552249801468804 0 0,0 0.5741431035553951,0.29316155960696244 l -7.6534784714447595 14.676554117958196" fill="#ffbc11" stroke="none" /><path d="M 110.02825361518725 81.54914285379988 l 7.75292920771508 -14.264516511580297 a37.23528079858764,37.23528079858764 0 0,0 0.5589827941616341,0.3100583331560561 l -7.996656190032814 14.129325262991093" fill="#ffb711" stroke="none" /><line stroke="#e1ed5e" stroke-width="0.3" x1="143.13028292997686" x2="145.6673583964461" y1="26.7553504044142" y2="22.446841604673864" /><path d="M 143.63769802327073 25.89364864446614 a86.0,86.0 0 0,1 29.32050498858742,28.57503671076993" fill="none" id="id50" stroke="none" /><text fill="#e1ed5e" style="font-size:6.75px; font-family:Arial;" text-anchor="middle"><textPath startOffset="20.669276256404974" xlink:href="#id50">February</textPath></text><path d="M 110.96478420261332 82.08984904055464 l 9.021873351425322 -14.73655209944883 a38.27889367259745,38.27889367259745 0 0,0 0.5574789902535618,0.34790812088607254 l -9.273516470468596 14.579508181721211" fill="#ffc512" stroke="none" /><path d="M 111.27062007382361 82.28071324371311 l 17.44213845993662 -27.42193872121417 a53.49909102245208,53.49909102245208 0 0,0 0.770678271213424,0.4995443443298231 l -17.91030236340705 27.11848053518045" fill="#7fff26" stroke="none" /><path d="M 111.8722381534696 82.67804972795209 l 17.56259097080406 -25.624345090793124 a52.06528066732734,52.06528066732734 0 0,0 0.7328929783179932,0.5116162182030529 l -17.999879040295813 25.319084056784945" fill="#8fff24" stroke="none" /><path d="M 112.45986205192187 83.09580414077388 l 10.619506071150445 -14.407399520709681 a38.89824209648944,38.89824209648944 0 0,0 0.5341043735784827,0.40080187916943955 l -10.865263433639694 14.222978614276228" fill="#ffcd13" stroke="none" /><path d="M 113.03279911837588 83.53348406188908 l 9.937579129985124 -12.55580659563873 a37.012612473665904,37.012612473665904 0 0,0 0.4948220209105245,0.3985935934325202 l -10.151651921250908 12.3833647084128" fill="#ffb410" stroke="none" /><path d="M 113.31354834802062 83.75963576809568 l 10.115534008116164 -12.339306727078942 a36.955642223811935,36.955642223811935 0 0,0 0.48715572690864817,0.40640263368101925 l -10.325864069186704 12.163841909486052" fill="#ffb410" stroke="none" /><path d="M 113.86319453409587 84.22622945171908 l 16.087277742354495 -18.30436896995589 a45.36904652521182,45.36904652521182 0 0,0 0.5805833095715155,0.5191611754731901 l -16.399126078749386 18.02551226459931" fill="#deff1b" stroke="none" /><path d="M 114.13192950727249 84.46653392183569 l 12.863765376618977 -14.139531548918761 a40.11551234174931,40.11551234174931 0 0,0 0.5053985844816228,0.4677893846334334 l -13.104593732414566 13.916624418152953" fill="#ffdd14" stroke="none" /><path d="M 114.39649973595853 84.71141617570332 l 23.87153779560859 -25.350745896341234 a55.821123391241,55.821123391241 0 0,0 0.6919892518403548,0.662910049832902 l -24.303199533314256 24.93722371620275" fill="#66ff29" stroke="none" /><path d="M 114.65682725009322 84.96080404539774 l 16.63598738303574 -17.06998860549265 a44.835699847081756,44.835699847081756 0 0,0 0.5465857822609873,0.541914136979866 l -16.926565085426688 16.781894458284125" fill="#e5ff1a" stroke="none" /><path d="M 115.41159269507618 85.73525988315684 l 9.920988017397042 -9.182718397151639 a34.51844371230368,34.51844371230368 0 0,0 0.3987739908554814,0.4383224708713781 l -10.077159709094401 9.011058350722589" fill="#ff920d" stroke="none" /><path d="M 115.8921839302757 86.27271002978787 l 13.783921606675504 -11.906223188182302 a39.21413312419193,39.21413312419193 0 0,0 0.43566049739189566,0.5132069704749176 l -13.986276667574511 11.667849435257832" fill="#ffd213" stroke="none" /><path d="M 116.57777611688842 87.10902102172516 l 18.97832796135346 -14.757662612138896 a45.040913834178866,45.040913834178866 0 0,0 0.46938642527452834,0.6144418981910328 l -19.228866363982295 14.429699800706981" fill="#e2ff1b" stroke="none" /><path d="M 116.7966241395341 87.39550010848427 l 18.638148370365307 -13.986414005620526 a44.302367935734964,44.302367935734964 0 0,0 0.4512470013860944,0.6122032218761515 l -18.875497391335227 13.6644044744755" fill="#ebff1a" stroke="none" /><path d="M 117.21940702142032 87.97951657250589 l 15.193164228278668 -10.606008591935598 a39.528887109582655,39.528887109582655 0 0,0 0.3836377564381594,0.5597389517965325 l -15.372991721532152 10.343634905069019" fill="#ffd614" stroke="none" /><path d="M 117.42321728460499 88.27688183743584 l 18.896765348991725 -12.714587062644227 a43.7760502464412,43.7760502464412 0 0,0 0.4141538735498223,0.6270817505223772 l -19.11224366146227 12.388325433782791" fill="#f2ff19" stroke="none" /><path d="M 117.62189284568427 88.57770195909679 l 10.778616762543761 -6.986569161927593 a33.84487166024585,33.84487166024585 0 0,0 0.31182780454523173,0.4902451019667686 l -10.896962258714883 6.800510385282153" fill="#ff890c" stroke="none" /><path d="M 117.81537515405839 88.88188828441811 l 12.147373986372632 -7.580859783392113 a35.31880336551398,35.31880336551398 0 0,0 0.3165776309757182,0.5171057684662244 l -12.275719581803752 7.371216898801334" fill="#ff9d0e" stroke="none" /><line stroke="#e1ed5e" stroke-width="0.3" x1="172.87174338648825" x2="177.1583165268699" y1="56.24261187166439" y2="53.66864786411523" /><path d="M 173.72905801456457 55.72781907015455 a86.0,86.0 0 0,1 12.242430191666344,42.057860355516425" fill="none" id="id51" stroke="none" /><text fill="#e1ed5e" style="font-size:6.75px; font-family:Arial;" text-anchor="middle"><textPath startOffset="22.145653131862474" xlink:href="#id51">March</textPath></text><path d="M 118.36410011445183 89.81374322990088 l 27.888442240180936 -15.469248795534625 a52.8914231241263,52.8914231241263 0 0,0 0.433595450299096,0.7977667916769811 l -28.14988304009537 14.988227170383041" fill="#86ff25" stroke="none" /><path d="M 118.70294669586156 90.45014215332178 l 27.087439842467223 -13.831039789214016 a51.41425749332214,51.41425749332214 0 0,0 0.39461688023465546,0.7894981038376464 l -27.320876635913613 13.36400982921262" fill="#97ff23" stroke="none" /><path d="M 119.16976305983485 91.42560881287824 l 27.47883572544369 -12.290933703311032 a51.102383030668975,51.102383030668975 0 0,0 0.35130726941997764,0.8038597828510927 l -27.685776876880638 11.81741185068409" fill="#9aff22" stroke="none" /><path d="M 119.31412917781788 91.75594674310238 l 21.07238398466311 -8.994547681646297 a43.91172745112195,43.91172745112195 0 0,0 0.289972462820403,0.6958283500004002 l -21.223682292019994 8.63148682220462" fill="#f0ff19" stroke="none" /><path d="M 119.83427380445688 93.10060997987247 l 14.275200404648071 -4.965655721915969 a36.114201379545705,36.114201379545705 0 0,0 0.19865317845756844,0.5872828237532276 l -14.358339004678005 4.719871223688579" fill="#ffa80f" stroke="none" /><path d="M 119.94978838288452 93.4421083053983 l 20.125820108421514 -6.615756819220045 a42.18529851872756,42.18529851872756 0 0,0 0.22023796157723563,0.6898922778239955 l -20.236422785776007 6.269295507704663" fill="#fff817" stroke="none" /><path d="M 120.26092885502905 94.47779374421319 l 21.530348708870278 -5.86819228181059 a43.31572531157913,43.31572531157913 0 0,0 0.1893732966750365,0.7190812528975771 l -21.627911486350044 5.497730524540214" fill="#f8ff18" stroke="none" /><path d="M 120.35273937422433 94.82641323984039 l 21.753682200129948 -5.5297009481605155 a43.445495802952045,43.445495802952045 0 0,0 0.17753168840844782,0.7243898715436722 l -21.84540141505469 5.155455252008748" fill="#f6ff19" stroke="none" /><path d="M 120.51834098615036 95.52812308129327 l 28.89066355402555 -6.296585654784375 a50.56885915113968,50.56885915113968 0 0,0 0.17757444927643842,0.8497580224620342 l -28.994495714126355 5.799711181036935" fill="#a0ff22" stroke="none" /><path d="M 120.65975698304385 96.23510406497455 l 14.620333000796604 -2.664311701662032 a35.86111348108867,35.86111348108867 0 0,0 0.10516729612688296,0.606577016938474 l -14.663915114415722 2.4129416518029654" fill="#ffa50f" stroke="none" /><path d="M 120.7213421655516 96.59031103205396 l 25.321870119602877 -4.166704092078975 a46.66239523787647,46.66239523787647 0 0,0 0.12327428862151935,0.7915093639579825 l -25.38966590036266 3.7314065461895516" fill="#cfff1d" stroke="none" /><path d="M 120.82617615685814 97.30363454192243 l 16.344405729387177 -2.1161105480715987 a37.48082287079393,37.48082287079393 0 0,0 0.07713537951175227,0.6387915952176526 l -16.378323195158593 1.8352252759305334" fill="#ffbb11" stroke="none" /><path d="M 120.9064616781168 98.02013634271609 l 23.171289320566725 -2.1943451897563446 a44.27496078598665,44.27496078598665 0 0,0 0.06516088776640162,0.7572682877425867 l -23.205543831030866 1.7962558546380958" fill="#ecff1a" stroke="none" /><path d="M 120.93736805541906 98.37931529534042 l 14.449605424464098 -1.1184908455451186 a35.492829906345776,35.492829906345776 0 0,0 0.041807238996432045,0.607868079580427 l -14.466676624625597 0.8702793418103574" fill="#ffa00e" stroke="none" /><path d="M 120.98066250479742 99.09900007780936 l 31.156529607695045 -1.3379954396504274 a52.18524601460927,52.18524601460927 0 0,0 0.030752797789393962,0.8953341533925688 l -31.174907092481288 0.8029550216937387" fill="#8eff24" stroke="none" /><path d="M 120.99303781780057 99.45929381324524 l 18.091741349289972 -0.4659790813330187 a39.09774133846123,39.09774133846123 0 0,0 0.011521859362415721,0.6710905449567655 l -18.097074640251055 0.15534162040718685" fill="#ffd013" stroke="none" /><line stroke="#e1ed5e" stroke-width="0.3" x1="184.99686870605535" x2="189.99668451229388" y1="99.2704041080226" y2="99.22748670261217" /><path d="M 185.99683186730306 99.26182062694052 a86.0,86.0 0 0,1 -10.086455211305974,41.156179273409016" fill="none" id="id52" stroke="none" /><text fill="#e1ed5e" style="font-size:6.75px; font-family:Arial;" text-anchor="middle"><textPath startOffset="21.40746469413373" xlink:href="#id52">April</textPath></text><path d="M 120.99303781780057 100.54070618675476 l 17.77433124208898 0.45780372290267884 a38.7802259645991,38.7802259645991 0 0,0 -0.022853211173569584,0.6653463082777749 l -17.763853343918566 -0.7628562957445644" fill="#ffcc13" stroke="none" /><path d="M 120.98066250479742 100.90099992219065 l 21.171234319973994 0.9091838959143793 a42.19074746175403,42.19074746175403 0 0,0 -0.03728539107282361,0.7233266259405027 l -21.1525073394446 -1.2724823152316127" fill="#fff817" stroke="none" /><path d="M 120.96210409425399 101.26102812881392 l 22.980313636677693 1.3824386032297218 a44.021858120746344,44.021858120746344 0 0,0 -0.05185363771717774,0.7539405120986161 l -22.953196037795447 -1.7767225394826813" fill="#efff19" stroke="none" /><path d="M 120.93736805541906 101.62068470465957 l 31.249284329197977 2.418892241366556 a52.3427632917457,52.3427632917457 0 0,0 -0.07703453292083502,0.8952580426949099 l -31.2031561735794 -2.9549713314371235" fill="#8cff24" stroke="none" /><path d="M 120.86939407059847 102.33845913500097 l 11.489468402192609 1.2874188992034281 a32.561372392022,32.561372392022 0 0,0 -0.06701117063358934,0.5549486222455348 l -11.465675145299356 -1.4844611983723714" fill="#ff770b" stroke="none" /><path d="M 120.7213421655516 103.40968896794604 l 14.573750777472116 2.398105144470444 a35.76973662621662,35.76973662621662 0 0,0 -0.10489932182763148,0.6050314123917983 l -14.53043663815225 -2.6479295897828306" fill="#ffa30f" stroke="none" /><path d="M 120.51834098615036 104.47187691870673 l 30.688966289611606 6.68851736610267 a52.40937625107469,52.40937625107469 0 0,0 -0.19912852273207005,0.8773970128357019 l -30.569626905321876 -7.214348712877389" fill="#8cff24" stroke="none" /><path d="M 120.43855184770803 104.8234425847677 l 10.542712634697466 2.4880514754704044 a31.83232153522042,31.83232153522042 0 0,0 -0.1300766784602784,0.5307572368933137 l -10.498448429720892 -2.6686645369718174" fill="#ff6d0a" stroke="none" /><path d="M 120.26092885502905 105.52220625578681 l 17.362393040149904 4.7321974302252485 a38.995732399635095,38.995732399635095 0 0,0 -0.18157435793773752,0.6443433402034332 l -17.27860019013759 -5.02954869433169" fill="#ffcf13" stroke="none" /><path d="M 119.83427380445688 106.89939002012753 l 29.75825871694659 10.351467123638226 a52.50725049058535,52.50725049058535 0 0,0 -0.3034414757617865,0.8487798132430685 l -29.576177071140858 -10.860781893262217" fill="#8aff24" stroke="none" /><path d="M 119.58574465831526 107.57618678355244 l 14.111821889833275 5.458755863449388 a36.13081401072397,36.13081401072397 0 0,0 -0.22872753757800762,0.5765428105828336 l -14.016035677289143 -5.7001996912457855" fill="#ffa80f" stroke="none" /><path d="M 119.31412917781788 108.2440532568976 l 17.922606021588845 7.65009476658505 a40.48701507524497,40.48701507524497 0 0,0 -0.27833110453017645,0.6368760362338379 l -17.788641035041703 -7.956632872594732" fill="#ffe215" stroke="none" /><path d="M 119.0197475246899 108.90220220490707 l 13.841072410657386 6.4783207649041366 a36.282144005670446,36.282144005670446 0 0,0 -0.26886924633179843,0.5618333156627416 l -13.727823906365675 -6.714966582631981" fill="#ffaa0f" stroke="none" /><path d="M 118.8641267826498 109.22738970284198 l 13.610442986714087 6.657549692797495 a36.15147274051809,36.15147274051809 0 0,0 -0.27747131018287613,0.5551284910277052 l -13.49415176331948 -6.890210039988947" fill="#ffa90f" stroke="none" /><path d="M 118.5362547648365 109.86951160357373 l 20.028467911629363 10.664031055001177 a43.69055057131044,43.69055057131044 0 0,0 -0.35816816470082385,0.6589890817283806 l -19.842454397313197 -11.00627497020416" fill="#f3ff19" stroke="none" /><line stroke="#e1ed5e" stroke-width="0.3" x1="174.33088141563837" x2="178.70328620479359" y1="141.23008692659167" y2="143.65538615756765" /><path d="M 175.20536237346943 141.71514677278685 a86.0,86.0 0 0,1 -30.301960400862466,31.631185727798858" fill="none" id="id53" stroke="none" /><text fill="#e1ed5e" style="font-size:6.75px; font-family:Arial;" text-anchor="middle"><textPath startOffset="22.145653131862474" xlink:href="#id53">May</textPath></text><path d="M 118.36410011445183 110.18625677009912 l 27.42096892475921 15.20994922766155 a52.356850802984866,52.356850802984866 0 0,0 -0.4427061816744652,0.7822194037317529 l -27.15582937806337 -15.678425401492426" fill="#8cff24" stroke="none" /><path d="M 118.18653347947321 110.5 l 20.872359493625506 12.05066237226732 a45.10132474453465,45.10132474453465 0 0,0 -0.39286752398811103,0.6671749447763294 l -20.66241825950763 -12.4071884853372" fill="#e2ff1b" stroke="none" /><path d="M 117.81537515405839 111.11811171558189 l 22.788689220358403 14.221827517671098 a47.862329279577864,47.862329279577864 0 0,0 -0.44097685491307054,0.6932888602321047 l -22.541194673819444 -14.610930052581875" fill="#c0ff1e" stroke="none" /><path d="M 117.62189284568427 111.42229804090321 l 19.21447242563972 12.454588883629722 a43.8978762084151,43.8978762084151 0 0,0 -0.4153064374235882,0.6288268791272509 l -18.997841549295405 -12.782595641096034" fill="#f1ff19" stroke="none" /><path d="M 117.21940702142032 112.02048342749411 l 12.488099344237478 8.71766321694885 a36.229913893246,36.229913893246 0 0,0 -0.3603753330408905,0.5069130369614006 l -12.336608912666627 -8.930753480619755" fill="#ffaa0f" stroke="none" /><path d="M 116.57777611688842 112.89097897827486 l 9.497055880156987 7.384968094839024 a33.03045402936293,33.03045402936293 0 0,0 -0.3519057798818657,0.4446214570258953 l -9.36888366963356 -7.546909495779603" fill="#ff7e0b" stroke="none" /><path d="M 116.1254893667686 113.45245675266167 l 25.356538025975418 21.153325857794442 a54.02146598061286,54.02146598061286 0 0,0 -0.6001667476472594,0.7069949196306499 l -24.989676714821044 -21.58548755987465" fill="#7aff26" stroke="none" /><path d="M 115.89218393027572 113.72728997021213 l 13.267622272894634 11.460256120513556 a38.53189297035486,38.53189297035486 0 0,0 -0.43667448627030525,0.4968554061457828 l -13.068936722665743 -11.68632380447063" fill="#ffc912" stroke="none" /><path d="M 115.41159269507618 114.26474011684316 l 10.998480122067273 10.180029003211306 a35.986645905663224,35.986645905663224 0 0,0 -0.423518552332551,0.4497620259949861 l -10.822105735998461 -10.367332489150789" fill="#ffa60f" stroke="none" /><path d="M 115.16444852881244 114.52719865689866 l 15.37843331254038 14.732191239178384 a42.29632996213141,42.29632996213141 0 0,0 -0.5067768991120402,0.5199977430970376 l -15.123269612277532 -14.99401167434316" fill="#fff917" stroke="none" /><path d="M 114.65682725009322 115.03919595460226 l 12.736193670881757 13.068456703747918 a39.248155792845,39.248155792845 0 0,0 -0.48654165866296617,0.4660959029815389 l -12.50997952635348 -13.285164737035037" fill="#ffd213" stroke="none" /><path d="M 113.86319453409587 115.77377054828091 l 7.873379530740138 8.95846060963655 a32.92661400941137,32.92661400941137 0 0,0 -0.42776456969977417,0.36949284711367697 l -7.718435481277509 -9.092297589214944" fill="#ff7c0b" stroke="none" /><path d="M 113.59037401385872 116.0094264158162 l 10.372146108195235 12.218362035063567 a37.02715775518642,37.02715775518642 0 0,0 -0.4880984571272397,0.4071890927587339 l -10.1608733169061 -12.39461331173417" fill="#ffb410" stroke="none" /><path d="M 113.03279911837588 116.46651593811092 l 9.186271985212818 11.60655456148696 a35.80201681444389,35.80201681444389 0 0,0 -0.4851856165425233,0.37728327004243395 l -8.985676424035065 -11.762538883150187" fill="#ffa40f" stroke="none" /><path d="M 112.7482090630111 116.68781488649013 l 14.152575280384108 18.5261753457926 a44.31339872283732,44.31339872283732 0 0,0 -0.6084588606159812,0.4565988724231 l -13.83246343085736 -18.766393245479712" fill="#ebff1a" stroke="none" /><path d="M 112.45986205192187 116.90419585922612 l 9.519189610225272 12.914608919569703 a37.04375561958141,37.04375561958141 0 0,0 -0.5151180994278006,0.3729057792106549 l -9.296090500423503 -13.076115470153436" fill="#ffb510" stroke="none" /><path d="M 111.8722381534696 117.32195027204791 l 10.653235614557527 15.543389137442967 a39.843788762806085,39.843788762806085 0 0,0 -0.5674964340587718,0.3818369273959018 l -10.384842892401752 -15.723975738895989" fill="#ffda14" stroke="none" /><path d="M 111.27062007382361 117.71928675628689 l 17.60996411252293 27.685788522179816 a53.81179242496833,53.81179242496833 0 0,0 -0.7836941151274862,0.48908308960569624 l -17.13210586860573 -27.98400740862706" fill="#7cff26" stroke="none" /><path d="M 110.96478420261333 117.91015095944535 l 7.332410238045986 11.976941071825797 a35.04319612257086,35.04319612257086 0 0,0 -0.5157478108104812,0.30969174175347464 l -7.1257296706780675 -12.101046814115195" fill="#ff9a0e" stroke="none" /><line stroke="#e1ed5e" stroke-width="0.3" x1="143.1302829299769" x2="145.66735839644613" y1="173.24464959558577" y2="177.55315839532614" /><path d="M 143.63769802327073 174.10635135553383 a86.0,86.0 0 0,1 -40.68552437913181,11.842963189579606" fill="none" id="id54" stroke="none" /><text fill="#e1ed5e" style="font-size:6.75px; font-family:Arial;" text-anchor="middle"><textPath startOffset="21.407464694133747" xlink:href="#id54">June</textPath></text><path d="M 110.65571695917076 118.09573695890943 l 11.474160197745901 19.485632506792506 a43.612965892012156,43.612965892012156 0 0,0 -0.6483950690682727,0.3743510676677947 l -11.13797266081723 -19.679730471736473" fill="#f4ff19" stroke="none" /><path d="M 110.02825361518725 118.45085714620011 l 7.182244692194379 13.214521280558778 a36.040219795365196,36.040219795365196 0 0,0 -0.5461143343045737,0.29077512300497876 l -6.9543415421032515 -13.335866871286324" fill="#ffa70f" stroke="none" /><path d="M 109.71004243097381 118.62028667847754 l 7.51256408244003 14.40633219678299 a37.24749292835157,37.24749292835157 0 0,0 -0.5694836208909302,0.2907823945583573 l -7.264153239835518 -14.533172543014185" fill="#ffb711" stroke="none" /><path d="M 108.73861861582097 119.09545874513695 l 6.0626484781809715 13.247981058673986 a35.569307076898845,35.569307076898845 0 0,0 -0.5573991537485671,0.24931755164072514 l -5.834335921576778 -13.350102361224561" fill="#ffa10e" stroke="none" /><path d="M 108.4095320186766 119.2426549942271 l 13.650630101424854 31.235313084266814 a55.08789353477413,55.08789353477413 0 0,0 -0.8697720608988894,0.3712539729540175 l -13.112422965355533 -31.465041706880235" fill="#6eff28" stroke="none" /><path d="M 108.07796709384702 119.3841803445677 l 8.91952313975075 21.40360849701518 a44.18776293077988,44.18776293077988 0 0,0 -0.7026812524146834,0.285774348059672 l -8.550787426145625 -21.553570101654145" fill="#edff1a" stroke="none" /><path d="M 107.74402155503746 119.51999308798841 l 12.649762422862565 31.88566474202926 a55.303237535194164,55.303237535194164 0 0,0 -0.8854515444400598,0.34251167905504126 l -12.100538615928976 -32.09811630922234" fill="#6bff28" stroke="none" /><path d="M 107.06938296918513 119.77432235084164 l 4.00147637643534 11.192841594777962 a32.88661079353412,32.88661079353412 0 0,0 -0.5332238643904882,0.18548293951870914 l -3.80874673999983 -11.259882966865263" fill="#ff7c0b" stroke="none" /><path d="M 106.72888874123015 119.89276391827305 l 4.665170146918928 13.791746592954903 a35.55939856532497,35.55939856532497 0 0,0 -0.5799183557878849,0.19063068218964974 l -4.42772905348331 -13.869798196546572" fill="#ffa10e" stroke="none" /><path d="M 106.0420521117495 120.11202640906438 l 4.2929943166447195 14.289981859378825 a35.92090418654713,35.92090418654713 0 0,0 -0.5920791109701388,0.17234560014998543 l -4.047055193292974 -14.36157115383133" fill="#ffa60f" stroke="none" /><path d="M 105.69591212413111 120.21278271476187 l 4.685872920726017 16.628509905262963 a38.276132284126035,38.276132284126035 0 0,0 -0.633959557557286,0.1727884965051714 l -4.399731962234036 -16.706498895912276" fill="#ffc512" stroke="none" /><path d="M 104.9986988182912 120.39639698878246 l 2.8845660777218254 11.770013957692703 a33.11833115660009,33.11833115660009 0 0,0 -0.5533408345069396,0.13058693027466 l -2.6820930894750066 -11.817797031613589" fill="#ff7f0b" stroke="none" /><path d="M 104.29559338865022 120.5559693870025 l 2.118855548543823 10.139490834125098 a31.35851452723323,31.35851452723323 0 0,0 -0.5278735759002587,0.10558949914176595 l -1.9444854871126056 -10.174369729929726" fill="#ff6609" stroke="none" /><path d="M 103.58742460773223 120.69131181640829 l 2.718549199268482 15.679869355043959 a36.91379316002599,36.91379316002599 0 0,0 -0.6252888892698508,0.102891048779022 l -2.448982806945559 -15.724226402318653" fill="#ffb310" stroke="none" /><path d="M 103.2317021107853 120.74984581791261 l 2.681095041973955 17.21455345728349 a38.422087169962396,38.422087169962396 0 0,0 -0.6525806611275543,0.09590688433648616 l -2.3851892752387154 -17.25804141491886" fill="#ffc712" stroke="none" /><path d="M 102.875027216393 120.80226474461374 l 2.0416158904314927 14.772115553344008 a35.9125314204333,35.9125314204333 0 0,0 -0.6114060216594894,0.07915875027881093 l -1.7877320468812279 -14.804985899823214" fill="#ffa50f" stroke="none" /><path d="M 102.51750503828377 120.84855314841334 l 1.242883322137392 10.29285685820232 a31.367625632510553,31.367625632510553 0 0,0 -0.5351378150550025,0.05996330836758016 l -1.0660096054815902 -10.312675927076873" fill="#ff6609" stroke="none" /><path d="M 101.80034050326958 120.92268563240118 l 1.7153808343539236 19.935325496400846 a41.008991330257466,41.008991330257466 0 0,0 -0.701900141766099,0.05433151009944038 l -1.3729116978125888 -19.96183477349534" fill="#ffe915" stroke="none" /><path d="M 101.44090949804482 120.95050786540614 l 1.020872821238277 14.843266770017955 a35.878331550380985,35.878331550380985 0 0,0 -0.6148104878318364,0.036985472238843305 l -0.7659179812739754 -14.858604220081489" fill="#ffa50f" stroke="none" /><path d="M 101.08105385017728 120.97215588758144 l 0.7908448998549695 15.342179781272941 a36.362549140573215,36.362549140573215 0 0,0 -0.6236596894914722,0.026782630509246515 l -0.5273594497626677 -15.353494980208017" fill="#ffac0f" stroke="none" /><line stroke="#e1ed5e" stroke-width="0.3" x1="101.45913802915013" x2="101.54496967792366" y1="184.9874750549273" y2="189.98673829345242" /><path d="M 101.47630435890484 185.9873277026323 a86.0,86.0 0 0,1 -42.54439059252881,-10.42667462771756" fill="none" id="id55" stroke="none" /><text fill="#e1ed5e" style="font-size:6.75px; font-family:Arial;" text-anchor="middle"><textPath startOffset="22.145653131862474" xlink:href="#id55">July</textPath></text><path d="M 100.0 121.0 l 2.8827148750173366e-15 23.5391533054624 a44.5391533054624,44.5391533054624 0 0,0 -0.7645737926370267,-0.006562946455718216 l 0.40408086778817176 -23.535684757201114" fill="#e9ff1a" stroke="none" /><path d="M 98.91894614982273 120.97215588758144 l -1.2276836177092778 23.81673420524518 a44.84835498034377,44.84835498034377 0 0,0 -0.7685206589164588,-0.04623229443526564 l 1.636348628758183 -23.792149932985225" fill="#e5ff1a" stroke="none" /><path d="M 98.55909050195518 120.95050786540614 l -2.4959646120319112 36.29077767000974 a57.37650867302404,57.37650867302404 0 0,0 -0.9820426756491626,-0.0760163139672 l 3.11857628245631 -36.24258358904749" fill="#55ff2b" stroke="none" /><path d="M 98.19965949673042 120.92268563240118 l -1.925691588500581 22.379455251928956 a43.462152734480114,43.462152734480114 0 0,0 -0.7427897901253364,-0.0703429654005028 l 2.309580942010933 -22.34310053102327" fill="#f6ff19" stroke="none" /><path d="M 97.48249496171623 120.84855314841334 l -1.855101045639597 15.362897852256364 a36.47449612453977,36.47449612453977 0 0,0 -0.6209733952324404,-0.08039743833332146 l 2.1185522627628317 -15.328788817722646" fill="#ffad10" stroke="none" /><path d="M 97.12497278360702 120.80226474461374 l -2.647107728406676 19.153152867510812 a40.33521254323386,40.33521254323386 0 0,0 -0.685074174959501,-0.10068231189417973 l 2.9755070089738616 -19.10488948231775" fill="#ffe015" stroke="none" /><path d="M 96.05791012581884 120.62667999033965 l -6.5482802552605905 34.26336933537715 a55.88349828377164,55.88349828377164 0 0,0 -0.9407149068637117,-0.18816932763025893 l 7.13549164765526 -34.14591061108403" fill="#65ff29" stroke="none" /><path d="M 95.70440661134978 120.55596938700252 l -4.917497773302133 23.53200699948346 a45.04032316284808,45.04032316284808 0 0,0 -0.7554711707416544,-0.16465142544752093 l 5.320731360662923 -23.444124115902223" fill="#e2ff1b" stroke="none" /><path d="M 95.35216902796893 120.47920084513623 l -3.408536333330822 15.018640001816188 a36.40057360749234,36.40057360749234 0 0,0 -0.6081805173473104,-0.14352894610427233 l 3.66584900441802 -14.957914912065688" fill="#ffac0f" stroke="none" /><path d="M 94.6519064749342 120.30758222061772 l -4.758846171040751 18.070114039842395 a39.68624195210312,39.68624195210312 0 0,0 -0.6573149084736779,-0.179154101254062 l 5.0683424804491235 -17.98575944444419" fill="#ffd814" stroke="none" /><path d="M 93.95794788825049 120.11202640906438 l -5.890419168614066 19.607289657308513 a41.47297842737039,41.47297842737039 0 0,0 -0.6800766001989361,-0.21068946916443373 l 6.226136401684636 -19.503283600337433" fill="#ffef16" stroke="none" /><path d="M 93.61358852112213 120.00534299687104 l -10.764846541645163 33.7207284695867 a56.39730850763607,56.39730850763607 0 0,0 -0.919752181987182,-0.30234081081883807 l 11.342121461280088 -33.530966737365844" fill="#60ff29" stroke="none" /><path d="M 92.93061703081489 119.77432235084164 l -4.912331776490736 13.74066625984581 a35.59235802558263,35.59235802558263 0 0,0 -0.5735638130508451,-0.21062057683889712 l 5.1474847411957 -13.654314833998194" fill="#ffa10e" stroke="none" /><path d="M 92.59220618246901 119.65005319985036 l -8.10001616348237 21.48625521344845 a43.96234798417001,43.96234798417001 0 0,0 -0.7038743237233183,-0.27227370935883516 l 8.467662749699217 -21.344041615951575" fill="#f0ff19" stroke="none" /><path d="M 92.25597844496254 119.51999308798841 l -8.860192011210032 22.33347177405077 a45.026796789373165,45.026796789373165 0 0,0 -0.7160237102236071,-0.2912006094957871 l 9.242270182624079 -22.178083907975694" fill="#e3ff1b" stroke="none" /><path d="M 91.59046798132341 119.24265499422711 l -5.1723171697157735 11.835273900677858 a33.91613615630476,33.91613615630476 0 0,0 -0.5314926588553949,-0.23772990599231955 l 5.374723231426803 -11.744740243775684" fill="#ff8a0c" stroke="none" /><path d="M 91.26138138417905 119.09545874513695 l -12.310925920375043 26.90159490441086 a50.584703909587915,50.584703909587915 0 0,0 -0.7864988919975916,-0.3681211941120163 l 12.770913526244126 -26.686297478728317" fill="#a0ff22" stroke="none" /><path d="M 90.93487009805054 118.94263497670748 l -11.250123655729546 23.50843155678088 a47.061689057485445,47.061689057485445 0 0,0 -0.7257355073181944,-0.35499360369937677 l 11.652019412309809 -23.311844202984283" fill="#caff1d" stroke="none" /><path d="M 90.28995756902619 118.62028667847754 l -8.226483435087827 15.775366689280242 a38.79149302023377,38.79149302023377 0 0,0 -0.587804139589329,-0.31297259613148937 l 8.496076390463717 -15.631823625426179" fill="#ffcc13" stroke="none" /><path d="M 89.97174638481275 118.45085714620012 l -11.332765357676259 20.851011822160196 a44.7317564596473,44.7317564596473 0 0,0 -0.6715212475185529,-0.3724815161739503 l 11.689030793350915 -20.6533973905531" fill="#e6ff1a" stroke="none" /><line stroke="#e1ed5e" stroke-width="0.3" x1="58.13341422392154" x2="55.67067388415222" y1="173.97424548756322" y2="178.32567169271397" /><path d="M 57.64086615596768 174.84453072859336 a86.0,86.0 0 0,1 -31.369924170532247,-30.572349798747897" fill="none" id="id56" stroke="none" /><text fill="#e1ed5e" style="font-size:6.75px; font-family:Arial;" text-anchor="middle"><textPath startOffset="22.145653131862474" xlink:href="#id56">August</textPath></text><path d="M 89.65649057296885 118.27599006163327 l -14.585031696133413 25.77035349632284 a50.61138748695601,50.61138748695601 0 0,0 -0.7524407802601706,-0.43442188703246487 l 15.025264944253983 -25.5161847120142" fill="#a0ff22" stroke="none" /><path d="M 89.34428304082925 118.09573695890944 l -9.770959157879219 16.593224785785747 a40.25634315379112,40.25634315379112 0 0,0 -0.5924722385533575,-0.35576255614120716 l 10.054364152990003 -16.42304822910862" fill="#ffdf14" stroke="none" /><path d="M 88.4268655584334 117.5232005979908 l -8.069631153264442 12.218450080608172 a35.64272752331511,35.64272752331511 0 0,0 -0.5076605764081223,-0.3415766919790659 l 8.278188017769569 -12.078123714571985" fill="#ffa20e" stroke="none" /><path d="M 88.1277618465304 117.32195027204791 l -14.06568747862301 20.522258389474015 a45.87984432528927,45.87984432528927 0 0,0 -0.6458241523209034,-0.4508354155512892 l 14.415906722117679 -20.277778158117595" fill="#d8ff1c" stroke="none" /><path d="M 87.54013794807813 116.9041958592261 l -15.806987606383741 21.445214507929123 a47.64128530081578,47.64128530081578 0 0,0 -0.6541534390923653,-0.4908889359896718 l 16.17279403438687 -21.170706544675436" fill="#c3ff1e" stroke="none" /><path d="M 86.96720088162412 116.46651593811092 l -21.432099146582598 27.07875714026619 a55.53395375699782,55.53395375699782 0 0,0 -0.7424340350668405,-0.5980523045020425 l 21.8937839520047 -26.706856541970737" fill="#69ff28" stroke="none" /><path d="M 86.68645165197938 116.24036423190432 l -16.92777685608301 20.649135346405306 a47.70086927130846,47.70086927130846 0 0,0 -0.6288011855755465,-0.5245683130962551 l 17.27975237582045 -20.355504849397178" fill="#c2ff1e" stroke="none" /><path d="M 86.40962598614128 116.0094264158162 l -12.260287016968507 14.442587277935704 a39.944734493236815,39.944734493236815 0 0,0 -0.5189401545323427,-0.44824814573666916 l 12.506406651263712 -14.229994999734313" fill="#ffdb14" stroke="none" /><path d="M 85.86807049272751 115.53346607816431 l -13.55786537555762 14.90246903617546 a41.14694261956172,41.14694261956172 0 0,0 -0.51839314374231,-0.47981695468762 l 13.811688290613898 -14.667534335355464" fill="#ffeb16" stroke="none" /><path d="M 85.34317274990678 115.03919595460226 l -11.452141145128058 11.750905693471193 a37.40839179885673,37.40839179885673 0 0,0 -0.45604050264054136,-0.45214274398800547 l 11.652173567898561 -11.552582939254528" fill="#ffba11" stroke="none" /><path d="M 85.08716467003676 114.78537596483092 l -23.1469146644315 22.94907897573636 a53.5950898804875,53.5950898804875 0 0,0 -0.6421539051161591,-0.6589064773205675 l 23.537455370698467 -22.548349806348053" fill="#7eff26" stroke="none" /><path d="M 84.83555147118756 114.52719865689866 l -14.016063759768953 13.427072025669437 a40.40969619804554,40.40969619804554 0 0,0 -0.47557241313510823,-0.5050414222964628 l 14.244492006640314 -13.184489143428484" fill="#ffe115" stroke="none" /><path d="M 84.3458050057657 113.99807769240083 l -11.477517724166729 10.263267122836291 a36.39701481272437,36.39701481272437 0 0,0 -0.4124803252554105,-0.4693268921717143 l 11.652009113380732 -10.064727952853277" fill="#ffac0f" stroke="none" /><path d="M 83.8745106332314 113.45245675266167 l -18.718297268569323 15.615469320752396 a45.376577584679296,45.376577584679296 0 0,0 -0.49385529233540676,-0.602423156901895 l 18.98359938014336 -15.291843882152007" fill="#deff1b" stroke="none" /><path d="M 83.4222238831116 112.89097897827486 l -20.605493085358717 16.02295605438566 a47.10213527686078,47.10213527686078 0 0,0 -0.49086710322530874,-0.642560795167622 l 20.87751216593832 -15.666874345977165" fill="#c9ff1d" stroke="none" /><path d="M 83.20337586046588 112.60449989151573 l -15.411463239957545 11.56504932910474 a40.26820088075658,40.26820088075658 0 0,0 -0.4101565163517359,-0.5564560872709001 l 15.607721775893111 -11.29878693256496" fill="#ffdf14" stroke="none" /><path d="M 82.78059297857968 112.02048342749411 l -17.04466341801759 11.898498821046848 a41.78689070611476,41.78689070611476 0 0,0 -0.40555224726107136,-0.5917128488296495 l 17.246405402093984 -11.604151237147148" fill="#fff316" stroke="none" /><path d="M 82.37810715431573 111.42229804090323 l -15.191690011382464 9.847069924586464 a39.10392862065118,39.10392862065118 0 0,0 -0.3602818274295248,-0.5664228739401614 l 15.358489530437879 -9.584833375967632" fill="#ffd013" stroke="none" /><path d="M 82.18462484594161 111.11811171558189 l -17.61496569230793 10.993041389229907 a41.763765923514626,41.763765923514626 0 0,0 -0.37434660341862686,-0.6114670434448933 l 17.801080260181962 -10.689037229660457" fill="#fff316" stroke="none" /><path d="M 81.99639281039703 110.81064883170644 l -15.192634012285517 9.122740204546757 a38.721188365087386,38.721188365087386 0 0,0 -0.3372915869996072,-0.5727948537094971 l 15.346999309414894 -8.8605941825437" fill="#ffcb12" stroke="none" /><line stroke="#e1ed5e" stroke-width="0.3" x1="26.387840678322732" x2="22.057713659400548" y1="142.50000000000003" y2="145.00000000000006" /><path d="M 25.521815274538298 143.00000000000003 a86.0,86.0 0 0,1 -11.493303480769221,-40.785679425670985" fill="none" id="id57" stroke="none" /><text fill="#e1ed5e" style="font-size:6.75px; font-family:Arial;" text-anchor="middle"><textPath startOffset="21.40746469413373" xlink:href="#id57">September</textPath></text><path d="M 81.81346652052679 110.50000000000001 l -13.094436081606165 7.560076196601678 a36.12015239320334,36.12015239320334 0 0,0 -0.3054159007321965,-0.5396406322074077 l 13.22228534735974 -7.334178794295148" fill="#ffa80f" stroke="none" /><path d="M 81.29705330413844 109.54985784667822 l -10.555663509876169 5.3897970002230355 a32.85208605424988,32.85208605424988 0 0,0 -0.25214771816188003,-0.5044643433839344 l 10.646631141249786 -5.207800800675348" fill="#ff7b0b" stroke="none" /><path d="M 81.1358732173502 109.22738970284198 l -14.762285542599052 7.22097360644738 a37.43373159894729,37.43373159894729 0 0,0 -0.27740309946465086,-0.5796657865251476 l 14.884067900023615 -6.966495317857128" fill="#ffba11" stroke="none" /><path d="M 80.83023694016515 108.57439118712176 l -13.623774684490284 6.093741128954389 a35.9245072816649,35.9245072816649 0 0,0 -0.2469657931765299,-0.5651060657022672 l 13.726374359683781 -5.858972993476272" fill="#ffa60f" stroke="none" /><path d="M 80.68587082218212 108.24405325689762 l -16.540476606410415 7.060145905740635 a38.984243842251374,38.984243842251374 0 0,0 -0.2574336710099011,-0.6177470949864368 l 16.659236121956802 -6.775166301312917" fill="#ffcf13" stroke="none" /><path d="M 80.41425534168474 107.57618678355246 l -13.990653133039007 5.411885185320014 a36.00089585151835,36.00089585151835 0 0,0 -0.2180099670240618,-0.5782973386735314 l 14.081493783877505 -5.170919566452338" fill="#ffa70f" stroke="none" /><path d="M 80.28708602549918 107.23885506374661 l -22.06564229055926 8.102809490086099 a44.50634151303743,44.50634151303743 0 0,0 -0.2572039065708768,-0.7194451030023264 l 22.20148636717408 -7.722829430702851" fill="#e9ff1a" stroke="none" /><path d="M 80.05021161711548 106.5578916946017 l -20.617329490887144 6.777325715853332 a42.70268230414323,42.70268230414323 0 0,0 -0.22293908149944444,-0.698353497508639 l 20.730633288163844 -6.422403184653302" fill="#fffe18" stroke="none" /><path d="M 79.83685265289637 105.86919833188381 l -16.83467683154444 4.900329074453583 a38.53338441546509,38.53338441546509 0 0,0 -0.17942154445782124,-0.6367037646364849 l 16.916316868076834 -4.610617385914103" fill="#ffc912" stroke="none" /><path d="M 79.73907114497094 105.5222062557868 l -15.763884562653026 4.296516836432013 a37.33891408357343,37.33891408357343 0 0,0 -0.1632430994381123,-0.6198606378610774 l 15.835317142895871 -4.0252756941981325" fill="#ffb911" stroke="none" /><path d="M 79.64726062577567 105.17358676015961 l -20.802616313292237 5.287943718840582 a42.464183987556524,42.464183987556524 0 0,0 -0.1735217458304489,-0.7080279374291867 l 20.89032558563898 -4.930059956803295" fill="#fffb17" stroke="none" /><path d="M 79.48165901384964 104.47187691870673 l -17.6167270016292 3.839483655862757 a39.030271905702605,39.030271905702605 0 0,0 -0.13705626654637684,-0.6558638503514159 l 17.680040978999948 -3.536503354225932" fill="#ffcf13" stroke="none" /><path d="M 79.407916724674 104.11899336999214 l -11.81065346720741 2.3624614700831836 a33.04461537451844,33.04461537451844 0 0,0 -0.10648817345255739,-0.5571911211227466 l 11.849467932942126 -2.1593677839271224" fill="#ff7e0b" stroke="none" /><path d="M 79.34024301695615 103.76489593502545 l -31.004075840510893 5.649975418247282 a52.51467818256994,52.51467818256994 0 0,0 -0.15400600191476904,-0.88826569354199 l 31.096496659917896 -5.1169166917846995" fill="#8aff24" stroke="none" /><path d="M 79.2786578344484 103.40968896794605 l -14.849678710358528 2.4435089808240176 a36.04937520099233,36.04937520099233 0 0,0 -0.09523645454756174,-0.6114863562181323 l 14.889436657044357 -2.1882344426744353" fill="#ffa70f" stroke="none" /><path d="M 79.17382384314188 102.69636545807758 l -16.463583108150374 2.1315404457667495 a37.600994953041635,37.600994953041635 0 0,0 -0.07738269316340302,-0.6408397070316645 l 16.497747887573436 -1.8486070618116859" fill="#ffbc11" stroke="none" /><path d="M 79.13060592940153 102.33845913500099 l -13.82127294269898 1.5487024616460021 a34.9077699532057,34.9077699532057 0 0,0 -0.06161654837931996,-0.5960842115432062 l 13.845821883559966 -1.3112137278198646" fill="#ff980e" stroke="none" /><path d="M 79.06263194458094 101.62068470465958 l -22.11753321725622 1.7120369520719012 a43.183695502365964,43.183695502365964 0 0,0 -0.05086636042773741,-0.7395857169877347 l 22.143663538849022 -1.3321078109298232" fill="#f9ff18" stroke="none" /><path d="M 79.03789590574601 101.26102812881392 l -14.899874470381178 0.8963394484858712 a35.92681089985496,35.92681089985496 0 0,0 -0.0317497383902661,-0.6159364427603857 l 14.913065798228017 -0.6404312123487548" fill="#ffa60f" stroke="none" /><line stroke="#e1ed5e" stroke-width="0.3" x1="15.003131293944662" x2="10.003315487706104" y1="100.72959589197737" y2="100.7725132973878" /><path d="M 14.003168132696942 100.73817937305945 a86.0,86.0 0 0,1 10.791469493833604,-42.45332614584628" fill="none" id="id58" stroke="none" /><text fill="#e1ed5e" style="font-size:6.75px; font-family:Arial;" text-anchor="middle"><textPath startOffset="22.145653131862435" xlink:href="#id58">October</textPath></text><path d="M 79.00077361379809 100.18025310272382 l -22.420511371430557 0.19245312494038183 a43.42133734552304,43.42133734552304 0 0,0 0.0,-0.7454124553283905 l 22.420511371430557 0.19245312494037356" fill="#f6ff19" stroke="none" /><path d="M 79.00077361379809 99.81974689727619 l -19.408375753244805 -0.1665975633583692 a40.40909075993149,40.40909075993149 0 0,0 0.011908305819216598,-0.693599113681132 l 19.402656015826924 0.49974359300855364" fill="#ffe115" stroke="none" /><path d="M 79.01933749520258 99.09900007780938 l -19.91988387678692 -0.8554455236543326 a40.938243671612994,40.938243671612994 0 0,0 0.03617851109451215,-0.7018534500665712 l 19.902263776235834 1.197270767097616" fill="#ffe815" stroke="none" /><path d="M 79.03789590574601 98.7389718711861 l -34.75017926855419 -2.0904844924887467 a55.813001660442744,55.813001660442744 0 0,0 0.0657425036460511,-0.9558815745173244 l 34.70917280374307 2.686709491160396" fill="#66ff29" stroke="none" /><path d="M 79.0935383218832 98.0201363427161 l -30.728828118910116 -2.9100519715029125 a51.866313029553254,51.866313029553254 0 0,0 0.09155048260965001,-0.8856678713455541 l 30.674345243818802 3.437124365131379" fill="#92ff23" stroke="none" /><path d="M 79.22317932658666 96.9465228501225 l -14.29342790804974 -2.1006416812607007 a35.44696427751052,35.44696427751052 0 0,0 0.09364498506401987,-0.6012679804906175 l 14.255261430847453 2.345697843682768" fill="#ff9f0e" stroke="none" /><path d="M 79.2786578344484 96.59031103205396 l -17.70964252019878 -2.9141149373893573 a38.94779942114209,38.94779942114209 0 0,0 0.11421939693461364,-0.6587871288952847 l 17.657008305771935 3.2176950992052347" fill="#ffce13" stroke="none" /><path d="M 79.34024301695615 96.23510406497455 l -15.82688804389644 -2.8841862229779984 a37.08753913197566,37.08753913197566 0 0,0 0.1195167277710144,-0.6253620226599597 l 15.775045023843266 3.1554508106712724" fill="#ffb510" stroke="none" /><path d="M 79.407916724674 95.88100663000787 l -22.805738550332567 -4.561786422025174 a44.257506448162026,44.257506448162026 0 0,0 0.15541189708061023,-0.7437021872707764 l 22.72406894242759 4.952605060581359" fill="#ecff1a" stroke="none" /><path d="M 79.56144815229197 95.17655741523228 l -20.052855701871515 -4.732419344546454 a41.60370875965583,41.60370875965583 0 0,0 0.1700055787981723,-0.6936807760425582 l 19.968662596557046 5.075955945197129" fill="#fff116" stroke="none" /><path d="M 79.64726062577567 94.8264132398404 l -16.25081274627073 -4.130893051793096 a37.767623335455376,37.767623335455376 0 0,0 0.16511738605712947,-0.6269776094402431 l 16.177505879408873 4.409251165606125" fill="#ffbe11" stroke="none" /><path d="M 79.73907114497095 94.47779374421319 l -10.189941250457604 -2.7773138004682254 a31.561646397889334,31.561646397889334 0 0,0 0.14695930368545024,-0.5215067242210765 l 10.140763454697572 2.9518284485923147" fill="#ff6909" stroke="none" /><path d="M 79.94057633289273 93.78553927170692 l -14.24555390444577 -4.413309014312616 a35.91352079491235,35.91352079491235 0 0,0 0.1874947171328381,-0.5873245309590975 l 14.167694471535675 4.657202578963106" fill="#ffa50f" stroke="none" /><path d="M 80.05021161711548 93.44210830539832 l -21.635545248728953 -7.112033459790699 a43.7744997341979,43.7744997341979 0 0,0 0.24079013727030912,-0.7118532552361829 l 21.51026968988628 7.482388389501044" fill="#f2ff19" stroke="none" /><path d="M 80.28708602549916 92.7611449362534 l -11.334819724132938 -4.162302806314167 a33.07488728022104,33.07488728022104 0 0,0 0.2002909903971581,-0.5312956480296078 l 11.261698049921344 4.35626673453792" fill="#ff7e0b" stroke="none" /><path d="M 80.41425534168474 92.42381321644754 l -13.117185879867197 -5.074009287579424 a35.06435692299615,35.06435692299615 0 0,0 0.2219762890858862,-0.5595252541407559 l 13.02815091581518 5.298435558933763" fill="#ff9a0e" stroke="none" /><path d="M 80.68587082218212 91.75594674310238 l -10.022859128972128 -4.278162566113895 a31.89772361832131,31.89772361832131 0 0,0 0.21928335863202017,-0.5017632380446528 l 9.947941888323129 4.449587873934416" fill="#ff6e0a" stroke="none" /><path d="M 81.29705330413844 90.45014215332179 l -13.54324646575871 -6.915278144868013 a36.206597142463366,36.206597142463366 0 0,0 0.2873975044535067,-0.5511226095709894 l 13.422540892330263 7.146746997543489" fill="#ffa90f" stroke="none" /><path d="M 81.46374523516351 90.13048839642627 l -8.085557696232845 -4.305104052395605 a30.160249132041294,30.160249132041294 0 0,0 0.24724891165907115,-0.454910149227399 l 8.010463434958425 4.443269035097624" fill="#ff5507" stroke="none" /><path d="M 81.63589988554816 89.8137432299009 l -10.753500413546961 -5.964785407783426 a33.297009234161806,33.297009234161806 0 0,0 0.2815446611696436,-0.49746243919837346 l 10.649522387355947 6.148504617080905" fill="#ff810b" stroke="none" /><line stroke="#e1ed5e" stroke-width="0.3" x1="26.387840678322718" x2="22.05771365940052" y1="57.49999999999999" y2="54.99999999999999" /><path d="M 25.521815274538284 56.99999999999999 a86.0,86.0 0 0,1 29.574782752854787,-30.34633250058573" fill="none" id="id59" stroke="none" /><text fill="#e1ed5e" style="font-size:6.75px; font-family:Arial;" text-anchor="middle"><textPath startOffset="21.40746469413373" xlink:href="#id59">November</textPath></text><path d="M 82.18462484594161 88.88188828441811 l -53.44612546217515 -33.35433514674566 a84.0,84.0 0 0,0 0.7739292334964403,-1.2167453012853122 l 52.865678537052815 34.266894122709644" fill="#4dd2ff" stroke="none" /><path d="M 82.576782715395 88.27688183743585 l -9.042521912379524 -6.084212297579918 a31.898845893849796,31.898845893849796 0 0,0 0.309586294138728,-0.45169565524689426 l 8.936745881425482 6.238542687896848" fill="#ff6e0a" stroke="none" /><path d="M 82.78059297857968 87.97951657250589 l -15.144185971498622 -10.571817964860022 a39.46915547125728,39.46915547125728 0 0,0 0.39259574531994196,-0.5522350819046631 l 14.960475127648708 10.830230273474205" fill="#ffd513" stroke="none" /><path d="M 83.42222388311158 87.10902102172516 l -18.010783416506687 -14.005294121925186 a43.81527082280516,43.81527082280516 0 0,0 0.46680699683775423,-0.5897953911230438 l 17.767709989027374 14.312409456962913" fill="#f2ff19" stroke="none" /><path d="M 83.8745106332314 86.54754324733833 l -12.650006246109744 -10.553085123567483 a37.473926783007045,37.473926783007045 0 0,0 0.4163271831053281,-0.49043237485826474 l 12.4669844994973 10.768684280875304" fill="#ffba11" stroke="none" /><path d="M 84.34580500576568 86.00192230759919 l -11.358898541277638 -10.157197118054677 a36.237887956211566,36.237887956211566 0 0,0 0.4186378540386564,-0.46015633614634904 l 11.182862986397115 10.350691029758684" fill="#ffaa0f" stroke="none" /><path d="M 84.58840730492382 85.73525988315684 l -8.952571587434702 -8.286366607196326 a33.198869192552294,33.198869192552294 0 0,0 0.39070984988056734,-0.41492032094144865 l 8.809005903817864 8.438828388082285" fill="#ff800b" stroke="none" /><path d="M 85.08716467003674 85.21462403516908 l -13.778041495032786 -13.660281164225985 a40.4020027039621,40.4020027039621 0 0,0 0.49253519691165876,-0.4883255196695604 l 13.54151437799115 13.89478669412422" fill="#ffe115" stroke="none" /><path d="M 85.34317274990677 84.96080404539775 l -24.760390996717128 -25.406342434023674 a56.476177897078806,56.476177897078806 0 0,0 0.7001096666559805,-0.6706892235350581 l 24.32060884419585 25.8276437878643" fill="#5fff29" stroke="none" /><path d="M 85.86807049272753 84.46653392183569 l -10.045350508634508 -11.041599895389012 a35.92735727083593,35.92735727083593 0 0,0 0.45975892345164326,-0.4111192643646652 l 9.854326558359473 11.212414689637079" fill="#ffa60f" stroke="none" /><path d="M 86.13680546590413 84.22622945171909 l -9.94986987493353 -11.321125445253639 a36.07208651366091,36.07208651366091 0 0,0 0.4686288289855478,-0.4047904210087987 l 9.754061566185133 11.490259998727149" fill="#ffa80f" stroke="none" /><path d="M 86.68645165197937 83.75963576809568 l -9.510376407560653 -11.601112851650672 a36.00110258648412,36.00110258648412 0 0,0 0.4812991341674855,-0.3877005131072506 l 9.309826503037922 11.762661658551322" fill="#ffa70f" stroke="none" /><path d="M 86.96720088162412 83.53348406188908 l -11.160028372472071 -14.100331279254927 a38.982368460776144,38.982368460776144 0 0,0 0.528285447547694,-0.4107979593190507 l 10.916332980289132 14.289830290194784" fill="#ffce13" stroke="none" /><path d="M 87.25179093698888 83.31218511350988 l -22.439449626218558 -29.373959876730048 a57.964285714285715,57.964285714285715 0 0,0 0.7958965969351173,-0.5972556441335486 l 21.931900040372685 29.754834548127597" fill="#4fff2b" stroke="none" /><path d="M 87.83215693770416 82.88440491214696 l -8.859973155082155 -12.462661807459371 a36.29107790954853,36.29107790954853 0 0,0 0.5108486084122794,-0.3566120031740659 l 8.64472945549611 12.612918626438564" fill="#ffab0f" stroke="none" /><path d="M 88.72937992617638 82.28071324371311 l -8.21731488753614 -12.918983862931414 a36.31092446626282,36.31092446626282 0 0,0 0.5288182485043303,-0.3300216982952584 l 7.994332510242112 13.058141358068209" fill="#ffab0f" stroke="none" /><path d="M 89.03521579738668 82.08984904055464 l -11.763920096204442 -19.215479384232502 a43.53052294101819,43.53052294101819 0 0,0 0.6406599395711363,-0.38469788605727506 l 11.432327400075872 19.4145912708257" fill="#f5ff19" stroke="none" /><line stroke="#e1ed5e" stroke-width="0.3" x1="56.869717070023135" x2="54.33264160355391" y1="26.7553504044142" y2="22.446841604673864" /><path d="M 56.362301976729285 25.89364864446614 a86.0,86.0 0 0,1 42.16139366436587,-11.88097634709845" fill="none" id="id60" stroke="none" /><text fill="#e1ed5e" style="font-size:6.75px; font-family:Arial;" text-anchor="middle"><textPath startOffset="22.145653131862474" xlink:href="#id60">December</textPath></text><path d="M 89.34428304082924 81.90426304109057 l -9.077125156187197 -15.41494296431143 a38.88895378981289,38.88895378981289 0 0,0 0.578163061438497,-0.3338025991570126 l 8.8111696268883 15.568492460744617" fill="#ffcd13" stroke="none" /><path d="M 89.97174638481275 81.54914285379989 l -8.682374432148922 -15.974591038941202 a39.18161666743235,39.18161666743235 0 0,0 0.5937156494828874,-0.3161201421826859 l 8.406869966879473 16.121281648846463" fill="#ffd113" stroke="none" /><path d="M 90.28995756902619 81.37971332152246 l -9.225392887680792 -17.69090727577555 a40.95184387900426,40.95184387900426 0 0,0 0.6261201090563583,-0.31970138896658457 l 8.920345556910851 17.846666616414968" fill="#ffe815" stroke="none" /><path d="M 90.93487009805054 81.0573650232925 l -7.1122011380719945 -14.861764971558657 a37.47590553196517,37.47590553196517 0 0,0 0.5826812435272033,-0.27272424327148836 l 6.856031180673269 14.981665446400688" fill="#ffba11" stroke="none" /><path d="M 91.26138138417902 80.90454125486306 l -13.039972323975727 -28.494692868205984 a52.3366941438219,52.3366941438219 0 0,0 0.8201573610274577,-0.3668459556071063 l 12.54890156009265 28.714342574722934" fill="#8cff24" stroke="none" /><path d="M 91.5904679813234 80.7573450057729 l -9.78614176208133 -22.392607488039882 a45.437623466715664,45.437623466715664 0 0,0 0.7174058194845634,-0.3062178847510012 l 9.400300867426335 22.55730002245029" fill="#ddff1b" stroke="none" /><path d="M 92.25597844496254 80.48000691201159 l -5.507024789540562 -13.881299924492845 a35.933780821558194,35.933780821558194 0 0,0 0.5753301821755198,-0.22255007396547577 l 5.267922344871513 13.973789886596363" fill="#ffa60f" stroke="none" /><path d="M 92.592206182469 80.34994680014964 l -6.364331156535989 -16.8821445207393 a39.04193766448556,39.04193766448556 0 0,0 0.6291531069573928,-0.23103373555333445 l 6.073588897924469 16.988909105301353" fill="#ffcf13" stroke="none" /><path d="M 92.93061703081487 80.22567764915836 l -1.1549935986643902 -3.2307226575081005 a24.430973491983277,24.430973491983277 0 0,0 0.3961240693972291,-0.1377925140126586 l 1.0993637572221568 3.250073604089345" fill="#ff0000" stroke="none" /><path d="M 93.27111125876988 80.10723608172694 l -3.43666625685122 -10.159893132805536 a31.725395257565516,31.725395257565516 0 0,0 0.5173917388025592,-0.17007694125015138 l 3.2617517804008997 10.217390995457716" fill="#ff6b09" stroke="none" /><path d="M 93.61358852112211 79.99465700312896 l -9.503116477486525 -29.768377014244333 a52.248447847003,52.248447847003 0 0,0 0.8567734492397296,-0.2654306046726185 l 8.99070239537518 29.927124206723594" fill="#8dff24" stroke="none" /><path d="M 93.95794788825049 79.88797359093562 l -5.171402940800703 -17.21391848227226 a38.97393662752923,38.97393662752923 0 0,0 0.6424018067472537,-0.1869938034798821 l 4.875141121671825 17.300155980054665" fill="#ffce13" stroke="none" /><path d="M 94.6519064749342 79.69241777938228 l -3.872342668736831 -14.703915846500053 a36.205268131969106,36.205268131969106 0 0,0 0.6023775734602813,-0.15312202359442745 l 3.6193598020511715 14.768223101929744" fill="#ffa90f" stroke="none" /><path d="M 95.00130118170881 79.60360301121753 l -3.5856546030873337 -14.630694388229935 a36.06366944719726,36.06366944719726 0 0,0 0.6025515251035267,-0.14220051926168994 l 3.333970924243901 14.690091051137857" fill="#ffa70f" stroke="none" /><path d="M 95.70440661134978 79.44403061299748 l -3.7459854843656495 -17.925896604699883 a39.313114872447805,39.313114872447805 0 0,0 0.6617773462921298,-0.1323740034139445 l 3.437711652542543 17.987560004776697" fill="#ffd313" stroke="none" /><path d="M 96.05791012581881 79.37332000966035 l -6.252502378324495 -32.71573449941321 a54.307852975342755,54.307852975342755 0 0,0 0.9171956736081411,-0.16714360512683601 l 5.689971971165316 32.818246278471406" fill="#76ff27" stroke="none" /><path d="M 97.12497278360702 79.19773525538626 l -2.0303329943314954 -14.690478137732867 a35.83011800300586,35.83011800300586 0 0,0 0.6100029443021203,-0.07897709382431632 l 1.777852228138581 14.723166827757579" fill="#ffa40f" stroke="none" /><path d="M 97.48249496171623 79.15144685158666 l -1.8100514797261351 -14.989822821629947 a36.09871102389594,36.09871102389594 0 0,0 0.6158510551594936,-0.06900739527299665 l 1.5524645229658423 15.018685977409914" fill="#ffa80f" stroke="none" /><path d="M 97.84075906011542 79.11130261209362 l -1.2401277518868523 -11.997111046298443 a33.06103603751419,33.06103603751419 0 0,0 0.5650295366098848,-0.05350888457595072 l 1.033998651891952 12.016631686379577" fill="#ff7e0b" stroke="none" /><path d="M 98.1996594967304 79.07731436759882 l -1.2834226209893067 -14.915316288060305 a35.97043197763325,35.97043197763325 0 0,0 0.6156613582900187,-0.04765608284620407 l 1.0271922679240708 14.935150137901562" fill="#ffa60f" stroke="none" /><path d="M 98.5590905019552 79.04949213459386 l -2.3553095552862513 -34.245684014469795 a55.326583819543345,55.326583819543345 0 0,0 0.9480754126037243,-0.057033862543304586 l 1.7670897905500433 34.281069854837796" fill="#6bff28" stroke="none" /><path d="M 98.9189461498227 79.02784411241856 l -0.9524407514969545 -18.477096132448423 a39.50162762766705,39.50162762766705 0 0,0 0.677498508848791,-0.029094701066635188 l 0.6351164820473434 18.490723401940887" fill="#ffd513" stroke="none" /></svg>